<svg width="48" height="48" viewBox="0 0 48 48" fill="none" xmlns="http://www.w3.org/2000/svg">
<path d="M24.023 0C37.2781 0.0125826 48.0124 10.7679 47.9998 24.023C47.9872 37.278 37.2319 48.0124 23.9769 47.9998C10.7386 47.9872 0.00979752 37.2571 1.10534e-05 24.0174C-0.0125715 10.7651 10.719 0.0125826 23.9713 0C23.988 0 24.0048 0 24.023 0ZM15.9547 36.3232C21.1583 34.4735 26.8415 34.4721 32.0465 36.3204L32.7945 33.5061C33.1398 33.5061 33.4557 33.4977 33.7745 33.5089C34.103 33.4823 34.433 33.5005 34.7559 33.5662C34.5309 34.7336 34.247 35.8898 33.9031 37.0278C34.7895 37.5171 35.6703 37.9603 36.5077 38.4748C37.3452 38.9879 38.1379 39.5667 38.9473 40.1161C48.6779 31.1993 48.0711 16.033 38.9096 7.86273C37.3633 9.07904 35.6787 10.1094 33.8905 10.9301C34.2303 12.1338 34.5546 13.2872 34.7685 14.477H32.7763C32.6546 13.9974 32.5442 13.5389 32.4226 13.0845C32.3177 12.6092 32.1793 12.1436 32.0059 11.6892C26.8135 13.5291 21.1458 13.5263 15.9547 11.6808L15.204 14.5035C14.8587 14.5035 14.5399 14.5049 14.2225 14.5035C13.8982 14.5007 13.5738 14.4952 13.188 14.4896L14.0925 10.9203C12.3086 10.1024 10.6295 9.07485 9.09024 7.85574C-0.578789 16.6733 -0.171951 31.8382 9.09024 40.1357C10.6407 38.918 12.3282 37.8862 14.1177 37.0627C13.7584 35.8982 13.4606 34.714 13.2271 33.5186H15.2138L15.9547 36.3232ZM31.3572 9.81583C31.3461 9.73753 31.3293 9.66064 31.3083 9.58375C30.6988 7.94102 29.8627 6.39196 28.8267 4.97991C28.1599 4.053 27.3182 3.26448 26.3494 2.65912C24.9974 1.78253 23.2708 1.735 21.8728 2.53609C20.9738 3.04079 20.1811 3.71466 19.5394 4.52135C18.5076 5.79638 17.6674 7.21542 17.0424 8.73232C16.8956 9.07205 16.7614 9.41738 16.6048 9.80045C21.3737 11.5117 26.587 11.5173 31.3572 9.81583ZM16.6286 38.184C16.6622 38.2986 16.6761 38.3657 16.6999 38.4273C17.2689 39.9511 18.0295 41.3954 18.9634 42.7277C19.5743 43.6071 20.3223 44.3844 21.1793 45.0275C22.9786 46.3403 24.9303 46.3571 26.7478 45.0779C27.37 44.6333 27.932 44.109 28.4199 43.5204C29.6614 41.9839 30.64 40.2517 31.3153 38.3951C31.3349 38.3238 31.3475 38.2511 31.3544 38.1784C26.5912 36.4839 21.3904 36.4867 16.6286 38.184ZM29.6139 45.2442C32.4338 44.534 35.0775 43.2492 37.3759 41.4681C36.1135 40.4866 34.7434 39.652 33.2936 38.9795C32.7427 40.1021 32.2366 41.1968 31.6746 42.2621C31.0944 43.3247 30.4038 44.3243 29.6139 45.2442ZM18.4084 45.2526C17.6115 44.3439 16.9166 43.3484 16.3378 42.2859C15.7646 41.2122 15.2599 40.1035 14.7091 38.9781C13.2579 39.652 11.8864 40.4866 10.6239 41.4681C12.9307 43.2506 15.5801 44.5396 18.4084 45.2526ZM33.2209 9.01194C34.282 8.65403 36.9439 7.00431 37.3144 6.47864C35.0258 4.71708 32.3988 3.44623 29.5971 2.7444C31.2146 4.59684 32.3233 6.72889 33.2209 9.01194ZM18.3692 2.75978C15.5647 3.46441 12.9349 4.74224 10.6463 6.5108C11.4684 7.27554 14.0128 8.80223 14.7902 8.99516C15.6234 6.73029 16.8327 4.62201 18.3692 2.75978Z" fill="#949494"/>
<path d="M32.6684 21.0168C32.6745 21.5582 32.5539 22.0941 32.3174 22.5805C32.0139 23.1747 31.5037 23.6374 30.8825 23.8813C30.4313 24.0602 29.9529 24.1598 29.4678 24.1774C28.9028 24.2221 28.3344 24.1605 27.7924 23.9965C26.6196 23.6205 25.917 22.8299 25.7382 21.5981C25.6494 21.0372 25.6853 20.464 25.8432 19.9186C26.081 19.0866 26.6996 18.4179 27.5105 18.1151C28.2057 17.8509 28.955 17.7587 29.6935 17.8475C30.1176 17.8759 30.5336 17.9769 30.9238 18.1449C31.8486 18.5263 32.4943 19.38 32.6094 20.3739C32.6406 20.5866 32.6494 20.8028 32.6684 21.0168ZM30.3649 21.0168C30.3459 20.7289 30.3364 20.4389 30.3046 20.1524C30.2808 19.8292 30.1935 19.5148 30.0471 19.2255C29.8852 18.9037 29.5505 18.7052 29.1907 18.7181C28.8242 18.6998 28.48 18.8969 28.3107 19.2228C28.1914 19.4498 28.1142 19.6957 28.0817 19.9498C27.9868 20.5758 27.9753 21.2113 28.0478 21.84C28.0702 22.1286 28.1393 22.4125 28.2524 22.6788C28.4706 23.1889 29.062 23.4261 29.5722 23.2079C29.7964 23.1117 29.978 22.9376 30.0837 22.7181C30.146 22.5839 30.1948 22.4444 30.228 22.3C30.3195 21.878 30.3649 21.4484 30.3649 21.0168Z" fill="#949494"/>
<path d="M23.8711 20.039C23.8312 19.9285 23.8007 19.8398 23.7681 19.7517C23.5473 19.1582 23.1028 18.856 22.489 18.7903C22.2553 18.7544 22.0161 18.7673 21.7878 18.8283C21.6381 18.8716 21.5033 18.9543 21.3969 19.0688C21.178 19.3106 21.2018 19.583 21.4795 19.7524C21.6415 19.8479 21.8163 19.9204 21.9978 19.9678C22.3799 20.0728 22.7709 20.1487 23.1543 20.2517C23.6001 20.3594 24.0256 20.5369 24.4158 20.7781C24.8352 21.039 25.1042 21.4854 25.1381 21.978C25.2092 22.478 25.069 22.9847 24.7505 23.377C24.5087 23.6609 24.1943 23.8736 23.8406 23.9922C23.3677 24.1514 22.8671 24.2151 22.3691 24.1792C21.7831 24.1473 21.2092 23.999 20.6808 23.7429C20.6577 23.732 20.632 23.7253 20.5927 23.7117L20.3678 24.0281H19.5737V21.8323C19.7106 21.8113 19.8501 21.8059 19.9884 21.8154C20.1225 21.812 20.2566 21.8147 20.4077 21.8147C20.4355 21.8872 20.4599 21.9549 20.4877 22.0213C20.7641 22.6799 21.2282 23.1209 21.9443 23.2585C22.1821 23.3133 22.4294 23.3079 22.6645 23.2429C22.7932 23.2049 22.9131 23.144 23.0195 23.062C23.2248 22.9156 23.2729 22.6304 23.1272 22.4251C23.0974 22.3831 23.0608 22.3465 23.0188 22.3167C22.8461 22.1894 22.6543 22.0891 22.4511 22.02C22.0574 21.8831 21.6516 21.7828 21.2546 21.6562C20.9775 21.5728 20.7052 21.4746 20.4389 21.3621C19.9328 21.1372 19.5622 20.7713 19.4497 20.2151C19.2702 19.3269 19.6435 18.5545 20.4579 18.125C20.8068 17.9468 21.1909 17.8472 21.5818 17.8316C22.3237 17.7768 23.0683 17.9116 23.7438 18.2232C23.7681 18.2348 23.7939 18.2429 23.8379 18.2598L24.0026 17.9848H24.8386V20.0342C24.6835 20.0356 24.5249 20.0383 24.3671 20.039C24.2045 20.0396 24.0432 20.039 23.8711 20.039Z" fill="#949494"/>
<path d="M18.8631 23.1667V23.9926H15.3313V23.1667C15.4404 23.1667 15.5467 23.1688 15.6518 23.1661C15.7256 23.1661 15.7995 23.16 15.8726 23.1478C15.9844 23.1369 16.0738 23.0489 16.0867 22.9371C16.103 22.851 16.1138 22.7643 16.1179 22.6776C16.1199 21.5597 16.1199 20.4411 16.1179 19.3233C16.1172 18.9276 16.023 18.8375 15.6274 18.8307C15.5339 18.8294 15.4397 18.8307 15.3313 18.8307V18.0089H18.8387C18.8848 18.2758 18.8889 18.5489 18.8503 18.8172C18.8015 18.8219 18.75 18.828 18.6978 18.8314C18.6456 18.8348 18.5901 18.8314 18.5359 18.8328C18.1755 18.8456 18.0901 18.9229 18.0901 19.2786C18.0867 20.4235 18.0867 21.5685 18.0901 22.7135C18.0914 23.0807 18.1775 23.16 18.5467 23.1667C18.647 23.1681 18.7466 23.1667 18.8631 23.1667Z" fill="#949494"/>
<path d="M15.3245 32.1915H10.5511C10.6058 31.7202 10.7711 31.2775 11.0472 30.8634C11.3258 30.4467 11.8467 29.9559 12.6097 29.3907C13.0758 29.0444 13.374 28.7814 13.5042 28.6017C13.6344 28.422 13.6995 28.2514 13.6995 28.09C13.6995 27.9155 13.6344 27.767 13.5042 27.6447C13.3766 27.5197 13.2152 27.4572 13.0198 27.4572C12.8167 27.4572 12.6501 27.521 12.5198 27.6486C12.3922 27.7762 12.3063 28.0014 12.262 28.3243L10.6683 28.1954C10.7308 27.7475 10.8454 27.3986 11.012 27.1486C11.1787 26.896 11.4131 26.7032 11.7152 26.5704C12.0198 26.435 12.4404 26.3673 12.9769 26.3673C13.5368 26.3673 13.9717 26.4311 14.2816 26.5587C14.5941 26.6863 14.8389 26.8829 15.0159 27.1486C15.1956 27.4116 15.2855 27.7072 15.2855 28.0353C15.2855 28.3842 15.1826 28.7176 14.9769 29.0353C14.7738 29.353 14.4027 29.7019 13.8636 30.0822C13.5433 30.3035 13.3284 30.4585 13.2191 30.547C13.1123 30.6355 12.986 30.7514 12.8402 30.8947H15.3245V32.1915ZM16.1916 26.465H20.8361V27.5392C20.4324 27.9038 20.0952 28.2983 19.8244 28.7228C19.4963 29.2384 19.2371 29.8126 19.047 30.4454C18.896 30.9376 18.7944 31.5197 18.7423 32.1915H17.1564C17.2814 31.2566 17.478 30.4728 17.7463 29.84C18.0145 29.2072 18.439 28.5301 19.0197 27.8087H16.1916V26.465ZM21.6602 29.3048C21.6602 28.2163 21.8555 27.4545 22.2461 27.0197C22.6393 26.5848 23.237 26.3673 24.0391 26.3673C24.4245 26.3673 24.7409 26.4155 24.9883 26.5118C25.2357 26.6056 25.4375 26.7293 25.5938 26.8829C25.75 27.034 25.8724 27.1941 25.9609 27.3634C26.0521 27.5301 26.125 27.7254 26.1797 27.9493C26.2865 28.3764 26.3398 28.8217 26.3398 29.2853C26.3398 30.3243 26.1641 31.0848 25.8125 31.5665C25.4609 32.0483 24.8555 32.2892 23.9961 32.2892C23.5143 32.2892 23.125 32.2124 22.8281 32.0587C22.5312 31.9051 22.2878 31.6798 22.0977 31.3829C21.9596 31.172 21.8516 30.8842 21.7734 30.5197C21.6979 30.1525 21.6602 29.7475 21.6602 29.3048ZM23.2383 29.3087C23.2383 30.0379 23.3021 30.5366 23.4297 30.8048C23.5599 31.0704 23.7474 31.2032 23.9922 31.2032C24.1536 31.2032 24.293 31.1473 24.4102 31.0353C24.5299 30.9207 24.6172 30.741 24.6719 30.4962C24.7292 30.2514 24.7578 29.8699 24.7578 29.3517C24.7578 28.5913 24.6927 28.0809 24.5625 27.8204C24.4349 27.5574 24.2422 27.4259 23.9844 27.4259C23.7214 27.4259 23.5312 27.56 23.4141 27.8282C23.2969 28.0939 23.2383 28.5874 23.2383 29.3087ZM27.1561 29.3048C27.1561 28.2163 27.3514 27.4545 27.742 27.0197C28.1353 26.5848 28.7329 26.3673 29.535 26.3673C29.9204 26.3673 30.2368 26.4155 30.4842 26.5118C30.7316 26.6056 30.9334 26.7293 31.0897 26.8829C31.2459 27.034 31.3683 27.1941 31.4569 27.3634C31.548 27.5301 31.6209 27.7254 31.6756 27.9493C31.7824 28.3764 31.8358 28.8217 31.8358 29.2853C31.8358 30.3243 31.66 31.0848 31.3084 31.5665C30.9569 32.0483 30.3514 32.2892 29.492 32.2892C29.0103 32.2892 28.6209 32.2124 28.3241 32.0587C28.0272 31.9051 27.7837 31.6798 27.5936 31.3829C27.4556 31.172 27.3475 30.8842 27.2694 30.5197C27.1939 30.1525 27.1561 29.7475 27.1561 29.3048ZM28.7342 29.3087C28.7342 30.0379 28.798 30.5366 28.9256 30.8048C29.0558 31.0704 29.2433 31.2032 29.4881 31.2032C29.6496 31.2032 29.7889 31.1473 29.9061 31.0353C30.0259 30.9207 30.1131 30.741 30.1678 30.4962C30.2251 30.2514 30.2537 29.8699 30.2537 29.3517C30.2537 28.5913 30.1886 28.0809 30.0584 27.8204C29.9308 27.5574 29.7381 27.4259 29.4803 27.4259C29.2173 27.4259 29.0272 27.56 28.91 27.8282C28.7928 28.0939 28.7342 28.5874 28.7342 29.3087ZM36.2575 26.3673V32.1915H34.6481V28.3751C34.3877 28.573 34.1351 28.7332 33.8903 28.8556C33.6481 28.978 33.3434 29.0952 32.9762 29.2072V27.9025C33.5179 27.728 33.9385 27.5184 34.238 27.2736C34.5374 27.0288 34.7718 26.7267 34.9411 26.3673H36.2575Z" fill="#949494"/>
</svg>
