<svg width="44" height="48" viewBox="0 0 44 48" fill="none" xmlns="http://www.w3.org/2000/svg">
<g clip-path="url(#clip0_716_1262)">
<g clip-path="url(#clip1_716_1262)">
<path d="M35.9364 9.27301C35.9364 7.43457 36.9358 5.83068 38.4202 4.9716C37.6894 4.54861 36.8415 4.30536 35.9364 4.30536C33.1929 4.30536 30.9688 6.52946 30.9688 9.27301C30.9688 12.0166 33.1929 14.2407 35.9364 14.2407C36.8415 14.2407 37.6894 13.9974 38.4202 13.5744C36.9358 12.7153 35.9364 11.1115 35.9364 9.27301Z" fill="#F7F7F7"/>
<path d="M5.1366 28.8124C7.87576 28.8124 10.1042 26.5839 10.1042 23.8447C10.1042 23.0787 9.92972 22.3528 9.61874 21.7043L10.3786 20.9444C11.0253 20.2977 11.0253 19.2493 10.3786 18.6027C9.73192 17.9561 8.6835 17.956 8.03688 18.6027L7.27699 19.3626C6.62846 19.0516 5.90261 18.8771 5.1366 18.8771C2.39743 18.8771 0.168945 21.1055 0.168945 23.8447C0.168945 26.5839 2.39743 28.8124 5.1366 28.8124ZM5.1366 22.1888C6.04965 22.1888 6.79248 22.9317 6.79248 23.8447C6.79248 24.7578 6.04965 25.5006 5.1366 25.5006C4.22354 25.5006 3.48071 24.7578 3.48071 23.8447C3.48071 22.9317 4.22354 22.1888 5.1366 22.1888Z" fill="#FFC727"/>
<path d="M14.7401 18.8771C15.5061 18.8771 16.232 18.7025 16.8805 18.3916L20.1932 21.7042C19.8823 22.3529 19.7078 23.0787 19.7078 23.8447C19.7078 26.5839 21.9363 28.8124 24.6754 28.8124C27.4146 28.8124 29.6431 26.5839 29.6431 23.8447C29.6431 21.1056 27.4146 18.8771 24.6754 18.8771C23.9094 18.8771 23.1835 19.0516 22.535 19.3626L19.2223 16.0499C19.5332 15.4013 19.7078 14.6754 19.7078 13.9094C19.7078 11.1703 17.4793 8.94177 14.7401 8.94177C12.0009 8.94177 9.77246 11.1703 9.77246 13.9094C9.77246 16.6486 12.0009 18.8771 14.7401 18.8771ZM26.3313 23.8447C26.3313 24.7578 25.5885 25.5006 24.6754 25.5006C23.7624 25.5006 23.0195 24.7578 23.0195 23.8447C23.0195 22.9317 23.7624 22.1888 24.6754 22.1888C25.5885 22.1888 26.3313 22.9317 26.3313 23.8447ZM14.7401 12.2535C15.6532 12.2535 16.396 12.9964 16.396 13.9094C16.396 14.8225 15.6532 15.5653 14.7401 15.5653C13.8271 15.5653 13.0842 14.8225 13.0842 13.9094C13.0842 12.9964 13.8271 12.2535 14.7401 12.2535Z" fill="#FFC727"/>
<path d="M35.9356 2.64941C32.2834 2.64941 29.312 5.62073 29.312 9.27295C29.312 10.7121 29.7749 12.0445 30.5574 13.132L28.9787 15.237C28.43 15.9687 28.5783 17.0066 29.3099 17.5553C30.0385 18.1016 31.077 17.9589 31.6281 17.2241L33.1023 15.2586C33.9618 15.6671 34.9223 15.8965 35.9356 15.8965C39.5878 15.8965 42.5591 12.9252 42.5591 9.27295C42.5591 5.62073 39.5878 2.64941 35.9356 2.64941ZM35.9356 12.5847C34.1095 12.5847 32.6238 11.0991 32.6238 9.27295C32.6238 7.44684 34.1095 5.96118 35.9356 5.96118C37.7617 5.96118 39.2473 7.44684 39.2473 9.27295C39.2473 11.0991 37.7617 12.5847 35.9356 12.5847Z" fill="#FFC727"/>
<path d="M13.085 27.1564V37.0917C13.085 38.0063 13.8263 38.7476 14.7408 38.7476C15.6554 38.7476 16.3967 38.0063 16.3967 37.0917V27.1564C16.3967 26.2419 15.6554 25.5005 14.7408 25.5005C13.8263 25.5005 13.085 26.2419 13.085 27.1564Z" fill="#FFC727"/>
<path d="M36.2678 37.0919V23.8448C36.2678 22.9302 35.5265 22.1889 34.6119 22.1889C33.6974 22.1889 32.9561 22.9302 32.9561 23.8448V37.0919C32.9561 38.0064 33.6974 38.7477 34.6119 38.7477C35.5265 38.7477 36.2678 38.0064 36.2678 37.0919Z" fill="#FFC727"/>
<path d="M1.82483 45.04H38.2543C39.1688 45.04 39.9102 44.2987 39.9102 43.3842C39.9102 42.4696 39.1688 41.7283 38.2543 41.7283H1.82483C0.910285 41.7283 0.168945 42.4696 0.168945 43.3842C0.168945 44.2987 0.910285 45.04 1.82483 45.04Z" fill="#FFC727"/>
<path d="M6.46118 37.0918V33.78C6.46118 32.8655 5.71984 32.1241 4.8053 32.1241C3.89075 32.1241 3.14941 32.8655 3.14941 33.78V37.0918C3.14941 38.0063 3.89075 38.7477 4.8053 38.7477C5.71984 38.7477 6.46118 38.0063 6.46118 37.0918Z" fill="#404040"/>
<path d="M24.6754 32.1241C23.7609 32.1241 23.0195 32.8655 23.0195 33.78V37.0918C23.0195 38.0063 23.7609 38.7477 24.6754 38.7477C25.59 38.7477 26.3313 38.0063 26.3313 37.0918V33.78C26.3313 32.8655 25.59 32.1241 24.6754 32.1241Z" fill="#404040"/>
</g>
</g>
<defs>
<clipPath id="clip0_716_1262">
<rect width="43" height="48" fill="white" transform="translate(0.168945)"/>
</clipPath>
<clipPath id="clip1_716_1262">
<rect width="42.3906" height="42.3906" fill="white" transform="translate(0.168945 2.64941)"/>
</clipPath>
</defs>
</svg>
