<svg width="17" height="25" viewBox="0 0 17 25" fill="none" xmlns="http://www.w3.org/2000/svg">
<path d="M10.375 24.5H6.625C6.10722 24.5 5.6875 24.0803 5.6875 23.5625C5.6875 23.0447 6.10722 22.625 6.625 22.625H10.375C10.8928 22.625 11.3125 23.0447 11.3125 23.5625C11.3125 24.0803 10.8928 24.5 10.375 24.5Z" fill="#404040"/>
<path d="M11.0379 10.1496C10.6718 9.78346 10.0782 9.78346 9.71209 10.1496L8.49999 11.3617L7.2879 10.1496C6.92176 9.78346 6.32818 9.78346 5.96209 10.1496C5.59599 10.5157 5.59595 11.1093 5.96209 11.4754L7.56249 13.0758V14.5625C7.56249 15.0803 7.98221 15.5 8.49999 15.5C9.01778 15.5 9.43749 15.0803 9.43749 14.5625V13.0758L11.0379 11.4754C11.404 11.1093 11.404 10.5157 11.0379 10.1496Z" fill="#404040"/>
<path d="M10.375 20.75H6.625C5.07419 20.75 3.8125 19.4883 3.8125 17.9375V16.4547C3.8125 16.1301 3.68294 15.8322 3.47434 15.6772C2.4407 14.9093 1.58402 13.9058 0.996812 12.7751C0.376891 11.5812 0.0625 10.2901 0.0625 8.9375C0.0625 4.28506 3.84756 0.5 8.5 0.5C13.1524 0.5 16.9375 4.28506 16.9375 8.9375C16.9375 10.2901 16.6231 11.5812 16.0031 12.7751C15.416 13.9058 14.5593 14.9093 13.5256 15.6772C13.317 15.8322 13.1875 16.1301 13.1875 16.4547V17.9375C13.1875 19.4883 11.9258 20.75 10.375 20.75ZM8.5 2.375C4.88144 2.375 1.9375 5.31894 1.9375 8.9375C1.9375 11.0106 2.90523 12.9186 4.59255 14.1721C5.27819 14.6815 5.6875 15.5348 5.6875 16.4547V17.9375C5.6875 18.4544 6.10806 18.875 6.625 18.875H10.375C10.8919 18.875 11.3125 18.4544 11.3125 17.9375V16.4547C11.3125 15.5348 11.7218 14.6815 12.4075 14.1721C14.0948 12.9186 15.0625 11.0106 15.0625 8.9375C15.0625 5.31894 12.1186 2.375 8.5 2.375Z" fill="#FFC727"/>
</svg>
