<svg width="19" height="20" viewBox="0 0 19 20" fill="none" xmlns="http://www.w3.org/2000/svg">
<path d="M6.71713 15.4V16.12C6.71713 16.8838 7.02056 17.6164 7.56066 18.1565C8.10077 18.6966 8.83331 19 9.59714 19C10.361 19 11.0935 18.6966 11.6336 18.1565C12.1737 17.6164 12.4771 16.8838 12.4771 16.12V15.4M3.13539 7.47996C3.1342 6.62605 3.30203 5.78034 3.62921 4.99159C3.95639 4.20284 4.43644 3.48665 5.0417 2.88429C5.64696 2.28194 6.36546 1.80534 7.15578 1.48196C7.94609 1.15858 8.7926 0.994823 9.6465 1.00012C13.2096 1.02661 16.0596 3.98825 16.0596 7.56131V8.19997C16.0596 11.4234 16.734 13.2939 17.328 14.3162C17.392 14.4255 17.426 14.5496 17.4267 14.6762C17.4274 14.8028 17.3946 14.9274 17.3318 15.0373C17.269 15.1472 17.1783 15.2386 17.0689 15.3023C16.9595 15.366 16.8352 15.3997 16.7086 15.4H2.48565C2.35903 15.3997 2.23475 15.366 2.12532 15.3023C2.0159 15.2386 1.92521 15.1471 1.8624 15.0372C1.79959 14.9273 1.76689 14.8027 1.76759 14.6761C1.76829 14.5495 1.80237 14.4253 1.86638 14.3161C2.46068 13.2937 3.13539 11.4232 3.13539 8.19997L3.13539 7.47996Z" stroke="#404040" stroke-width="2" stroke-linecap="round" stroke-linejoin="round"/>
</svg>
