<svg width="352" height="368" viewBox="0 0 352 368" fill="none" xmlns="http://www.w3.org/2000/svg">
<path d="M96.0525 308.27C93.8835 308.27 91.6723 308.184 89.4118 308.018C67.3205 306.424 41.5181 297.019 12.7156 280.062C12.6029 279.999 12.5606 279.841 12.624 279.715C12.6804 279.589 12.8142 279.549 12.9269 279.613C68.9614 312.594 113.693 316.792 138.89 291.44C143.89 286.406 148.601 278.35 153.587 269.813C169.439 242.693 189.164 208.931 236.917 233.178C287.451 258.829 314.831 255.484 328.895 248.169C343.296 240.674 346.711 227.718 346.746 227.591C346.782 227.457 346.915 227.378 347.028 227.418C347.148 227.449 347.225 227.591 347.19 227.733C347.155 227.86 343.69 241.021 329.106 248.619C320.134 253.298 308.867 254.939 295.613 253.511C278.973 251.712 259.156 245.029 236.727 233.643C189.333 209.586 169.721 243.135 153.967 270.097C148.967 278.658 144.242 286.745 139.2 291.819C128.341 302.747 113.848 308.262 96.0525 308.27Z" fill="#100F0D"/>
<path d="M220.586 255.61L225.473 258.514C225.853 258.671 226.036 259.153 225.874 259.571L209.868 301.934C209.72 302.329 209.325 302.518 208.973 302.368L191.72 292.789L199.579 270.657L207.797 270.475L213.551 258.569C214.917 255.76 217.917 254.497 220.586 255.61Z" fill="#010101"/>
<g filter="url(#filter0_d_1879_2051)">
<path d="M32.2856 357.001L27.3561 359.826C27.0321 360.078 26.5744 359.976 26.3561 359.581L4.57466 320.587C4.37044 320.224 4.46202 319.759 4.77891 319.514L21.6801 309.185L33.3419 329.093L28.7575 336.739L34.1589 348.85C35.4335 351.715 34.6306 355.186 32.2856 357.001Z" fill="#010101"/>
</g>
<path d="M33.201 329.338L28.8279 322L31.5603 332.076L33.201 329.338Z" fill="#100F0D"/>
<path d="M131.707 92.1134C132.144 82.2977 127.897 84.0179 123.545 84.0179C118.855 84.0179 115.778 87.5291 115.778 93.3285C115.778 95.7193 116.503 107.65 116.615 109.583H126.263L125.144 103.057C130.01 102.379 130.904 99.625 131.411 96.3347C131.566 95.2853 131.658 93.1707 131.707 92.1134Z" fill="#FACCBD"/>
<path d="M116.834 109.322H125.989L124.918 103.113C124.89 102.971 124.975 102.829 125.116 102.805C129.904 102.134 130.7 99.4594 131.186 96.2874C131.341 95.2696 131.432 93.1471 131.475 92.0977C131.629 88.6575 131.207 86.4323 130.186 85.2882C128.728 83.647 126.214 84.2703 123.545 84.2703C118.897 84.2703 116.01 87.7421 116.01 93.3285C116.01 95.5931 116.665 106.553 116.834 109.322ZM126.263 109.835H116.616C116.496 109.835 116.397 109.733 116.39 109.598C116.249 107.294 115.552 95.6799 115.552 93.3285C115.552 87.5133 118.686 83.7574 123.545 83.7574C126.179 83.7574 128.897 83.1026 130.51 84.9253C131.644 86.1956 132.094 88.4838 131.932 92.1212C131.89 93.1864 131.799 95.3169 131.637 96.3742C131.144 99.5698 130.299 102.505 125.411 103.278L126.489 109.535C126.517 109.693 126.411 109.835 126.263 109.835Z" fill="#100F0D"/>
<path d="M131.087 87.963C131.087 87.963 123.475 87.3554 123.89 90.9219C124.306 94.4962 126.2 96.8317 121.918 99.3014C111.503 105.298 106.165 85.8484 113.637 85.6196C113.637 85.6196 111.383 79.2283 117.158 78.0527C122.925 76.8691 123.601 79.9464 125.446 81.1299C127.263 82.2898 129.01 82.1951 131.334 79.0547C133.665 75.9064 139.693 83.1814 131.087 87.963Z" fill="#100F0D"/>
<path d="M117.193 78.3052C113.707 79.0153 112.686 82.0374 113.848 85.5249C113.904 85.6827 113.806 85.8642 113.644 85.8721C111.799 85.9273 111.01 87.1977 110.672 88.2471C109.052 93.2733 114.003 103.57 121.813 99.0728C124.989 97.2422 124.601 95.5378 124.073 93.1864C123.918 92.4842 123.756 91.7583 123.665 90.9614C123.587 90.2986 123.749 89.7147 124.158 89.2412C125.707 87.3949 130.411 87.6632 131.045 87.7026C134.975 85.5012 135.411 83.0158 135.327 81.7297C135.158 79.3073 132.777 77.5083 131.51 79.2126C129.369 82.1084 127.524 82.7475 125.334 81.3509C123.432 80.1357 122.827 77.1532 117.193 78.3052ZM110.242 88.0736C110.756 86.4797 111.841 85.5408 113.32 85.383C112.285 81.6903 113.412 78.5577 117.116 77.8002C122.982 76.6009 123.792 79.7728 125.559 80.909C127.01 81.8322 128.686 82.2268 131.158 78.8891C132.672 76.8455 135.58 78.7155 135.784 81.6902C135.876 83.1184 135.411 85.8485 131.193 88.1919L131.073 88.2155C131.024 88.2155 125.968 87.8368 124.489 89.5884C124.179 89.9593 124.059 90.3854 124.115 90.8904C124.207 91.6636 124.369 92.3738 124.524 93.0602C125.059 95.451 125.517 97.5104 122.017 99.5303C113.834 104.241 108.482 93.5258 110.242 88.0736Z" fill="#100F0D"/>
<path d="M126.827 93.7779C126.827 95.3955 125.651 96.7133 124.2 96.7133C122.749 96.7133 121.573 95.3955 121.573 93.7779C121.573 92.1525 122.749 90.8349 124.2 90.8349C125.651 90.8349 126.827 92.1525 126.827 93.7779Z" fill="#FACCBD"/>
<path d="M124.2 91.0876C122.876 91.0876 121.806 92.2948 121.806 93.7782C121.806 95.2537 122.876 96.4609 124.2 96.4609C125.524 96.4609 126.594 95.2537 126.594 93.7782C126.594 92.2948 125.524 91.0876 124.2 91.0876ZM124.2 96.9738C122.63 96.9738 121.348 95.5378 121.348 93.7782C121.348 92.0108 122.63 90.5748 124.2 90.5748C125.777 90.5748 127.052 92.0108 127.052 93.7782C127.052 95.5378 125.777 96.9738 124.2 96.9738Z" fill="#100F0D"/>
<path d="M129.763 90.8346C129.763 91.1581 129.524 91.4264 129.235 91.4264C128.946 91.4264 128.707 91.1581 128.707 90.8346C128.707 90.5032 128.946 90.2428 129.235 90.2428C129.524 90.2428 129.763 90.5032 129.763 90.8346Z" fill="#100F0D"/>
<path d="M127.714 89.9117C127.714 89.9117 128.672 88.0891 130.355 89.6198L127.714 89.9117Z" fill="white"/>
<path d="M127.545 90.0932C127.482 90.0142 127.46 89.888 127.517 89.7854C127.531 89.7459 127.968 88.9412 128.777 88.7834C129.327 88.665 129.911 88.8859 130.496 89.4225C130.594 89.5093 130.608 89.6671 130.531 89.7775C130.453 89.888 130.305 89.9038 130.207 89.817C129.728 89.383 129.277 89.2016 128.855 89.2884C128.249 89.4068 127.911 90.038 127.904 90.0458C127.834 90.1879 127.651 90.2115 127.545 90.0932Z" fill="#100F0D"/>
<path d="M125.144 103.057L121.756 102.607L125.63 105.89L125.144 103.057Z" fill="#100F0D"/>
<path d="M122.566 102.97L125.292 105.282L124.947 103.294L122.566 102.97ZM125.489 106.095L121.623 102.812C121.433 102.655 121.559 102.307 121.785 102.355L125.172 102.804C125.27 102.82 125.348 102.899 125.369 103.01L125.855 105.842C125.897 106.079 125.658 106.237 125.489 106.095Z" fill="#100F0D"/>
<path d="M170.861 112.028C170.861 112.028 174.854 105.251 176.657 105.243C177.889 105.235 177.206 107.2 176.164 109.235C177.361 107.46 178.601 105.937 179.347 105.929C180.509 105.929 179.974 107.665 179.037 109.567C179.516 109.07 179.946 108.77 180.284 108.77C181.861 108.762 180.298 111.981 178.875 114.435C178.981 114.396 179.079 114.364 179.171 114.364C181.72 114.356 176.713 120.755 176.713 120.755C176.713 120.755 170.882 124.653 168.495 125.931L166.115 117.662L170.861 112.028Z" fill="white"/>
<path d="M166.376 117.725L168.629 125.576C171.009 124.251 176.115 120.858 176.566 120.558C177.946 118.783 179.981 115.69 179.636 114.83C179.615 114.774 179.551 114.625 179.178 114.625C179.129 114.617 179.044 114.64 178.953 114.68C178.861 114.711 178.756 114.68 178.699 114.593C178.636 114.506 178.629 114.388 178.685 114.293C179.418 113.031 181.657 108.999 180.284 109.022C180.108 109.022 179.777 109.156 179.192 109.756C179.108 109.835 178.988 109.843 178.897 109.764C178.812 109.685 178.784 109.551 178.84 109.441C179.326 108.446 180.368 106.142 179.354 106.19C179.03 106.19 178.213 106.608 176.347 109.385C176.277 109.496 176.143 109.52 176.044 109.449C175.939 109.37 175.911 109.22 175.967 109.109C176.502 108.06 177.728 105.495 176.664 105.495H176.657C175.277 105.511 172.143 110.316 171.052 112.171L171.03 112.202L166.376 117.725ZM168.495 126.192L168.404 126.168L168.277 126.01L165.897 117.741C165.869 117.647 165.89 117.552 165.946 117.481L170.678 111.871C171.143 111.082 174.798 104.998 176.657 104.982H176.664C177.721 104.982 177.685 106.119 177.27 107.31C178.157 106.213 178.84 105.677 179.347 105.677H179.354C180.678 105.677 180.256 107.373 179.692 108.707C179.904 108.573 180.101 108.51 180.277 108.51H180.284C182.305 108.51 180.404 112.202 179.326 114.12C179.77 114.159 179.967 114.404 180.051 114.617C180.629 116.037 177.516 120.116 176.889 120.921L176.833 120.976C176.777 121.016 170.96 124.89 168.594 126.168L168.495 126.192Z" fill="#100F0D"/>
<path d="M254.156 66.3194L231.558 170.891C230.684 174.923 227.466 177.763 223.762 177.763H219.354C223.058 177.763 226.276 174.923 227.149 170.891L249.74 66.3194C250.452 63.0134 248.212 59.8258 245.177 59.8258H249.593C252.628 59.8258 254.867 63.0134 254.156 66.3194Z" fill="white"/>
<path d="M222.079 177.503H223.762C227.374 177.503 230.487 174.757 231.332 170.836L253.93 66.2646C254.614 63.1084 252.473 60.0863 249.593 60.0863H247.262C249.318 61.1594 250.529 63.7554 249.959 66.3829L227.368 170.954C226.691 174.079 224.663 176.493 222.079 177.503ZM223.762 178.016H219.353C219.227 178.016 219.128 177.898 219.128 177.763C219.128 177.621 219.227 177.503 219.353 177.503C222.966 177.503 226.079 174.757 226.924 170.836L249.515 66.2646C250.198 63.1084 248.057 60.0863 245.177 60.0863C245.05 60.0863 244.952 59.9681 244.952 59.826C244.952 59.684 245.05 59.5735 245.177 59.5735H249.593C252.776 59.5735 255.128 62.9111 254.374 66.3829L231.776 170.954C230.882 175.112 227.586 178.016 223.762 178.016Z" fill="#100F0D"/>
<path d="M249.741 66.3275L227.142 170.891C226.276 174.923 223.058 177.763 219.354 177.763H168.728C163.538 177.763 159.721 172.319 160.939 166.669L182.544 66.6982C183.411 62.6663 186.629 59.8336 190.333 59.8336H245.184C248.22 59.8336 250.452 63.0135 249.741 66.3275Z" fill="#CAEEEC"/>
<path d="M190.333 60.0863C186.727 60.0863 183.615 62.8323 182.763 66.7617L161.164 166.725C159.974 172.217 163.685 177.503 168.728 177.503H219.354C222.959 177.503 226.072 174.765 226.924 170.836L249.515 66.2646C250.198 63.1163 248.072 60.0863 245.184 60.0863H190.333ZM219.354 178.016H168.728C163.397 178.016 159.46 172.43 160.721 166.606L182.319 66.6353C183.22 62.4771 186.516 59.5735 190.333 59.5735H245.184C248.368 59.5735 250.712 62.9111 249.959 66.3829L227.368 170.954C226.466 175.112 223.178 178.016 219.354 178.016Z" fill="#100F0D"/>
<path d="M203.375 152.27C202.107 157.714 196.861 162.133 191.657 162.133C186.46 162.133 183.277 157.714 184.544 152.27C185.819 146.817 191.072 142.407 196.27 142.407C201.474 142.407 204.65 146.817 203.375 152.27Z" fill="#70CA64"/>
<path d="M194.319 155.528C194.248 155.528 194.178 155.497 194.129 155.426L189.748 148.608C189.671 148.498 189.699 148.332 189.798 148.253C189.903 148.167 190.044 148.19 190.122 148.309L194.368 154.921L207.305 144.711C207.41 144.624 207.551 144.655 207.628 144.766C207.699 144.884 207.671 145.042 207.572 145.129L194.446 155.489L194.319 155.528Z" fill="#100F0D"/>
<path d="M246.473 59.8257C245.487 48.6135 242.79 38.3402 236.311 39.8552C228.487 41.6858 231.938 67.5424 231.938 67.5424H196.452C196.452 67.5424 188.185 2.87299 233.163 1.19234C268.796 -0.149025 276.803 47.9112 287.62 81.0981C294.641 60.8672 287.691 48.9843 291.606 37.6538C298.134 18.7011 333.775 26.0944 351.302 31.018" fill="white"/>
<path d="M287.402 81.1849C276.592 48.0059 268.578 0.119232 233.17 1.44482C221.931 1.86301 213.065 6.31321 206.819 14.6533C193.164 32.9117 196.319 64.339 196.65 67.2822H231.677C231.297 64.2601 228.684 41.378 236.262 39.6027C237.931 39.216 239.431 39.5633 240.741 40.6443C243.804 43.1692 245.804 49.6155 246.698 59.802C246.712 59.944 246.621 60.0703 246.494 60.086C246.36 60.0939 246.255 59.9915 246.241 59.8573C245.374 49.9549 243.381 43.4532 240.466 41.0545C239.269 40.0682 237.889 39.7526 236.36 40.1077C228.832 41.8672 232.128 67.2426 232.163 67.503C232.177 67.574 232.156 67.653 232.114 67.7083C232.072 67.7635 232.008 67.795 231.938 67.795H196.453C196.34 67.795 196.241 67.7003 196.227 67.574C196.185 67.2348 192.072 33.5745 206.466 14.3299C212.797 5.86349 221.776 1.35802 233.156 0.931946C268.304 -0.409424 276.332 45.3942 287.62 80.3643C291.388 69.1521 290.846 60.6464 290.374 53.1189C290.015 47.3984 289.698 42.4591 291.395 37.567C297.853 18.8116 331.739 25.2579 351.359 30.7733C351.486 30.8049 351.556 30.9469 351.528 31.081C351.493 31.2231 351.373 31.302 351.246 31.2704C335.57 26.8597 298.395 18.6774 291.817 37.7484C290.163 42.5379 290.472 47.4221 290.832 53.0795C291.317 60.8042 291.867 69.5545 287.832 81.1928C287.754 81.4137 287.479 81.4138 287.402 81.1849Z" fill="#100F0D"/>
<path d="M287.621 81.0981C294.832 103.231 303.289 118.743 322.007 108.604C317.191 116.329 309.191 122.515 296.085 125.3C265.388 131.802 252.198 111.089 248.332 94.3934" fill="white"/>
<path d="M262.008 118.751C253.057 111.168 249.459 100.28 248.107 94.4568C248.079 94.3226 248.149 94.1806 248.269 94.149C248.395 94.1095 248.522 94.1963 248.55 94.3304C250.663 103.452 260.346 132.607 296.043 125.048C307.479 122.617 315.972 117.307 321.303 109.259C315.219 112.368 310.021 112.865 305.43 110.782C296.782 106.852 291.656 94.2357 287.402 81.185C287.36 81.0509 287.423 80.9089 287.543 80.8616C287.663 80.8142 287.789 80.8774 287.832 81.0115C292.05 93.9517 297.12 106.45 305.606 110.308C310.268 112.423 315.599 111.792 321.902 108.375C322.113 108.257 322.324 108.533 322.19 108.754C316.824 117.362 308.057 123.02 296.127 125.553C283.987 128.125 271.825 127.068 262.008 118.751Z" fill="#100F0D"/>
<path d="M322.007 108.864C321.824 108.864 321.711 108.628 321.817 108.462C330.183 95.0482 328.852 77.1606 327.888 64.102C327.106 53.5605 327.141 42.1352 334.218 34.9944C338.303 30.8598 344.07 29.4396 351.345 30.7652C351.465 30.7888 351.549 30.923 351.528 31.0651C351.514 31.1992 351.394 31.2939 351.267 31.2702C344.141 29.9683 338.5 31.3491 334.521 35.3732C327.564 42.4035 327.578 53.7893 328.345 64.0626C329.317 77.2 330.655 95.1901 322.19 108.754C322.148 108.825 322.078 108.864 322.007 108.864Z" fill="#100F0D"/>
<path d="M236.121 39.9654C236.051 39.8549 236.079 39.6892 236.184 39.6103C241.896 35.2627 246.389 39.2395 246.431 39.279C246.529 39.3658 246.543 39.5314 246.466 39.6419C246.389 39.7524 246.241 39.7682 246.142 39.6735C245.973 39.5236 241.868 35.9098 236.445 40.0364C236.339 40.1153 236.198 40.0837 236.121 39.9654Z" fill="#100F0D"/>
<path d="M235.403 67.7949H192.439C192.312 67.7949 192.206 67.6843 192.206 67.5423C192.206 67.4002 192.312 67.282 192.439 67.282H235.403C235.529 67.282 235.635 67.4002 235.635 67.5423C235.635 67.6843 235.529 67.7949 235.403 67.7949Z" fill="#100F0D"/>
<path d="M228.241 98.8913C228.86 111.445 219.361 124.085 207.009 127.123C194.664 130.161 184.15 122.452 183.523 109.898C182.896 97.3369 192.403 84.6965 204.755 81.6587C217.1 78.6209 227.614 86.3377 228.241 98.8913Z" fill="white"/>
<path d="M204.797 81.9111C192.579 84.9173 183.136 97.4709 183.748 109.882C184.382 122.523 195.002 129.813 206.959 126.87C219.184 123.864 228.628 111.318 228.008 98.9068C227.381 86.227 216.72 78.9758 204.797 81.9111ZM183.297 109.914C182.664 97.2577 192.269 84.4675 204.699 81.4061C217.086 78.3604 227.832 86.0693 228.466 98.8754C229.093 111.532 219.494 124.314 207.058 127.375C194.818 130.389 183.938 122.862 183.297 109.914Z" fill="#FAB95F"/>
<path d="M222.825 100.225C223.297 109.74 216.1 119.319 206.741 121.623C197.375 123.927 189.41 118.08 188.931 108.565C188.46 99.0488 195.664 89.4699 205.023 87.1581C214.382 84.862 222.353 90.7087 222.825 100.225Z" fill="#FAB95F"/>
<path d="M207.848 101.179L207.565 102.49L208.956 102.962L208.612 104.55L207.138 104.049C206.755 105.092 206.22 105.763 205.534 106.061C204.858 106.362 203.941 106.316 202.784 105.923L202.586 106.837C202.469 107.378 202.464 107.833 202.571 108.203C202.688 108.576 202.962 108.836 203.394 108.982C203.807 109.123 204.136 109.08 204.382 108.855C204.631 108.619 204.816 108.218 204.938 107.655L206.729 108.263C206.459 109.418 206.004 110.221 205.365 110.671C204.728 111.109 203.941 111.169 203.004 110.851C202.03 110.52 201.357 109.939 200.985 109.109C200.613 108.279 200.562 107.237 200.834 105.983L201.331 103.688C202.313 104.022 203.045 104.24 203.526 104.341C204.009 104.431 204.388 104.412 204.662 104.283C204.937 104.154 205.161 103.871 205.334 103.436L201.215 102.037L201.558 100.45L205.746 101.872L206.03 100.561L201.842 99.1387L202.208 97.4478L209.606 99.9602L209.24 101.651L207.848 101.179Z" fill="white"/>
<path d="M176.129 157.966C176.129 157.966 177.065 151.591 178.706 151.859C180.354 152.127 179.016 157.958 179.016 157.958" fill="#FACCBD"/>
<path d="M176.086 158.219C175.967 158.195 175.882 158.061 175.903 157.919C176.002 157.248 176.939 151.307 178.741 151.607C179.016 151.646 179.241 151.812 179.41 152.096C180.256 153.524 179.284 157.84 179.241 158.022C179.206 158.156 179.086 158.242 178.96 158.203C178.84 158.171 178.762 158.03 178.798 157.895C179.065 156.704 179.636 153.406 179.03 152.38C178.932 152.222 178.819 152.135 178.671 152.112L178.608 152.104C177.601 152.104 176.692 155.686 176.354 158.006C176.333 158.148 176.213 158.243 176.086 158.219Z" fill="#100F0D"/>
<path d="M176.129 158.203C176.129 158.203 179.333 155.236 180.368 154.282C182.389 152.419 187.185 147.969 188.086 149.09C189.199 150.478 182.734 156.609 182.734 156.609C182.734 156.609 185.058 155.812 184.594 158.274C185.551 157.256 186.833 159.3 185.551 160.531C185.551 160.531 187.586 160.925 185.593 163.245C183.981 165.123 182.333 166.03 180.882 166.535C179.706 166.946 177.537 168.161 176.347 171.064L176.129 158.203Z" fill="#FACCBD"/>
<path d="M176.361 158.321L176.558 170.07C177.91 167.545 179.938 166.598 180.812 166.291C182.586 165.675 184.093 164.618 185.431 163.063C186.227 162.14 186.298 161.612 186.213 161.335C186.093 160.901 185.523 160.783 185.516 160.783C185.326 160.744 185.262 160.467 185.403 160.333C185.903 159.852 185.889 159.331 185.84 159.055C185.769 158.684 185.558 158.369 185.298 158.282C185.107 158.219 184.924 158.274 184.748 158.463C184.586 158.637 184.326 158.471 184.368 158.227C184.481 157.627 184.424 157.209 184.206 156.98C183.84 156.609 183.072 156.759 182.805 156.854C182.699 156.885 182.586 156.838 182.537 156.727C182.481 156.625 182.502 156.491 182.586 156.412C184.058 155.015 187.889 151.07 187.981 149.555C187.988 149.421 187.966 149.326 187.91 149.263C187.417 148.648 184.96 150.376 180.6 154.4L176.361 158.321ZM176.122 171.072L175.896 158.211C175.896 158.132 175.924 158.053 175.981 158.006L180.312 154.005C184.459 150.178 187.396 147.851 188.255 148.916C188.396 149.09 188.459 149.318 188.438 149.587C188.34 151.259 184.924 154.802 183.474 156.23C183.854 156.23 184.227 156.309 184.509 156.601C184.776 156.87 184.903 157.272 184.882 157.793C185.509 157.564 186.143 158.148 186.29 158.952C186.382 159.473 186.269 159.986 185.974 160.412C186.227 160.538 186.53 160.767 186.65 161.178C186.826 161.777 186.523 162.535 185.762 163.419C184.368 165.036 182.798 166.133 180.953 166.78C180.037 167.103 177.791 168.168 176.558 171.175C176.46 171.419 176.129 171.348 176.122 171.072Z" fill="#100F0D"/>
<path d="M182.735 156.609C182.735 156.609 182.164 157.059 181.277 158.03L182.735 156.609Z" fill="white"/>
<path d="M181.115 158.203C181.023 158.108 181.023 157.943 181.115 157.84C182.009 156.87 182.579 156.42 182.6 156.396C182.706 156.317 182.847 156.341 182.924 156.459C182.995 156.578 182.974 156.736 182.868 156.814C182.861 156.822 182.298 157.272 181.438 158.211C181.347 158.306 181.199 158.306 181.115 158.203Z" fill="#100F0D"/>
<path d="M184.742 158.203C184.742 158.203 184.164 158.653 183.277 159.623L184.742 158.203Z" fill="white"/>
<path d="M183.115 159.805C183.023 159.702 183.03 159.537 183.115 159.442C184.009 158.464 184.579 158.014 184.608 157.998C184.713 157.911 184.854 157.943 184.924 158.053C184.995 158.172 184.974 158.329 184.868 158.416C184.861 158.416 184.298 158.866 183.439 159.805C183.354 159.9 183.206 159.907 183.115 159.805Z" fill="#100F0D"/>
<path d="M185.678 160.428C185.678 160.428 185.108 160.878 184.22 161.848L185.678 160.428Z" fill="white"/>
<path d="M184.058 162.03C183.967 161.927 183.974 161.762 184.058 161.667C184.953 160.689 185.523 160.239 185.551 160.215C185.65 160.136 185.798 160.168 185.868 160.278C185.939 160.397 185.918 160.554 185.812 160.641C185.805 160.641 185.242 161.091 184.382 162.03C184.291 162.125 184.15 162.125 184.058 162.03Z" fill="#100F0D"/>
<g filter="url(#filter1_d_1879_2051)">
<path d="M172.622 115.358L171.009 108.241C157.27 114.136 143.939 118.396 133.411 115.745C132.953 115.627 132.496 115.508 132.045 115.358C127.615 113.954 123.721 111.224 120.559 106.758L119.96 137.42C122.165 138.738 124.432 139.85 126.756 140.765C135.017 144.001 143.953 144.679 153.143 142.47C158.136 141.271 163.199 139.219 168.27 136.268L172.622 115.358Z" fill="#F8A330"/>
</g>
<path d="M153.143 142.47C143.953 144.679 135.017 144.001 126.756 140.765L132.045 115.358C132.496 115.508 132.953 115.627 133.411 115.745C137.34 119.454 149.664 131.692 153.143 142.47Z" fill="#FF9C16"/>
<path d="M59.3137 202.279C59.3137 202.279 63.0531 210.871 88.4965 210.5C114.665 210.114 94.3273 187.784 94.3273 187.784C82.8345 185.803 71.1586 190.711 59.3137 202.279Z" fill="#100F0D"/>
<g filter="url(#filter2_d_1879_2051)">
<path d="M112.813 200.432C111.292 216.403 109.517 230.045 107.052 242.062C105.883 247.798 104.545 253.156 103.01 258.214C93.3906 289.894 75.7077 310.085 38.0533 337.26C31.4477 326.686 25.2225 315.79 18.8494 305.035C82.0387 256.525 41.659 241.194 73.5247 182.671C87.264 198.349 101.172 182.695 112.813 200.432Z" fill="#2F2F2F"/>
</g>
<path d="M19.1662 305.106C20.962 308.128 22.7436 311.174 24.5253 314.212C28.9196 321.708 33.4618 329.448 38.1166 336.912C77.1513 308.712 93.4821 288.813 102.792 258.135C104.32 253.109 105.637 247.83 106.827 242.007C109.102 230.913 110.933 217.72 112.58 200.511C106.644 191.516 100.151 191.272 93.285 191.011C86.8555 190.759 80.2077 190.506 73.5669 183.082C60.7784 206.682 59.7783 223.212 58.898 237.801C57.5882 259.326 56.5601 276.338 19.1662 305.106ZM37.8702 337.409C33.159 329.874 28.5745 322.055 24.145 314.496C22.3211 311.387 20.4971 308.27 18.6591 305.177C18.5887 305.059 18.6169 304.901 18.7225 304.822C56.1164 276.117 57.1375 259.192 58.4403 237.77C59.3276 223.062 60.3347 206.39 73.3275 182.537C73.3627 182.466 73.4261 182.427 73.4965 182.419C73.5669 182.403 73.6373 182.435 73.6866 182.49C80.264 189.993 86.8906 190.246 93.299 190.498C100.306 190.767 106.919 191.019 112.996 200.283L113.038 200.464C111.39 217.744 109.559 230.984 107.278 242.125C106.081 247.964 104.757 253.259 103.228 258.301C98.3834 274.263 91.3836 287.384 81.2147 299.599C71.3768 311.418 58.1023 323.096 38.1801 337.472C38.0815 337.551 37.9406 337.52 37.8702 337.409Z" fill="#100F0D"/>
<path d="M37.9546 310.527C37.8912 310.401 37.9335 310.243 38.0392 310.172C62.1515 295.314 74.8556 269.789 81.271 250.994C88.2216 230.613 89.4821 213.546 89.4962 213.373C89.5032 213.231 89.6159 213.12 89.7427 213.136C89.8624 213.152 89.961 213.27 89.9469 213.412C89.9399 213.586 88.6723 230.732 81.6935 251.176C75.257 270.049 62.4965 295.693 38.2644 310.622C38.1518 310.693 38.0109 310.645 37.9546 310.527Z" fill="#100F0D"/>
<path d="M107.052 242.062C105.883 247.798 104.545 253.155 103.01 258.213L80.2146 219.227L107.052 242.062Z" fill="#292929"/>
<g filter="url(#filter3_d_1879_2051)">
<path d="M127.355 202.681C139.404 226.55 162.77 243.885 202.523 261.977L189.791 298.076C189.791 298.076 86.989 256.407 70.9751 199.178C91.3058 191.082 110.552 189.481 127.355 202.681Z" fill="#424242"/>
</g>
<path d="M71.2642 199.336C79.6162 228.72 111.327 253.898 136.496 269.86C162.559 286.39 187.143 296.711 189.657 297.753L202.227 262.119C161.179 243.411 138.728 225.682 127.179 202.855C112.341 191.224 94.5667 190.112 71.2642 199.336ZM189.713 298.321C189.453 298.218 163.679 287.692 136.278 270.31C110.968 254.261 79.0529 228.901 70.7572 199.257C70.722 199.123 70.7854 198.989 70.9051 198.941C94.4823 189.544 112.461 190.672 127.489 202.468L127.552 202.555C139.052 225.335 161.503 243.033 202.608 261.733C202.727 261.788 202.784 261.938 202.734 262.072L190.002 298.171C189.953 298.305 189.819 298.368 189.713 298.321Z" fill="#100F0D"/>
<path d="M184.953 276.409L184.882 276.393C148.038 263.618 126.2 242.788 114.369 227.559C101.545 211.061 97.3835 197.387 97.3412 197.245C97.306 197.11 97.3694 196.968 97.4891 196.921C97.6018 196.874 97.7355 196.953 97.7778 197.087C97.82 197.221 101.961 210.816 114.735 227.244C126.524 242.409 148.291 263.169 185.016 275.904C185.143 275.951 185.206 276.093 185.171 276.227C185.143 276.338 185.051 276.409 184.953 276.409Z" fill="#100F0D"/>
<g filter="url(#filter4_d_1879_2051)">
<path d="M138.545 155.205C136.432 179.697 128.172 204.007 128.172 204.007C125.066 202.106 121.581 200.677 117.855 199.628C93.5316 192.787 59.3137 202.263 59.3137 202.263C70.5037 122.263 106.109 105.756 112.186 105.914C115.75 106.009 119.052 106.174 121.214 106.948C137.665 112.897 140.383 134.114 138.545 155.205Z" fill="#F8A330"/>
</g>
<path d="M113.848 106.024C113.848 106.024 113.799 102.725 114.566 102.686C117.432 102.544 124.58 105.645 126.439 105.755C127.622 105.826 128.256 110.979 128.256 110.979L113.848 106.024Z" fill="#FF9C16"/>
<path d="M129.123 96.7366C129.123 96.7366 129.77 97.8729 131.27 97.147L129.123 96.7366Z" fill="white"/>
<path d="M128.932 96.879C128.862 96.7606 128.897 96.6028 129.003 96.5239C129.108 96.445 129.249 96.4844 129.312 96.6028C129.341 96.6422 129.89 97.5339 131.179 96.9106C131.291 96.8553 131.432 96.9105 131.481 97.0446C131.531 97.1709 131.481 97.3209 131.362 97.384C130.214 97.9363 129.298 97.5181 128.932 96.879Z" fill="#100F0D"/>
<path d="M131.672 90.8351C131.672 90.8351 134.242 95.017 132.946 95.5299C131.819 95.9717 130.355 95.3799 130.355 95.3799" fill="#FACCBD"/>
<path d="M130.277 95.6246C130.158 95.5772 130.094 95.4274 130.136 95.2932C130.179 95.1591 130.313 95.0881 130.432 95.1354C130.446 95.1433 131.834 95.6957 132.869 95.2854C132.967 95.2538 133.024 95.1827 133.052 95.0722C133.277 94.3069 132.207 92.1606 131.482 90.9771C131.411 90.8587 131.439 90.7009 131.545 90.622C131.643 90.5431 131.791 90.5747 131.862 90.6852C132.679 92.0187 134.39 95.2301 133.024 95.7745C132.193 96.098 131.045 95.9402 130.277 95.6246Z" fill="#100F0D"/>
<path d="M166.798 129.008C166.714 129.008 166.629 128.953 166.594 128.859L159.918 112.628C159.868 112.494 159.918 112.344 160.03 112.281C160.15 112.226 160.284 112.281 160.333 112.407L167.009 128.646C167.059 128.78 167.009 128.93 166.897 128.985L166.798 129.008Z" fill="#100F0D"/>
<path d="M167.157 113.52C166.256 113.52 165.523 114.349 165.523 115.366C165.523 116.376 166.256 117.197 167.157 117.197C168.066 117.197 168.798 116.376 168.798 115.366C168.798 114.349 168.066 113.52 167.157 113.52ZM167.157 117.71C166.002 117.71 165.066 116.66 165.066 115.366C165.066 114.065 166.002 113.007 167.157 113.007C168.312 113.007 169.256 114.065 169.256 115.366C169.256 116.66 168.312 117.71 167.157 117.71Z" fill="#100F0D"/>
<g filter="url(#filter5_d_1879_2051)">
<path d="M101.56 134.256C112.066 172.563 141.651 191.216 176.53 175.081L176.185 151.386C149.545 156.317 129.792 151.417 125.862 119.887" fill="#F8A330"/>
</g>
<path d="M151.65 181.148C141.404 181.061 131.608 177.676 123.109 170.694C118.749 167.119 114.82 162.669 111.44 157.469C111.369 157.359 111.39 157.193 111.489 157.114C111.595 157.027 111.735 157.059 111.813 157.169C115.165 162.33 119.052 166.74 123.376 170.283C131.306 176.793 140.862 180.541 151.65 180.635C151.777 180.635 151.876 180.754 151.876 180.896C151.876 181.038 151.777 181.148 151.65 181.148Z" fill="#100F0D"/>
<path d="M142.376 179.87C135.362 178.347 128.918 175.152 123.242 170.488C123.334 170.315 123.433 170.133 123.531 169.96C126.623 164.468 133.094 162.835 137.996 166.299C142.137 169.234 143.827 174.883 142.376 179.87Z" fill="#FF9C16"/>
<path d="M168.073 178.315L165.608 159.181C165.594 159.039 165.678 158.905 165.805 158.889C165.925 158.874 166.045 158.968 166.066 159.102L168.523 178.244C168.545 178.386 168.453 178.513 168.326 178.536C168.192 178.552 168.087 178.45 168.073 178.315Z" fill="#100F0D"/>
<path d="M169.573 159.892C169.671 160.373 169.932 160.783 170.298 161.044C171.058 161.58 172.072 161.328 172.558 160.468C173.044 159.608 172.812 158.471 172.051 157.935C170.826 157.067 169.256 158.298 169.573 159.892ZM170.051 161.478C169.58 161.138 169.249 160.618 169.129 160.01C168.72 157.982 170.713 156.381 172.298 157.501C173.277 158.195 173.565 159.639 172.946 160.744C172.319 161.849 171.023 162.164 170.051 161.478Z" fill="#100F0D"/>
<path d="M225.91 50.0654C224.741 49.7261 223.551 49.4263 222.368 49.1896C222.241 49.1659 222.164 49.0318 222.185 48.8898C222.206 48.7478 222.326 48.653 222.452 48.6845C223.643 48.9291 224.847 49.229 226.023 49.5762C226.15 49.6078 226.22 49.7498 226.192 49.884C226.157 50.026 226.023 50.1048 225.91 50.0654Z" fill="#100F0D"/>
<path d="M201.227 49.8994C201.185 49.7653 201.248 49.6233 201.368 49.5759C201.417 49.5601 206.128 47.8874 213.044 47.8006H213.051C213.171 47.8006 213.276 47.911 213.276 48.053C213.276 48.1951 213.178 48.3056 213.051 48.3135C206.213 48.3924 201.558 50.0493 201.509 50.0651C201.396 50.1045 201.262 50.0335 201.227 49.8994Z" fill="#100F0D"/>
<path d="M297.578 48.0456C297.543 47.9114 297.606 47.7694 297.726 47.73C297.832 47.6905 307.951 44.1241 320.148 47.7221C320.268 47.7616 320.345 47.8957 320.31 48.0377C320.275 48.1719 320.155 48.2508 320.028 48.2193C307.958 44.6607 297.965 48.1797 297.867 48.2113C297.754 48.2586 297.62 48.1876 297.578 48.0456Z" fill="#100F0D"/>
<path d="M318.951 59.5652C316.726 58.9103 314.409 58.4448 312.078 58.1923C311.951 58.1844 311.86 58.0581 311.874 57.9161C311.888 57.7741 311.993 57.6716 312.12 57.6874C314.479 57.9399 316.817 58.4054 319.071 59.0682C319.19 59.1077 319.268 59.2418 319.233 59.3838C319.198 59.5259 319.071 59.5968 318.951 59.5652Z" fill="#100F0D"/>
<path d="M296.501 59.3919C296.465 59.2578 296.529 59.1158 296.649 59.0685C296.677 59.0606 299.106 58.1926 302.965 57.7349C303.099 57.7113 303.198 57.8218 303.212 57.9638C303.226 58.1058 303.134 58.232 303.015 58.2478C299.205 58.6976 296.81 59.5497 296.789 59.5576C296.677 59.6049 296.543 59.534 296.501 59.3919Z" fill="#100F0D"/>
<path d="M295.423 70.7379C295.388 70.6038 295.451 70.4618 295.571 70.4144C295.67 70.3829 305.789 66.8164 317.993 70.4144C318.113 70.4539 318.183 70.588 318.155 70.73C318.12 70.8642 317.993 70.9431 317.874 70.9116C305.803 67.3451 295.811 70.8722 295.712 70.9037C295.592 70.9511 295.466 70.8799 295.423 70.7379Z" fill="#100F0D"/>
<path d="M294.346 82.0845C294.303 81.9504 294.374 81.8084 294.493 81.761C294.592 81.7295 304.712 78.163 316.909 81.761C317.035 81.7926 317.106 81.9347 317.078 82.0688C317.043 82.2108 316.916 82.2896 316.796 82.258C304.726 78.6916 294.733 82.2186 294.634 82.2502C294.515 82.2975 294.388 82.2265 294.346 82.0845Z" fill="#100F0D"/>
<path d="M315.719 93.6046C312.057 92.5236 308.24 92.0028 304.352 92.0028C304.226 92.0028 304.12 91.8845 304.12 91.7425C304.12 91.6084 304.226 91.4899 304.345 91.4899C307.965 91.4505 312 91.9712 315.831 93.1074C315.958 93.139 316.028 93.2811 316 93.4152C315.965 93.5572 315.831 93.6362 315.719 93.6046Z" fill="#100F0D"/>
<path d="M227.959 38.0716C214.678 34.1501 203.671 38.0243 203.565 38.0638C203.438 38.1111 203.312 38.0322 203.277 37.8981C203.234 37.764 203.305 37.622 203.424 37.5746C203.537 37.5352 214.657 33.6137 228.079 37.5746C228.199 37.6062 228.276 37.7482 228.241 37.8902C228.206 38.0323 228.079 38.1032 227.959 38.0716Z" fill="#100F0D"/>
<path d="M233.938 28.5957C221.403 22.2834 209.988 24.0825 209.868 24.0982C209.748 24.114 209.629 24.0273 209.607 23.8853C209.593 23.7432 209.678 23.609 209.805 23.5932C209.917 23.5695 221.467 21.7548 234.121 28.1302C234.241 28.1854 234.29 28.3354 234.241 28.4695C234.185 28.5958 234.051 28.651 233.938 28.5957Z" fill="#100F0D"/>
<path d="M247.713 25.2421C242.896 12.6807 232.353 10.2425 232.248 10.2188C232.128 10.1952 232.044 10.0611 232.065 9.91909C232.093 9.77706 232.213 9.6903 232.339 9.71397C232.445 9.73764 243.22 12.2309 248.135 25.037C248.184 25.1633 248.128 25.321 248.015 25.3684C247.896 25.4315 247.762 25.3684 247.713 25.2421Z" fill="#100F0D"/>
<path d="M253.579 48.3847C252.952 48.3847 252.304 48.361 251.628 48.3058C251.501 48.2979 251.403 48.1717 251.417 48.0296C251.424 47.8955 251.515 47.8008 251.656 47.7929C263.804 48.7319 267.797 40.6521 267.832 40.5732C267.895 40.447 268.029 40.3996 268.142 40.4706C268.254 40.5337 268.297 40.6916 268.24 40.8178C268.198 40.8967 264.508 48.3847 253.579 48.3847Z" fill="#100F0D"/>
<path d="M263.543 60.5833C263.494 60.4491 263.543 60.2991 263.663 60.2439C268.937 57.6559 272.114 53.908 272.149 53.8686C272.233 53.766 272.381 53.766 272.473 53.8607C272.564 53.9554 272.564 54.1211 272.48 54.2236C272.451 54.2631 269.212 58.082 263.846 60.7095C263.733 60.7726 263.592 60.7174 263.543 60.5833Z" fill="#100F0D"/>
<path d="M260.311 76.9241C256.128 76.9241 253.015 75.993 252.945 75.9694C252.825 75.9378 252.755 75.7958 252.79 75.6538C252.818 75.5196 252.945 75.4408 253.065 75.4802C253.226 75.5276 269.078 80.2539 277.233 67.9922C277.311 67.8818 277.451 67.8581 277.55 67.9449C277.656 68.0238 277.677 68.1895 277.599 68.3C272.895 75.3698 265.712 76.9241 260.311 76.9241Z" fill="#100F0D"/>
<path d="M266.036 91.8132C266.022 91.6712 266.114 91.5448 266.24 91.5291C272.233 90.811 276.881 88.0337 280.057 83.26C280.134 83.1496 280.275 83.1258 280.374 83.2047C280.48 83.2915 280.501 83.4494 280.423 83.5678C277.17 88.4598 272.416 91.3081 266.29 92.0419C266.184 92.0577 266.05 91.9631 266.036 91.8132Z" fill="#100F0D"/>
<path d="M260.656 92.1056H260.635C257.762 91.8531 255.79 91.2455 255.769 91.2376C255.649 91.1982 255.579 91.0562 255.614 90.922C255.642 90.7879 255.769 90.701 255.896 90.7405C255.91 90.7484 257.846 91.3402 260.67 91.5927C260.797 91.6085 260.895 91.7269 260.881 91.8689C260.874 92.003 260.769 92.1056 260.656 92.1056Z" fill="#100F0D"/>
<path d="M267.416 107.018C263.233 107.018 260.121 106.087 260.05 106.063C259.923 106.032 259.853 105.89 259.888 105.748C259.923 105.613 260.05 105.534 260.17 105.574C260.332 105.621 276.177 110.348 284.339 98.086C284.409 97.9755 284.557 97.9517 284.656 98.0385C284.754 98.1174 284.775 98.2831 284.705 98.3936C280.001 105.463 272.818 107.018 267.416 107.018Z" fill="#100F0D"/>
<path d="M277.796 119.043C273.564 119.043 270.388 118.088 270.346 118.072C270.219 118.033 270.149 117.891 270.184 117.757C270.219 117.623 270.346 117.536 270.466 117.575C270.529 117.599 277.029 119.564 283.796 117.804C283.916 117.772 284.043 117.859 284.071 117.993C284.099 118.135 284.022 118.27 283.902 118.301C281.775 118.854 279.684 119.043 277.796 119.043Z" fill="#100F0D"/>
<path d="M288.853 240.547C285.832 237.951 284.149 233.919 282.663 230.361C282.606 230.235 282.656 230.085 282.775 230.022C282.888 229.966 283.022 230.022 283.078 230.148C284.543 233.651 286.205 237.62 289.134 240.137C295.698 245.771 303.993 239.94 299.402 228.996C297.832 225.264 295.36 221.902 294.437 217.847C292.775 210.556 296.395 203.336 299.846 197.071C302.634 192.006 305.514 186.767 305.796 180.896C305.979 177.14 305.092 173.085 303.092 168.5C300.845 163.364 298.071 159.663 294.839 157.525C286.74 152.159 277.754 157.328 277.761 168.903C277.761 173.456 279.149 177.874 280.571 182.017C281.86 185.741 283.233 189.536 283.473 193.497C284.071 203.557 277.628 205.072 276.106 207.211C274.121 210.004 275.867 214.138 276.712 215.787C278.071 218.446 279.782 220.853 281.797 222.936C281.888 223.031 281.895 223.188 281.811 223.291C281.726 223.402 281.578 223.41 281.487 223.307C279.437 221.192 277.698 218.746 276.311 216.04C275.423 214.304 273.592 209.925 275.747 206.887C277.494 204.433 283.606 203.455 283.015 193.529C282.775 189.639 281.409 185.875 280.142 182.198C278.705 178.016 277.304 173.542 277.304 168.903C277.297 156.894 286.705 151.536 295.071 157.083C298.381 159.276 301.219 163.04 303.5 168.272C305.543 172.943 306.444 177.077 306.254 180.92C305.965 186.924 303.05 192.219 300.233 197.34C296.867 203.455 293.254 210.58 294.881 217.713C295.782 221.674 298.247 225.043 299.817 228.783C304.522 239.979 295.958 246.639 288.853 240.547Z" fill="#100F0D"/>
<path d="M281.486 250.789C281.381 250.789 281.289 250.702 281.261 250.584C281.212 250.331 276.268 224.814 288.789 200.267C292.641 192.716 295.021 184.62 295.852 176.225C295.867 176.083 295.979 175.988 296.099 175.996C296.226 176.012 296.317 176.146 296.303 176.28C295.465 184.747 293.071 192.905 289.183 200.527C276.761 224.893 281.655 250.221 281.712 250.473C281.74 250.607 281.662 250.75 281.536 250.781L281.486 250.789Z" fill="#100F0D"/>
<path d="M29.7788 277.064C27.2436 274.894 25.8353 271.517 24.5888 268.534C24.5325 268.408 24.5818 268.25 24.6944 268.195C24.8071 268.132 24.948 268.187 25.0043 268.313C26.2226 271.241 27.6098 274.563 30.0605 276.661C32.314 278.595 36.0605 279.218 38.1802 276.851C41.2787 273.403 39.0323 267.982 36.9548 264.053C33.7858 258.04 32.0606 253.353 38.138 242.149C40.6731 237.462 43.68 232.617 43.9406 227.118C44.0955 223.977 43.3561 220.592 41.6801 216.766C39.8069 212.465 37.4901 209.38 34.7929 207.597C31.469 205.395 27.3846 205.301 24.617 207.36C22.11 209.23 20.5536 212.955 20.5536 217.081C20.5606 224.727 24.9268 230.889 25.3353 237.659C25.5113 240.634 24.7649 244.587 22.1241 246.765C20.5325 248.082 16.1875 249.479 19.6733 256.296C20.8071 258.522 22.2367 260.526 23.9198 262.262C24.0114 262.364 24.0183 262.522 23.9338 262.624C23.8493 262.735 23.7015 262.735 23.6099 262.64C21.8916 260.873 20.4339 258.821 19.279 256.549C15.5889 249.337 20.2649 247.664 21.8564 246.355C24.3423 244.295 25.0465 240.531 24.8775 237.691C24.4761 231 20.1029 224.908 20.0959 217.081C20.0959 212.789 21.7296 208.899 24.3634 206.934C27.2718 204.772 31.5535 204.859 35.0252 207.155C37.7998 208.994 40.1801 212.15 42.0956 216.537C43.7998 220.45 44.5533 223.914 44.3983 227.141C44.1307 232.744 41.145 237.596 38.5253 242.409C32.6592 253.243 34.1872 257.796 37.3491 263.792C39.6308 268.108 41.7364 273.608 38.5041 277.214C36.2224 279.762 32.314 279.242 29.7788 277.064Z" fill="#100F0D"/>
<path d="M23.4125 285.443C23.3703 285.23 19.2295 263.863 29.7153 243.309C32.9406 236.989 34.9265 230.226 35.6166 223.204C35.6307 223.062 35.7504 222.959 35.8701 222.983C35.9969 222.999 36.0885 223.125 36.0744 223.259C35.3702 230.353 33.3632 237.186 30.1097 243.569C19.7225 263.942 23.821 285.12 23.8632 285.333C23.8844 285.475 23.8139 285.609 23.6872 285.641C23.5675 285.672 23.4407 285.585 23.4125 285.443Z" fill="#100F0D"/>
<path d="M326.486 160.12C326.359 160.113 326.261 159.994 326.268 159.852C326.275 159.71 326.38 159.6 326.507 159.608C328.958 159.71 330.845 157.588 330.944 155.047C331.042 152.412 329.225 150.186 326.873 150.076C326.747 150.068 326.648 149.95 326.655 149.808C326.655 149.666 326.761 149.555 326.887 149.563C329.486 149.689 331.514 152.143 331.401 155.063C331.289 158.022 329.049 160.255 326.486 160.12Z" fill="#100F0D"/>
<path d="M36.2856 149.666C34.5251 147.52 34.6518 144.174 36.5743 142.202C38.4898 140.229 41.4756 140.371 43.2362 142.525C43.3207 142.628 43.3137 142.785 43.2221 142.888C43.1306 142.983 42.9827 142.975 42.8982 142.872C41.3137 140.931 38.6095 140.797 36.8842 142.58C35.1448 144.363 35.0322 147.378 36.6237 149.319C36.7082 149.421 36.7081 149.587 36.6095 149.682C36.518 149.776 36.3772 149.776 36.2856 149.666Z" fill="#100F0D"/>
<path d="M71.3837 82.4316C71.2569 82.4237 71.1584 82.3054 71.1654 82.1633C71.1654 82.0213 71.2709 81.9109 71.4047 81.9188C73.7991 82.0292 75.7427 79.9461 75.8413 77.3581C75.9399 74.7227 74.1161 72.4976 71.764 72.3871C71.6372 72.3792 71.5385 72.2608 71.5456 72.1188C71.5526 71.9768 71.6723 71.8664 71.785 71.8743C74.3836 72.0005 76.4117 74.4545 76.299 77.3739C76.1863 80.3328 73.94 82.5658 71.3837 82.4316Z" fill="#100F0D"/>
<path d="M254.776 263.437H250.156C250.029 263.437 249.931 263.318 249.931 263.176C249.931 263.034 250.029 262.924 250.156 262.924H254.776C254.902 262.924 255.001 263.034 255.001 263.176C255.001 263.318 254.902 263.437 254.776 263.437Z" fill="#100F0D"/>
<path d="M290.092 275.162H285.479C285.353 275.162 285.254 275.044 285.254 274.902C285.254 274.76 285.353 274.649 285.479 274.649H290.092C290.219 274.649 290.325 274.76 290.325 274.902C290.325 275.044 290.219 275.162 290.092 275.162Z" fill="#100F0D"/>
<path d="M232.536 286.887H227.917C227.79 286.887 227.691 286.769 227.691 286.627C227.691 286.493 227.79 286.374 227.917 286.374H232.536C232.656 286.374 232.762 286.493 232.762 286.627C232.762 286.769 232.656 286.887 232.536 286.887Z" fill="#100F0D"/>
<path d="M147.495 305.943H142.883C142.756 305.943 142.657 305.824 142.657 305.682C142.657 305.548 142.756 305.43 142.883 305.43H147.495C147.622 305.43 147.728 305.548 147.728 305.682C147.728 305.824 147.622 305.943 147.495 305.943Z" fill="#100F0D"/>
<path d="M83.3976 324.264H78.7779C78.6512 324.264 78.5525 324.154 78.5525 324.012C78.5525 323.87 78.6512 323.751 78.7779 323.751H83.3976C83.5243 323.751 83.6228 323.87 83.6228 324.012C83.6228 324.154 83.5243 324.264 83.3976 324.264Z" fill="#100F0D"/>
<path d="M330.289 267.343H325.669C325.543 267.343 325.444 267.233 325.444 267.091C325.444 266.949 325.543 266.83 325.669 266.83H330.289C330.416 266.83 330.514 266.949 330.514 267.091C330.514 267.233 330.416 267.343 330.289 267.343Z" fill="#100F0D"/>
<path d="M210.206 242.48H205.586C205.459 242.48 205.361 242.37 205.361 242.228C205.361 242.085 205.459 241.967 205.586 241.967H210.206C210.325 241.967 210.431 242.085 210.431 242.228C210.431 242.37 210.325 242.48 210.206 242.48Z" fill="#100F0D"/>
<path d="M184.037 328.967H179.424C179.298 328.967 179.192 328.848 179.192 328.706C179.192 328.564 179.298 328.454 179.424 328.454H184.037C184.164 328.454 184.27 328.564 184.27 328.706C184.27 328.848 184.164 328.967 184.037 328.967Z" fill="#100F0D"/>
<path d="M180.981 294.494C180.854 294.454 180.784 294.32 180.812 294.178L189.157 255.657C189.185 255.515 189.305 255.428 189.432 255.468C189.551 255.499 189.629 255.641 189.601 255.775L181.256 294.304C181.227 294.438 181.101 294.525 180.981 294.494Z" fill="#100F0D"/>
<path d="M46.9545 330.639L30.9828 294.943C30.9265 294.817 30.9688 294.667 31.0815 294.604C31.2012 294.533 31.335 294.588 31.3913 294.715L47.363 330.411C47.4194 330.537 47.3701 330.695 47.2574 330.758C47.1447 330.821 47.0109 330.766 46.9545 330.639Z" fill="#100F0D"/>
<g filter="url(#filter6_d_1879_2051)">
<path d="M207.016 297.618C206.854 297.539 206.769 297.326 206.84 297.137L219.903 261.07C219.973 260.881 220.163 260.794 220.332 260.865C220.501 260.944 220.579 261.157 220.509 261.346L207.445 297.413C207.375 297.603 207.185 297.697 207.016 297.618Z" fill="#1E1E1E"/>
</g>
<path d="M201.748 270.609L195.03 283.218L199.579 270.657L201.748 270.609Z" fill="#100F0D"/>
<path d="M27.525 354.981L10.7646 322.181L11.328 321.818L28.0954 354.618L27.525 354.981Z" fill="#1E1E1E"/>
<defs>
<filter id="filter0_d_1879_2051" x="0.46582" y="309.185" width="38.2961" height="58.7782" filterUnits="userSpaceOnUse" color-interpolation-filters="sRGB">
<feFlood flood-opacity="0" result="BackgroundImageFix"/>
<feColorMatrix in="SourceAlpha" type="matrix" values="0 0 0 0 0 0 0 0 0 0 0 0 0 0 0 0 0 0 127 0" result="hardAlpha"/>
<feOffset dy="4"/>
<feGaussianBlur stdDeviation="2"/>
<feComposite in2="hardAlpha" operator="out"/>
<feColorMatrix type="matrix" values="0 0 0 0 0 0 0 0 0 0 0 0 0 0 0 0 0 0 0.25 0"/>
<feBlend mode="normal" in2="BackgroundImageFix" result="effect1_dropShadow_1879_2051"/>
<feBlend mode="normal" in="SourceGraphic" in2="effect1_dropShadow_1879_2051" result="shape"/>
</filter>
<filter id="filter1_d_1879_2051" x="115.96" y="106.758" width="60.6614" height="44.9988" filterUnits="userSpaceOnUse" color-interpolation-filters="sRGB">
<feFlood flood-opacity="0" result="BackgroundImageFix"/>
<feColorMatrix in="SourceAlpha" type="matrix" values="0 0 0 0 0 0 0 0 0 0 0 0 0 0 0 0 0 0 127 0" result="hardAlpha"/>
<feOffset dy="4"/>
<feGaussianBlur stdDeviation="2"/>
<feComposite in2="hardAlpha" operator="out"/>
<feColorMatrix type="matrix" values="0 0 0 0 0 0 0 0 0 0 0 0 0 0 0 0 0 0 0.25 0"/>
<feBlend mode="normal" in2="BackgroundImageFix" result="effect1_dropShadow_1879_2051"/>
<feBlend mode="normal" in="SourceGraphic" in2="effect1_dropShadow_1879_2051" result="shape"/>
</filter>
<filter id="filter2_d_1879_2051" x="14.8494" y="182.671" width="101.963" height="162.588" filterUnits="userSpaceOnUse" color-interpolation-filters="sRGB">
<feFlood flood-opacity="0" result="BackgroundImageFix"/>
<feColorMatrix in="SourceAlpha" type="matrix" values="0 0 0 0 0 0 0 0 0 0 0 0 0 0 0 0 0 0 127 0" result="hardAlpha"/>
<feOffset dy="4"/>
<feGaussianBlur stdDeviation="2"/>
<feComposite in2="hardAlpha" operator="out"/>
<feColorMatrix type="matrix" values="0 0 0 0 0 0 0 0 0 0 0 0 0 0 0 0 0 0 0.25 0"/>
<feBlend mode="normal" in2="BackgroundImageFix" result="effect1_dropShadow_1879_2051"/>
<feBlend mode="normal" in="SourceGraphic" in2="effect1_dropShadow_1879_2051" result="shape"/>
</filter>
<filter id="filter3_d_1879_2051" x="66.9751" y="192.927" width="139.548" height="113.148" filterUnits="userSpaceOnUse" color-interpolation-filters="sRGB">
<feFlood flood-opacity="0" result="BackgroundImageFix"/>
<feColorMatrix in="SourceAlpha" type="matrix" values="0 0 0 0 0 0 0 0 0 0 0 0 0 0 0 0 0 0 127 0" result="hardAlpha"/>
<feOffset dy="4"/>
<feGaussianBlur stdDeviation="2"/>
<feComposite in2="hardAlpha" operator="out"/>
<feColorMatrix type="matrix" values="0 0 0 0 0 0 0 0 0 0 0 0 0 0 0 0 0 0 0.25 0"/>
<feBlend mode="normal" in2="BackgroundImageFix" result="effect1_dropShadow_1879_2051"/>
<feBlend mode="normal" in="SourceGraphic" in2="effect1_dropShadow_1879_2051" result="shape"/>
</filter>
<filter id="filter4_d_1879_2051" x="55.3137" y="105.913" width="87.7288" height="106.094" filterUnits="userSpaceOnUse" color-interpolation-filters="sRGB">
<feFlood flood-opacity="0" result="BackgroundImageFix"/>
<feColorMatrix in="SourceAlpha" type="matrix" values="0 0 0 0 0 0 0 0 0 0 0 0 0 0 0 0 0 0 127 0" result="hardAlpha"/>
<feOffset dy="4"/>
<feGaussianBlur stdDeviation="2"/>
<feComposite in2="hardAlpha" operator="out"/>
<feColorMatrix type="matrix" values="0 0 0 0 0 0 0 0 0 0 0 0 0 0 0 0 0 0 0.25 0"/>
<feBlend mode="normal" in2="BackgroundImageFix" result="effect1_dropShadow_1879_2051"/>
<feBlend mode="normal" in="SourceGraphic" in2="effect1_dropShadow_1879_2051" result="shape"/>
</filter>
<filter id="filter5_d_1879_2051" x="97.5596" y="119.887" width="82.9709" height="69.011" filterUnits="userSpaceOnUse" color-interpolation-filters="sRGB">
<feFlood flood-opacity="0" result="BackgroundImageFix"/>
<feColorMatrix in="SourceAlpha" type="matrix" values="0 0 0 0 0 0 0 0 0 0 0 0 0 0 0 0 0 0 127 0" result="hardAlpha"/>
<feOffset dy="4"/>
<feGaussianBlur stdDeviation="2"/>
<feComposite in2="hardAlpha" operator="out"/>
<feColorMatrix type="matrix" values="0 0 0 0 0 0 0 0 0 0 0 0 0 0 0 0 0 0 0.25 0"/>
<feBlend mode="normal" in2="BackgroundImageFix" result="effect1_dropShadow_1879_2051"/>
<feBlend mode="normal" in="SourceGraphic" in2="effect1_dropShadow_1879_2051" result="shape"/>
</filter>
<filter id="filter6_d_1879_2051" x="202.815" y="260.84" width="21.7197" height="44.8058" filterUnits="userSpaceOnUse" color-interpolation-filters="sRGB">
<feFlood flood-opacity="0" result="BackgroundImageFix"/>
<feColorMatrix in="SourceAlpha" type="matrix" values="0 0 0 0 0 0 0 0 0 0 0 0 0 0 0 0 0 0 127 0" result="hardAlpha"/>
<feOffset dy="4"/>
<feGaussianBlur stdDeviation="2"/>
<feComposite in2="hardAlpha" operator="out"/>
<feColorMatrix type="matrix" values="0 0 0 0 0 0 0 0 0 0 0 0 0 0 0 0 0 0 0.25 0"/>
<feBlend mode="normal" in2="BackgroundImageFix" result="effect1_dropShadow_1879_2051"/>
<feBlend mode="normal" in="SourceGraphic" in2="effect1_dropShadow_1879_2051" result="shape"/>
</filter>
</defs>
</svg>
