<svg width="360" height="306" viewBox="0 0 360 306" fill="none" xmlns="http://www.w3.org/2000/svg">
<g clip-path="url(#clip0_1979_947)">
<path d="M364.238 146.478L352.208 149.169C352.227 150.118 352.27 155.195 351.034 157.935C349.812 160.643 353.431 160.923 354.779 157.366C354.779 157.366 355.755 166.801 357.777 167.238C358.691 167.436 359.218 166.52 359.012 163.796C359.498 166.297 360.388 167.56 360.976 167.618C361.614 167.684 362.393 167.189 362.243 164.654C362.538 165.414 362.862 165.934 363.219 166.082C364.91 166.768 364.672 164.019 364.249 160.651C364.343 160.75 364.44 160.816 364.537 160.857C367.444 162.038 364.692 147.708 364.238 146.478Z" fill="#FACCBD"/>
<path d="M359.012 163.796L358.37 160.263L359.012 163.796Z" fill="white"/>
<path d="M359.012 163.524C359.127 163.524 359.227 163.615 359.251 163.739C359.719 166.157 360.555 167.305 360.999 167.354C361.985 167.461 362.064 165.761 361.999 164.671C361.992 164.548 362.07 164.424 362.186 164.399C362.3 164.366 362.42 164.432 362.466 164.548C362.826 165.472 363.12 165.753 363.305 165.835C364.788 166.438 364.33 163.26 364.007 160.693C363.975 160.453 364.236 160.288 364.411 160.453C364.488 160.528 364.558 160.577 364.62 160.602C364.911 160.726 365.054 160.635 365.137 160.552C366.504 159.248 364.564 148.237 364.084 146.784L352.454 149.392C352.472 150.771 352.434 155.435 351.252 158.051C350.731 159.207 351.175 159.826 352.051 159.727C352.81 159.636 353.919 158.935 354.553 157.259C354.647 157.011 354.992 157.053 355.02 157.333C355.39 160.907 356.478 166.677 357.824 166.974C358.918 167.222 358.862 165.051 358.77 163.813C358.759 163.673 358.85 163.549 358.977 163.524H359.012ZM360.953 167.891C360.431 167.833 359.779 167.131 359.263 165.687C359.153 166.809 358.731 167.717 357.729 167.503C355.905 167.107 354.941 160.726 354.635 158.266C353.9 159.587 352.857 160.164 352.104 160.255C350.898 160.412 350.1 159.397 350.815 157.82C352.023 155.137 351.983 150.152 351.964 149.178C351.961 149.046 352.043 148.938 352.158 148.914L364.189 146.214C364.304 146.19 364.419 146.256 364.464 146.379C364.827 147.362 367.232 159.265 365.457 160.957C365.283 161.122 364.988 161.287 364.556 161.147C364.852 163.59 365.262 167.206 363.133 166.339C362.909 166.24 362.695 166.042 362.492 165.728C362.419 166.892 362.007 167.998 360.953 167.891Z" fill="#100F0D"/>
<path d="M359.012 164.061C358.898 164.061 358.797 163.97 358.774 163.846L358.132 160.313C358.104 160.164 358.19 160.024 358.322 159.999C358.451 159.966 358.582 160.065 358.609 160.206L359.252 163.739C359.279 163.887 359.193 164.028 359.06 164.052L359.012 164.061Z" fill="#100F0D"/>
<path d="M345.953 141.229C345.827 141.229 345.722 141.121 345.711 140.981C345.7 140.833 345.8 140.709 345.934 140.692L365.217 139C365.356 138.975 365.468 139.099 365.479 139.248C365.49 139.396 365.389 139.52 365.257 139.537L345.974 141.229H345.953Z" fill="#100F0D"/>
<path d="M349.623 143.862C348.818 143.862 348.163 144.58 348.163 145.463C348.163 146.346 348.818 147.065 349.623 147.065C350.423 147.065 351.075 146.346 351.075 145.463C351.075 144.58 350.423 143.862 349.623 143.862ZM349.623 147.601C348.549 147.601 347.676 146.644 347.676 145.463C347.676 144.283 348.549 143.325 349.623 143.325C350.692 143.325 351.562 144.283 351.562 145.463C351.562 146.644 350.692 147.601 349.623 147.601Z" fill="#100F0D"/>
<path d="M344.587 109.218C342.887 111.248 340.449 112.528 337.732 112.528C333.113 112.528 329.276 108.805 328.558 103.943C334.841 104.818 340.135 106.7 344.587 109.218Z" fill="#0F0F0F"/>
<path d="M57.2906 190.384C57.2906 210.187 42.7099 226.234 24.7236 226.234C6.73431 226.234 -7.84717 210.187 -7.84717 190.384C-7.84717 170.59 6.73431 154.535 24.7236 154.535C42.7099 154.535 57.2906 170.59 57.2906 190.384Z" fill="#FFEBD0"/>
<path d="M24.7237 154.807C6.89938 154.807 -7.60261 170.771 -7.60261 190.384C-7.60261 210.005 6.89938 225.961 24.7237 225.961C42.5472 225.961 57.0477 210.005 57.0477 190.384C57.0477 170.771 42.5472 154.807 24.7237 154.807ZM24.7237 226.497C6.63014 226.497 -8.09009 210.302 -8.09009 190.384C-8.09009 170.474 6.63014 154.27 24.7237 154.27C42.8157 154.27 57.5344 170.474 57.5344 190.384C57.5344 210.302 42.8157 226.497 24.7237 226.497Z" fill="#100F0D"/>
<path d="M49.386 190.384C49.386 205.382 38.3436 217.533 24.7228 217.533C11.0998 217.533 0.057373 205.382 0.057373 190.384C0.057373 175.394 11.0998 163.235 24.7228 163.235C38.3436 163.235 49.386 175.394 49.386 190.384Z" fill="#FAB95F"/>
<path d="M117.449 304.296L117.428 304.354C117.072 305.575 115.896 306.269 114.775 305.93L76.6764 294.3C75.3482 293.887 74.6935 292.244 75.319 290.891L78.2168 284.601L80.9234 278.74L100.295 284.436L105.308 290.065L111.395 291.931C115.038 293.037 117.497 296.479 117.838 300.359C117.957 301.646 117.835 302.992 117.449 304.296Z" fill="black"/>
<path d="M75.0884 292.046C75.1139 293.062 75.7139 294.003 76.6761 294.3L114.775 305.93C115.714 306.219 116.685 305.765 117.187 304.899L75.0884 292.046Z" fill="#100F0D"/>
<path d="M86.7916 281.241C85.9704 284.501 82.9001 286.408 79.9475 285.508C79.3085 285.31 78.7265 285.005 78.2166 284.6L80.9232 278.74L86.9258 280.572C86.8914 280.795 86.8471 281.026 86.7916 281.241Z" fill="#100F0D"/>
<path d="M117.838 300.359C116.772 300.846 115.555 300.962 114.356 300.598C111.5 299.723 109.827 296.471 110.619 293.326C110.751 292.798 110.945 292.311 111.189 291.865L111.395 291.931C115.039 293.037 117.497 296.479 117.838 300.359Z" fill="#100F0D"/>
<path d="M275.98 304.684H236.97C236.353 304.684 235.852 304.131 235.852 303.454C235.878 303.38 235.53 295.076 242.691 294.597L246.909 294.267L252.491 289.248H274.886L277.082 303.24C277.199 303.999 276.673 304.684 275.98 304.684Z" fill="black"/>
<path d="M271.281 290.982C271.281 290.313 271.444 289.653 271.752 289.075C271.821 288.951 271.971 288.91 272.086 288.984C272.202 289.058 272.24 289.223 272.172 289.347C271.907 289.843 271.767 290.412 271.767 290.982C271.767 293.128 273.647 294.663 275.496 294.061C275.626 294.019 275.761 294.102 275.798 294.242C275.837 294.383 275.762 294.539 275.634 294.581C273.473 295.282 271.281 293.491 271.281 290.982Z" fill="#100F0D"/>
<path d="M296.779 209.047C290.823 211.482 285.884 214.305 281.802 217.393C247.243 243.617 274.867 289.165 274.864 289.24H246.638C216.405 239.861 260.194 194.247 260.194 194.247C283.188 186.306 301.237 188.584 296.779 209.047Z" fill="#6F6F6F"/>
<path d="M246.724 289.058L274.564 289.067C273.639 287.465 269.042 279.186 266.32 268.381C263.526 257.303 262.189 241.224 271.676 227.571C274.307 223.774 277.683 220.298 281.708 217.244C285.935 214.05 290.958 211.243 296.639 208.907C298.042 202.386 297.194 197.483 294.116 194.322C288.751 188.808 276.418 188.841 260.279 194.404C259.668 195.056 249.122 206.39 242.223 223.311C235.71 239.284 231.209 263.651 246.724 289.058ZM274.864 289.422L246.637 289.413L246.501 289.339C239.588 278.047 236 266.012 235.837 253.564C235.707 243.617 237.757 233.382 241.928 223.155C249.027 205.746 259.971 194.231 260.08 194.115L260.144 194.074C276.418 188.453 288.882 188.444 294.339 194.057C297.524 197.326 298.398 202.386 296.938 209.089L296.835 209.213C291.145 211.54 286.118 214.347 281.894 217.541C277.897 220.579 274.546 224.021 271.935 227.785C262.533 241.323 263.862 257.279 266.633 268.274C269.639 280.21 274.947 289.058 275 289.141C275.073 289.265 274.995 289.422 274.864 289.422Z" fill="#828282"/>
<path d="M281.801 217.393C277.608 220.579 274.327 224.046 271.805 227.678C272.126 215.915 281.091 210.154 281.091 210.154L281.801 217.393Z" fill="#100F0D"/>
<path d="M256.334 280.895C245.833 261.612 249.668 241.24 254.733 227.546C260.218 212.729 268.289 202.32 268.369 202.221C268.428 202.139 268.532 202.13 268.6 202.196C268.668 202.262 268.676 202.378 268.617 202.452C268.537 202.551 260.497 212.927 255.034 227.695C249.999 241.306 246.185 261.555 256.615 280.705C256.662 280.796 256.637 280.903 256.559 280.953C256.483 281.01 256.382 280.977 256.334 280.895Z" fill="#100F0D"/>
<path d="M324.858 194.247C324.858 194.247 330.739 210.17 306.74 225.416C287.899 237.393 322.33 279.244 322.33 279.244L297.765 285.599C297.765 285.599 250.316 245.862 292.248 193.562" fill="#8A8A8A"/>
<path d="M297.666 285.74C297.463 285.575 277.351 268.455 275.004 242.354C273.525 225.92 279.286 209.46 292.126 193.447C292.184 193.372 292.288 193.364 292.356 193.43C292.424 193.496 292.43 193.612 292.37 193.686C279.594 209.617 273.86 225.986 275.33 242.321C277.599 267.547 296.579 284.345 297.804 285.402L322.025 279.145C319.825 276.404 298.858 249.833 301.112 234.034C301.658 230.204 303.524 227.257 306.659 225.268C319.009 217.418 323.254 209.402 324.641 204.062C326.138 198.308 324.72 194.355 324.705 194.313C324.672 194.222 324.712 194.115 324.795 194.082C324.881 194.041 324.975 194.09 325.009 194.181C325.024 194.222 326.484 198.284 324.956 204.169C323.552 209.568 319.266 217.665 306.823 225.573C303.778 227.513 301.965 230.377 301.435 234.092C299.094 250.51 322.219 278.839 322.451 279.128C322.537 279.227 322.488 279.392 322.368 279.425L297.802 285.773L297.666 285.74Z" fill="#100F0D"/>
<path d="M303.487 275.339C297.675 266.532 293.379 257.609 291.064 249.527C288.365 240.117 288.476 232.416 291.39 226.646C298.495 212.572 308.728 196.509 308.831 196.344C308.884 196.261 308.986 196.245 309.059 196.302C309.133 196.36 309.15 196.476 309.1 196.55C308.996 196.715 298.773 212.762 291.676 226.819C288.807 232.507 288.706 240.109 291.376 249.42C293.68 257.46 297.96 266.35 303.752 275.125C303.805 275.207 303.789 275.323 303.716 275.38C303.644 275.438 303.541 275.422 303.487 275.339Z" fill="#100F0D"/>
<path d="M295.109 219.63C292.225 218.309 290.657 216.51 290.448 214.298C289.92 208.701 298.109 202.452 298.458 202.188C298.532 202.131 298.634 202.147 298.685 202.23C298.736 202.312 298.718 202.428 298.643 202.485C298.559 202.543 290.265 208.883 290.773 214.256C290.971 216.337 292.471 218.029 295.234 219.292C295.318 219.333 295.357 219.44 295.323 219.531C295.288 219.622 295.19 219.663 295.109 219.63Z" fill="#100F0D"/>
<path d="M291.41 279.194C291.337 279.194 291.271 279.144 291.252 279.062C291.229 278.963 291.279 278.864 291.366 278.839L316.447 271.278C316.538 271.253 316.625 271.311 316.648 271.402C316.672 271.501 316.621 271.6 316.534 271.625L291.453 279.186L291.41 279.194Z" fill="#100F0D"/>
<path d="M242.545 281.828C242.457 281.828 242.384 281.745 242.381 281.654C242.38 281.555 242.451 281.464 242.541 281.464L270.692 280.622H270.697C270.786 280.622 270.858 280.697 270.861 280.796C270.863 280.895 270.792 280.977 270.702 280.986L242.55 281.828H242.545Z" fill="#100F0D"/>
<path d="M171.989 164.028C171.989 164.028 183.523 174.668 196.224 169.731C199.337 168.526 198.562 159.628 188.551 157.903C178.54 156.186 178.312 156.945 178.312 156.945" fill="#FACCBD"/>
<path d="M189.297 171.209C179.653 171.209 171.978 164.25 171.884 164.159C171.815 164.101 171.806 163.986 171.863 163.912C171.921 163.837 172.025 163.821 172.094 163.887C172.208 163.994 183.701 174.403 196.17 169.566C197.217 169.153 197.801 167.799 197.66 166.116C197.405 163.086 194.859 159.174 188.525 158.084C179.73 156.573 178.562 156.986 178.433 157.06L178.26 157.11C178.174 157.085 178.127 156.978 178.156 156.887C178.393 156.103 184.786 157.077 188.576 157.729C195.096 158.843 197.72 162.929 197.985 166.083C198.141 167.94 197.472 169.442 196.278 169.904C193.893 170.829 191.541 171.209 189.297 171.209Z" fill="#100F0D"/>
<path d="M202.322 161.048C202.322 161.048 198.687 162.632 197.088 159.554C195.49 156.475 192.391 154.271 191.15 154.659C189.194 155.278 192.694 160.478 192.694 160.478C192.694 160.478 190.127 160.916 182.348 160.569C178.3 160.387 185.064 173.71 194.652 172.175C204.239 170.631 205.917 166.372 205.917 166.372" fill="#FACCBD"/>
<path d="M193.106 172.48C188.372 172.48 184.482 169.046 182.467 165.852C181.206 163.854 180.695 161.955 181.164 161.014C181.316 160.709 181.634 160.346 182.355 160.387C188.664 160.668 191.56 160.428 192.399 160.337C191.832 159.446 190.039 156.499 190.456 155.137C190.558 154.807 190.777 154.592 191.105 154.485C192.454 154.056 195.6 156.326 197.231 159.463C198.74 162.368 202.117 160.94 202.262 160.882C202.344 160.849 202.44 160.891 202.474 160.981C202.508 161.072 202.466 161.179 202.382 161.212C202.345 161.237 198.597 162.822 196.947 159.644C195.316 156.499 192.297 154.477 191.195 154.832C190.974 154.906 190.834 155.038 190.766 155.261C190.411 156.408 192.133 159.339 192.826 160.371C192.9 160.478 192.84 160.635 192.719 160.659C192.613 160.676 190.047 161.089 182.341 160.742C181.927 160.734 181.608 160.874 181.451 161.188C181.047 161.997 181.563 163.788 182.735 165.645C184.916 169.104 189.341 172.843 194.628 171.993C204.016 170.491 205.75 166.339 205.766 166.297C205.801 166.206 205.895 166.165 205.982 166.206C206.065 166.248 206.104 166.347 206.067 166.438C205.997 166.619 204.243 170.812 194.676 172.348C194.142 172.439 193.619 172.48 193.106 172.48Z" fill="#100F0D"/>
<path d="M368.09 147.527L346.538 152.108C338.136 115.673 310.704 132.132 310.704 132.132C340.944 165.794 326.608 200.166 326.608 200.166C297.873 188.51 256.766 198.267 256.766 198.267C256.766 198.267 262.144 156.136 263.51 154.37C260.006 158.555 256.098 162.096 251.89 165.076C250.19 166.281 248.442 167.37 246.651 168.361C241.545 171.184 236.111 173.173 230.553 174.577C220.967 176.995 211.014 177.697 201.728 177.977L199.951 152.942C233.924 145.851 246.06 141.98 256.989 130.225C269.423 116.878 279.713 102.3 322.066 103.415C324.337 103.472 326.503 103.654 328.558 103.943C334.841 104.818 340.135 106.7 344.587 109.217C365.84 121.211 368.09 147.527 368.09 147.527Z" fill="#0190F8"/>
<path d="M263.582 154.271L263.548 154.312C260.043 158.53 256.115 162.088 251.892 165.076C257.915 147.345 266.325 134.427 268.494 131.24C263.509 139 263.582 154.271 263.582 154.271Z" fill="#0581DB"/>
<path d="M340.328 137.341C334.146 128.244 325.25 128.021 318.875 129.441C311.943 130.985 306.404 134.741 306.349 134.774C306.275 134.831 306.171 134.807 306.124 134.716C306.075 134.633 306.099 134.526 306.176 134.468C306.231 134.435 311.814 130.646 318.802 129.086C325.27 127.65 334.305 127.873 340.592 137.126C340.645 137.209 340.631 137.316 340.558 137.382C340.485 137.44 340.384 137.423 340.328 137.341Z" fill="#100F0D"/>
<path d="M177.052 157.226C177.052 157.226 183.17 153.082 188.128 154.865C193.086 156.64 195.547 160.494 196.607 162.599C197.665 164.704 194.361 164.572 193.542 164.209C190.781 162.996 186.683 158.794 182.226 160.882" fill="#FACCBD"/>
<path d="M193.483 164.374C190.722 163.16 186.66 159.008 182.29 161.047C182.205 161.089 182.11 161.047 182.076 160.956C182.04 160.866 182.079 160.758 182.162 160.717C186.707 158.587 190.847 162.83 193.603 164.044C194.329 164.366 197.402 164.547 196.463 162.69C195.164 160.098 192.653 156.672 188.078 155.03C183.252 153.296 177.199 157.333 177.138 157.374C177.061 157.432 176.96 157.407 176.912 157.316C176.864 157.234 176.89 157.118 176.966 157.069C177.028 157.027 183.204 152.9 188.179 154.691C192.856 156.367 195.422 159.867 196.75 162.508C197.82 164.646 194.769 164.943 193.483 164.374Z" fill="#100F0D"/>
<path d="M30.8785 148.724C31.3367 151.918 32.8066 155.649 32.8066 155.649C32.8066 155.649 28.9811 154.815 25.2155 154.469C22.2449 158.489 19.8128 162.236 18.8206 161.881C17.1084 161.262 20.2073 156.483 21.5722 154.551C18.6009 158.571 17.1137 161.031 15.9055 160.123C14.7033 159.232 16.0292 155.979 17.3949 154.048C15.208 156.821 13.8094 158.225 13.1307 157.589C11.918 156.442 13.7021 153.115 15.0671 151.183C13.6009 152.834 12.2067 154.617 11.5647 153.709C10.0543 151.563 21.6892 139.569 21.6892 139.569L30.8785 148.724Z" fill="#FACCBD"/>
<path d="M21.7241 154.337C21.8291 154.436 21.8471 154.601 21.7654 154.716C20.8242 156.045 17.4674 161.105 18.8968 161.625C19.559 161.865 21.5381 159.108 23.4625 156.45C23.9628 155.756 24.4862 155.03 25.027 154.304C25.0779 154.238 25.1567 154.196 25.2377 154.205C28.2285 154.477 31.2884 155.071 32.4088 155.294C32.0076 154.205 31.0251 151.373 30.6509 148.856L21.6926 139.933C17.2589 144.53 10.7687 152.141 11.7579 153.544C12.2071 154.18 13.7866 152.257 14.424 151.53L14.8935 150.994C14.985 150.895 15.1312 150.886 15.228 150.977C15.3255 151.068 15.3397 151.233 15.2602 151.348C13.6501 153.627 12.3466 156.491 13.2893 157.383C13.9658 158.01 16.2367 155.104 17.2109 153.874C17.2979 153.759 17.4486 153.751 17.5499 153.841C17.6511 153.932 17.6683 154.097 17.5881 154.213C16.5359 155.699 15.5182 157.969 15.7012 159.24C15.7447 159.545 15.8572 159.768 16.0432 159.9C16.8989 160.544 18.1506 158.819 20.2287 155.963C20.5879 155.467 20.9712 154.939 21.3837 154.378C21.4684 154.262 21.6206 154.254 21.7241 154.337ZM18.7445 162.137C17.5881 161.716 18.1761 160.007 18.7228 158.811C17.4929 160.338 16.6177 160.981 15.7702 160.346C15.4702 160.123 15.285 159.776 15.219 159.322C15.102 158.513 15.3862 157.399 15.8602 156.293C14.5358 157.762 13.5931 158.373 12.9721 157.787C11.9859 156.854 12.6519 154.914 13.4731 153.321C12.8244 153.957 11.9409 154.675 11.3724 153.874C9.80502 151.646 19.5537 141.402 21.5239 139.371C21.6161 139.28 21.7586 139.272 21.8539 139.371L31.0424 148.525L31.1189 148.682C31.5674 151.811 33.0163 155.509 33.0305 155.542C33.1115 155.748 32.942 155.963 32.7598 155.913C32.7223 155.905 28.992 155.096 25.3247 154.749C22.2784 158.877 19.9265 162.558 18.7445 162.137Z" fill="#100F0D"/>
<path d="M76.7539 191.498C76.7539 191.498 84.2438 194.214 98.0603 188.84C106.983 185.373 113.692 168.385 99.9547 168.385C86.2169 168.385 76.7539 191.498 76.7539 191.498Z" fill="#100F0D"/>
<path d="M178.752 301.333L178.745 301.391C178.698 302.67 177.735 303.685 176.571 303.685H137.033C135.654 303.685 134.624 302.299 134.898 300.805L136.163 293.896L137.348 287.449H157.554L163.596 291.188H169.913C173.693 291.188 176.899 293.78 178.17 297.42C178.598 298.625 178.805 299.954 178.752 301.333Z" fill="black"/>
<path d="M178.191 297.42C177.28 298.204 176.137 298.675 174.892 298.675C171.331 298.675 168.772 294.927 169.72 291.188H169.934C173.714 291.188 176.92 293.78 178.191 297.42Z" fill="#100F0D"/>
<path d="M134.958 301.985C135.228 302.951 136.035 303.685 137.033 303.685H176.571C177.546 303.685 178.373 302.976 178.645 301.985H134.958Z" fill="#100F0D"/>
<path d="M143.611 288.134C143.611 291.518 141.114 294.25 138.05 294.25C137.388 294.25 136.752 294.127 136.163 293.895L137.348 287.449H143.577C143.597 287.672 143.611 287.903 143.611 288.134Z" fill="#100F0D"/>
<path d="M162.174 287.457H137.347C137.347 287.457 143.519 266.548 139.347 244.83C138.601 240.91 137.514 236.972 135.988 233.109C130.667 219.621 120.037 207.256 99.9534 201.065L119.179 171.522C119.179 171.522 157.193 184.11 168.624 220.892C175.869 244.211 162.174 287.457 162.174 287.457Z" fill="#2F2F2F"/>
<path d="M137.57 287.276H162.057C162.848 284.725 175.426 243.345 168.469 220.951C162.58 201.998 149.48 189.617 139.527 182.567C129.369 175.369 120.343 172.117 119.244 171.729L100.222 200.958C117.821 206.448 129.903 217.236 136.14 233.044C137.587 236.7 138.721 240.654 139.507 244.79C143.404 265.079 138.226 284.907 137.57 287.276ZM162.174 287.639H137.347C137.238 287.639 137.157 287.515 137.192 287.399C137.254 287.193 143.301 266.284 139.186 244.864C138.405 240.753 137.278 236.824 135.838 233.184C129.617 217.418 117.529 206.67 99.9093 201.239L99.7991 201.123L99.8201 200.958L119.047 171.415L119.228 171.349C119.323 171.382 128.878 174.593 139.704 182.262C149.701 189.344 162.859 201.784 168.78 220.835C175.959 243.948 162.466 287.086 162.329 287.515C162.306 287.589 162.244 287.639 162.174 287.639Z" fill="#2F2F2F"/>
<path d="M139.347 244.83C138.601 240.909 137.514 236.972 135.988 233.109L139.89 227.677C139.89 227.677 139.925 235.594 139.347 244.83Z" fill="#100F0D"/>
<path d="M152.682 278.979H152.649C152.561 278.955 152.504 278.864 152.521 278.765C159.381 241.562 149.144 216.163 139.346 201.404C128.728 185.415 116.326 178.118 116.203 178.052C116.122 178.002 116.091 177.895 116.134 177.804C116.176 177.713 116.275 177.688 116.355 177.73C116.479 177.804 128.938 185.126 139.602 201.181C145.864 210.607 150.293 221.165 152.767 232.548C155.857 246.779 155.882 262.355 152.843 278.839C152.827 278.922 152.759 278.979 152.682 278.979Z" fill="#100F0D"/>
<path d="M89.3406 174.725C89.3406 174.725 68.5082 194.965 86.2605 211.656C104.013 228.346 110.588 229.395 107.021 236.667C103.117 244.633 80.4071 278.79 80.4071 278.79L106.023 286.062C106.023 286.062 145.528 246.135 139.745 218.309C133.62 188.832 102.596 175.559 102.596 175.559" fill="#424242"/>
<path d="M105.983 286.243L80.3663 278.963C80.2523 278.93 80.2081 278.781 80.2748 278.682C80.5028 278.336 103.023 244.443 106.877 236.584C109.302 231.64 106.961 229.692 99.2075 223.237C95.7802 220.381 91.5152 216.831 86.1545 211.796C81.405 207.33 78.9759 202.188 78.9346 196.525C78.8491 184.812 89.1288 174.692 89.2331 174.593C89.3013 174.527 89.4048 174.527 89.4633 174.61C89.5233 174.684 89.518 174.791 89.4498 174.857C89.3471 174.956 79.1769 184.977 79.2616 196.525C79.3029 202.081 81.6937 207.124 86.3667 211.515C91.7199 216.551 95.982 220.1 99.4055 222.948C107.123 229.378 109.723 231.541 107.166 236.758C103.461 244.302 82.6177 275.76 80.682 278.682L105.978 285.864C106.852 284.972 116.271 275.24 124.926 262.512C133.254 250.262 142.558 232.655 139.585 218.35C136.434 203.178 126.533 192.406 118.784 186.034C110.376 179.125 102.615 175.757 102.537 175.724C102.453 175.691 102.411 175.584 102.444 175.493C102.477 175.402 102.573 175.353 102.656 175.394C102.734 175.427 110.53 178.803 118.972 185.737C126.769 192.142 136.73 202.989 139.906 218.268C142.906 232.713 133.556 250.419 125.184 262.726C116.127 276.049 106.233 286.095 106.135 286.202L105.983 286.243Z" fill="#100F0D"/>
<path d="M99.8397 274.959L99.8367 274.704C115.461 257.031 124.729 238.532 122.9 228.677C122.333 225.622 120.736 223.468 118.152 222.279C103.038 215.312 93.7718 206.53 90.6144 196.162C87.5074 185.959 91.6876 177.878 91.7296 177.796C91.7754 177.713 91.8751 177.68 91.9539 177.73C92.0319 177.788 92.0581 177.895 92.0131 177.977C91.9704 178.06 87.8651 186.009 90.9272 196.055C94.0553 206.315 103.259 215.032 118.279 221.941C120.968 223.179 122.631 225.424 123.222 228.602C125.1 238.731 116.013 256.923 100.071 274.959H99.8397Z" fill="#100F0D"/>
<path d="M179.039 149.351V174.172C168.13 175.806 158.3 175.905 149.907 175.113C143.791 174.527 138.441 173.47 133.989 172.183C132.715 171.803 131.51 171.423 130.388 171.019C127.713 170.053 125.477 169.013 123.729 167.981C122.683 167.362 121.813 166.751 121.123 166.157L134.749 179.191C134.749 179.191 116.936 180.693 99.139 179.81C81.3545 178.902 76.7564 191.498 76.7564 191.498C49.0244 182.426 74.9805 141.525 74.9805 141.525C55.6706 128.36 33.261 153.222 33.261 153.222L16.4312 137.629C26.0719 127.295 35.4059 120.798 44.3087 117.059C49.2966 114.971 54.1519 113.741 58.8466 113.204C80.0375 110.761 97.9961 122.202 110.64 130.258C144.717 151.976 154.414 150.118 179.039 149.351Z" fill="#0081DE"/>
<path d="M131.008 171.265C128.331 170.299 126.096 169.259 124.343 168.227L121.065 165.759C121.065 165.759 122.021 156.027 116.896 146.254L131.008 171.265Z" fill="#63B0E9"/>
<path d="M77.9267 143.35C63.5815 132.553 49.5745 141.195 49.4342 141.286C49.3562 141.327 49.2565 141.303 49.2107 141.22C49.1657 141.129 49.1927 141.022 49.2715 140.973C49.4124 140.882 63.5972 132.124 78.1119 143.053C78.1862 143.11 78.2057 143.226 78.1539 143.309C78.1037 143.391 78.0039 143.408 77.9267 143.35Z" fill="#100F0D"/>
<path d="M112.997 278.534L112.958 278.526L85.5403 271.121C85.4526 271.097 85.3986 271.006 85.4196 270.907C85.4413 270.808 85.5306 270.75 85.6176 270.775L113.036 278.179C113.124 278.204 113.177 278.303 113.156 278.393C113.138 278.476 113.071 278.534 112.997 278.534Z" fill="#100F0D"/>
<path d="M100.633 183.062C100.633 183.062 109.565 184.35 113.254 197.706L100.633 183.062Z" fill="#100F0D"/>
<path d="M164.466 279.499H164.459L139.327 278.393C139.237 278.393 139.167 278.311 139.171 278.212C139.174 278.113 139.246 278.038 139.334 278.038H139.341L164.472 279.136C164.562 279.144 164.634 279.227 164.629 279.326C164.626 279.425 164.554 279.499 164.466 279.499Z" fill="#100F0D"/>
<path d="M326.772 293.705L286.324 304.791C285.722 304.956 285.12 304.56 284.966 303.891C284.975 303.817 282.814 295.86 289.663 293.482L294.333 291.865L298.643 285.509L318.261 280.127L322.322 279.012C322.422 279.268 327.496 291.931 327.528 292.013C327.809 292.715 327.447 293.515 326.772 293.705Z" fill="black"/>
<path d="M318.019 280.16C318.003 280.011 318.098 279.879 318.231 279.863C318.363 279.854 318.486 279.945 318.504 280.094C318.849 283.098 321.765 284.815 324.163 283.618C324.283 283.552 324.429 283.618 324.485 283.75C324.541 283.891 324.486 284.048 324.364 284.105C321.677 285.451 318.407 283.536 318.019 280.16Z" fill="#100F0D"/>
<path d="M289.453 300.755C289.418 300.615 289.495 300.466 289.624 300.425L324.659 289.876C324.791 289.842 324.923 289.925 324.959 290.065C324.994 290.214 324.917 290.354 324.789 290.396L289.754 300.945C289.615 300.978 289.487 300.895 289.453 300.755Z" fill="#100F0D"/>
<path d="M298.979 288.571L297.208 287.729C297.084 287.671 297.027 287.514 297.081 287.374C297.135 287.234 297.28 287.176 297.401 287.234L299.173 288.076C299.297 288.134 299.354 288.299 299.3 288.431C299.245 288.571 299.099 288.629 298.979 288.571Z" fill="#100F0D"/>
<path d="M297.965 289.9L296.195 289.058C296.071 289 296.013 288.835 296.068 288.703C296.122 288.563 296.266 288.505 296.388 288.563L298.159 289.405C298.283 289.462 298.34 289.628 298.286 289.76C298.23 289.9 298.085 289.958 297.965 289.9Z" fill="#100F0D"/>
<path d="M296.951 291.229L295.18 290.388C295.056 290.322 294.999 290.165 295.053 290.033C295.107 289.892 295.254 289.834 295.374 289.892L297.144 290.734C297.268 290.792 297.325 290.949 297.272 291.089C297.217 291.229 297.071 291.287 296.951 291.229Z" fill="#100F0D"/>
<path d="M239.455 302.694C239.323 302.694 239.215 302.579 239.212 302.43C239.209 302.282 239.316 302.166 239.451 302.158L274.358 301.374C274.512 301.39 274.604 301.489 274.606 301.638C274.609 301.786 274.502 301.91 274.367 301.91L239.46 302.694H239.455Z" fill="#100F0D"/>
<path d="M252.365 292.005L250.774 290.8C250.663 290.717 250.635 290.552 250.71 290.428C250.788 290.304 250.938 290.271 251.05 290.354L252.641 291.559C252.753 291.642 252.781 291.807 252.705 291.93C252.627 292.054 252.475 292.079 252.365 292.005Z" fill="#100F0D"/>
<path d="M251.138 293.086L249.547 291.889C249.437 291.807 249.408 291.633 249.485 291.518C249.56 291.394 249.713 291.361 249.824 291.443L251.415 292.649C251.525 292.731 251.554 292.896 251.477 293.02C251.401 293.144 251.247 293.177 251.138 293.086Z" fill="#100F0D"/>
<path d="M249.911 294.176L248.32 292.979C248.209 292.897 248.18 292.723 248.257 292.608C248.333 292.484 248.484 292.451 248.596 292.534L250.187 293.739C250.297 293.821 250.326 293.986 250.25 294.11C250.172 294.234 250.02 294.259 249.911 294.176Z" fill="#100F0D"/>
<path d="M114.428 117.719C114.034 117.67 113.572 117.323 113.157 116.911C112.997 117.183 111.086 121.731 107.133 119.725L105.591 126.899C103.33 130.786 94.3098 129.094 94.7118 122.73C94.891 119.915 95.9634 111.504 95.9634 111.504C95.4797 107.971 94.4905 96.4146 102.556 96.5054C112.074 96.6128 117.157 103.811 115.528 108.111C115.528 108.111 115.419 110.39 114.76 112.932C115.153 114.773 115.644 117.885 114.428 117.719Z" fill="#FACCBD"/>
<path d="M105.59 127.171L105.531 127.163C105.4 127.122 105.321 126.981 105.353 126.833L106.936 119.915C106.972 119.75 107.134 119.659 107.275 119.734C110.301 121.269 112.115 118.768 112.926 117.142C112.986 117.026 113.028 116.911 113.165 116.894C113.234 116.886 113.306 116.911 113.359 116.96C113.692 117.29 114.475 117.967 114.773 117.604C115.13 117.167 115.051 115.541 114.561 113.238L114.564 113.105C115.208 110.629 115.324 108.367 115.325 108.351L115.343 108.26C115.91 106.758 115.611 104.859 114.521 103.035C112.809 100.179 108.776 97.0917 102.593 97.0256H102.505C100.586 97.0256 99.0655 97.719 97.9833 99.0893C94.817 103.093 96.2667 111.628 96.2442 111.793C96.2389 111.842 95.6307 116.605 95.2587 120.122C95.243 120.27 95.1275 120.378 94.9888 120.361C94.8545 120.345 94.7593 120.213 94.7743 120.064C95.1297 116.704 95.6975 112.222 95.7567 111.76C95.3802 108.986 94.8275 102.267 97.6151 98.7343C98.7941 97.2403 100.439 96.4809 102.504 96.4809L102.599 96.4891C108.973 96.5634 113.146 99.7662 114.928 102.738C116.099 104.694 116.418 106.766 115.808 108.425C115.79 108.764 115.651 110.844 115.051 113.188C115.415 114.913 116.034 118.438 114.437 118.24C114.104 118.198 113.71 117.976 113.264 117.579C111.801 120.378 109.66 121.376 107.339 120.345L105.827 126.965C105.799 127.089 105.7 127.171 105.59 127.171Z" fill="#100F0D"/>
<path d="M115.529 109.085C115.529 109.085 113.596 103.513 108.416 103.142C103.235 102.762 108.429 107.798 103.773 107.211C99.1183 106.625 98.5483 109.168 98.5483 109.168L94.8105 109.184C94.8105 109.184 87.4407 92.6092 99.35 96.2742C99.35 96.2742 113.534 84.6436 116.645 85.6424C122.49 87.5245 116.81 100.179 116.81 100.179C116.81 100.179 131 102.638 115.529 109.085Z" fill="#100F0D"/>
<path d="M108.02 116.316C107.479 116.06 107.084 115.524 106.845 114.731C106.803 114.591 106.873 114.434 107 114.393C107.129 114.343 107.267 114.418 107.308 114.566C107.501 115.21 107.805 115.631 108.212 115.821C108.853 116.135 109.551 115.78 109.559 115.78C109.68 115.714 109.826 115.771 109.883 115.904C109.939 116.044 109.886 116.201 109.764 116.267C109.275 116.514 108.569 116.58 108.02 116.316Z" fill="#100F0D"/>
<path d="M111.673 110.175C111.589 110.571 111.814 110.992 112.174 111.083C112.55 111.182 112.92 110.909 113.003 110.513C113.086 110.117 112.863 109.696 112.487 109.605C112.127 109.514 111.756 109.779 111.673 110.175Z" fill="#100F0D"/>
<path d="M113.537 108.83C113.535 108.822 113.277 108.095 112.716 107.897C112.362 107.765 111.94 107.889 111.465 108.235C111.355 108.318 111.202 108.285 111.127 108.161C111.052 108.046 111.082 107.872 111.193 107.79C111.797 107.344 112.362 107.204 112.869 107.385C113.655 107.666 113.98 108.599 113.994 108.64C114.041 108.78 113.977 108.937 113.851 108.987C113.728 109.036 113.586 108.97 113.537 108.83Z" fill="#100F0D"/>
<path d="M94.6464 109.3C94.2511 111.174 95.3071 113.039 97.0102 113.477C98.7126 113.906 100.409 112.742 100.804 110.868C101.2 108.995 100.144 107.129 98.4404 106.691C96.738 106.262 95.0416 107.426 94.6464 109.3Z" fill="#FACCBD"/>
<path d="M94.8834 109.358C94.5204 111.083 95.4983 112.808 97.065 113.213C98.6384 113.609 100.203 112.536 100.567 110.811C100.93 109.086 99.9516 107.36 98.3849 106.956C96.8063 106.56 95.2449 107.641 94.8834 109.358ZM96.9555 113.733C95.1264 113.271 93.9849 111.248 94.4087 109.234C94.8361 107.212 96.6675 105.965 98.4952 106.436C99.3824 106.659 100.135 107.253 100.616 108.103C101.097 108.954 101.248 109.952 101.042 110.935C100.617 112.949 98.7824 114.203 96.9555 113.733Z" fill="#100F0D"/>
<path d="M107.196 119.998C107.196 119.998 105.227 119.47 102.914 116.646C102.914 116.646 101.837 120.534 106.765 121.88L107.196 119.998Z" fill="#100F0D"/>
<path d="M103.073 117.224C103.035 117.72 103.064 118.495 103.471 119.28C104.015 120.328 105.062 121.087 106.588 121.55L106.902 120.179C106.338 119.965 104.83 119.238 103.073 117.224ZM106.706 122.136C104.914 121.649 103.68 120.774 103.043 119.535C102.281 118.066 102.666 116.63 102.681 116.564C102.736 116.374 102.963 116.308 103.096 116.465C105.321 119.181 107.237 119.734 107.255 119.742C107.39 119.775 107.465 119.932 107.432 120.064L107 121.938C106.967 122.086 106.835 122.169 106.706 122.136Z" fill="#100F0D"/>
<path d="M289.07 96.3405C289.07 97.5374 288.938 98.693 288.688 99.7991C288.338 101.343 288.227 102.936 288.227 104.529L288.279 107.17L280.938 118.19L277.597 111.265L277.656 107.368C270.744 108.73 269.744 102.49 268.953 96.1506C267.473 84.3054 272.758 83.48 278.56 83.48C284.369 83.48 289.07 89.2416 289.07 96.3405Z" fill="#FACCBD"/>
<path d="M277.597 111.529H277.594C277.459 111.529 277.351 111.405 277.354 111.257L277.408 107.691C275.3 108.046 273.644 107.715 272.353 106.684C269.957 104.768 269.286 100.798 268.713 96.1921C268.101 91.2972 268.591 87.9211 270.214 85.874C272.156 83.4224 275.402 83.216 278.56 83.216C284.489 83.216 289.313 89.1015 289.313 96.3489C289.313 99.692 288.47 100.088 288.47 104.529L288.523 107.162C288.526 107.311 288.419 107.435 288.285 107.435H288.279C288.147 107.435 288.038 107.319 288.036 107.171L287.983 104.537C287.983 100.055 288.826 99.5929 288.826 96.3489C288.826 89.3986 284.221 83.7526 278.56 83.7526C275.514 83.7526 272.39 83.9424 270.581 86.2289C269.057 88.1522 268.604 91.3879 269.196 96.1178C269.755 100.6 270.399 104.455 272.639 106.246C273.876 107.245 275.501 107.517 277.614 107.105C277.756 107.071 277.903 107.204 277.9 107.377L277.841 111.265C277.839 111.413 277.73 111.529 277.597 111.529Z" fill="#100F0D"/>
<path d="M268.703 90.1497C268.703 90.1497 271.372 94.0211 283.623 88.5979C283.623 88.5979 278.223 94.9126 285.295 94.277C287.185 95.3005 288.074 97.5705 288.553 100.336C288.553 100.336 298.697 77.9991 288.126 82.7867C288.126 82.7867 273.714 75.7291 269.141 82.9436C266.606 86.947 268.703 90.1497 268.703 90.1497Z" fill="#100F0D"/>
<path d="M285.295 94.013L285.403 94.0378C287.003 94.9045 288.042 96.6545 288.645 99.5105C289.891 96.6215 294.357 85.6843 292.063 82.9685C291.384 82.1596 290.09 82.1843 288.218 83.0346L288.026 83.0263C287.885 82.9603 273.747 76.1503 269.343 83.1006C266.977 86.8316 268.809 89.8528 268.897 89.9931C268.988 90.1087 271.814 93.5426 283.533 88.3505C283.771 88.2432 283.98 88.5733 283.8 88.788C283.119 89.5804 281.466 91.9164 282 93.1381C282.32 93.8727 283.455 94.1781 285.275 94.013H285.295ZM288.314 100.386C287.779 97.2901 286.803 95.4328 285.247 94.5578C283.19 94.7312 281.982 94.3432 281.56 93.3775C281.015 92.1228 282.076 90.2903 282.817 89.2337C271.298 94.0956 268.62 90.4801 268.509 90.315L268.505 90.3068C268.483 90.2738 266.337 86.8977 268.942 82.7869C273.429 75.7046 286.755 81.8377 288.129 82.4898C290.158 81.5983 291.601 81.6313 292.42 82.6053C295.287 85.9979 289.04 99.8737 288.773 100.46C288.668 100.683 288.359 100.641 288.314 100.386Z" fill="#100F0D"/>
<path d="M289.762 97.042C289.762 98.6434 288.575 99.9476 287.117 99.9476C285.653 99.9476 284.473 98.6434 284.473 97.042C284.473 95.4242 285.653 94.1282 287.117 94.1282C288.575 94.1282 289.762 95.4242 289.762 97.042Z" fill="#FACCBD"/>
<path d="M287.117 94.4009C285.793 94.4009 284.717 95.5812 284.717 97.0423C284.717 98.4951 285.793 99.6837 287.117 99.6837C288.441 99.6837 289.519 98.4951 289.519 97.0423C289.519 95.5812 288.441 94.4009 287.117 94.4009ZM287.117 100.22C285.524 100.22 284.23 98.7922 284.23 97.0423C284.23 95.2841 285.524 93.8643 287.117 93.8643C288.709 93.8643 290.006 95.2841 290.006 97.0423C290.006 98.7922 288.709 100.22 287.117 100.22Z" fill="#100F0D"/>
<path d="M277.818 98.4784C277.818 98.9242 277.486 99.2874 277.084 99.2874C276.675 99.2874 276.344 98.9242 276.344 98.4784C276.344 98.0327 276.675 97.6695 277.084 97.6695C277.486 97.6695 277.818 98.0327 277.818 98.4784Z" fill="#100F0D"/>
<path d="M271.402 98.082C271.402 98.536 271.071 98.8992 270.668 98.8992C270.26 98.8992 269.928 98.536 269.928 98.082C269.928 97.6446 270.26 97.2731 270.668 97.2731C271.071 97.2731 271.402 97.6446 271.402 98.082Z" fill="#100F0D"/>
<path d="M274.124 103.893C273.419 103.819 273.021 103.184 273.005 103.151C272.929 103.027 272.959 102.862 273.072 102.779C273.182 102.697 273.334 102.73 273.409 102.853C273.417 102.862 273.704 103.316 274.171 103.357C274.55 103.39 274.959 103.159 275.39 102.664C275.483 102.556 275.637 102.556 275.735 102.664C275.832 102.763 275.835 102.936 275.741 103.043C275.307 103.538 274.743 103.959 274.124 103.893Z" fill="#100F0D"/>
<path d="M277.674 107.393C278.886 107.146 280.518 106.568 282.206 105.817C281.364 108.293 279.609 109.952 277.618 109.862L277.674 107.393Z" fill="#100F0D"/>
<path d="M277.913 107.616L277.868 109.597C279.445 109.548 280.914 108.293 281.759 106.304C280.312 106.923 278.971 107.377 277.913 107.616ZM277.608 110.125C277.476 110.125 277.372 110.002 277.376 109.853L277.431 107.385C277.433 107.261 277.517 107.154 277.63 107.129C278.81 106.89 280.403 106.337 282.116 105.569C282.304 105.478 282.511 105.693 282.436 105.916C281.427 108.879 279.376 110.224 277.608 110.125Z" fill="#100F0D"/>
<path d="M269.879 95.2424C268.454 95.2424 267.293 96.5136 267.293 98.0902C267.293 99.6585 268.454 100.93 269.879 100.93C271.305 100.93 272.465 99.6585 272.465 98.0902C272.465 96.5136 271.305 95.2424 269.879 95.2424ZM269.879 101.466C268.185 101.466 266.806 99.9557 266.806 98.0902C266.806 96.2247 268.185 94.7058 269.879 94.7058C271.574 94.7058 272.952 96.2247 272.952 98.0902C272.952 99.9557 271.574 101.466 269.879 101.466Z" fill="#100F0D"/>
<path d="M277.746 95.2424C276.32 95.2424 275.16 96.5136 275.16 98.0902C275.16 99.6585 276.32 100.93 277.746 100.93C279.171 100.93 280.331 99.6585 280.331 98.0902C280.331 96.5136 279.171 95.2424 277.746 95.2424ZM277.746 101.466C276.051 101.466 274.672 99.9557 274.672 98.0902C274.672 96.2247 276.051 94.7058 277.746 94.7058C279.441 94.7058 280.818 96.2247 280.818 98.0902C280.818 99.9557 279.441 101.466 277.746 101.466Z" fill="#100F0D"/>
<path d="M279.396 94.285C278.458 93.4431 277.662 93.4348 276.886 94.2685C276.791 94.3758 276.636 94.3675 276.541 94.2602C276.447 94.1529 276.449 93.9879 276.545 93.8806C277.491 92.8735 278.583 92.8652 279.704 93.864C279.809 93.9631 279.824 94.1282 279.739 94.2438C279.653 94.3593 279.498 94.3758 279.396 94.285Z" fill="#100F0D"/>
<path d="M271.955 93.7236C271.016 92.8816 270.218 92.8817 269.445 93.7071C269.349 93.8144 269.195 93.8144 269.1 93.7071C269.006 93.5998 269.009 93.4265 269.105 93.3274C270.05 92.3121 271.143 92.3038 272.263 93.3109C272.368 93.4017 272.384 93.575 272.298 93.6906C272.212 93.8062 272.057 93.8144 271.955 93.7236Z" fill="#100F0D"/>
<path d="M274.102 101.673C273.414 101.665 273.304 101.615 273.166 101.549C272.793 101.384 272.668 101.021 273.042 100.517C273.546 99.8323 273.685 99.0894 273.445 98.3878C273.398 98.2475 273.463 98.0989 273.589 98.0411C273.716 97.9916 273.856 98.0576 273.903 98.1979C274.206 99.0894 274.04 100.006 273.421 100.848C273.347 100.955 273.319 101.004 273.307 101.037C273.565 101.128 273.664 101.137 274.102 101.137C274.236 101.137 274.345 101.26 274.345 101.409C274.345 101.558 274.236 101.673 274.102 101.673Z" fill="#100F0D"/>
<path d="M272.449 97.5456C272.359 97.4301 272.367 97.265 272.467 97.1659C273.281 96.357 274.183 96.3157 275.153 97.0586C275.263 97.1412 275.291 97.3063 275.214 97.4301C275.136 97.5539 274.984 97.5786 274.875 97.4961C274.097 96.9018 273.435 96.9265 272.794 97.5621C272.698 97.6612 272.542 97.6529 272.449 97.5456Z" fill="#100F0D"/>
<path d="M279.945 96.5802C279.903 96.4398 279.972 96.2913 280.101 96.2417L286.414 93.9553C286.542 93.9057 286.679 93.9883 286.721 94.1286C286.763 94.2689 286.694 94.4175 286.566 94.467L280.253 96.7535C280.135 96.803 279.988 96.7287 279.945 96.5802Z" fill="#100F0D"/>
<path d="M266.838 97.7104C266.815 97.5701 266.904 97.4298 267.036 97.405L269.056 97.0088C269.194 96.984 269.316 97.0831 269.338 97.2316C269.361 97.372 269.273 97.5123 269.14 97.5371L267.12 97.9333C266.995 97.958 266.862 97.8673 266.838 97.7104Z" fill="#100F0D"/>
<path d="M25.1682 129.21L37.4863 145.24L25.1682 129.21Z" fill="white"/>
<path d="M37.2995 145.413L24.9814 129.383C24.8952 129.276 24.9072 129.102 25.0107 129.003C25.1127 128.912 25.2672 128.929 25.3542 129.036L37.6723 145.067C37.7585 145.182 37.7458 145.347 37.643 145.446C37.5433 145.537 37.388 145.529 37.2995 145.413Z" fill="#100F0D"/>
<path d="M23.6236 134.485C22.9059 134.485 22.3217 135.128 22.3217 135.913C22.3217 136.705 22.9059 137.349 23.6236 137.349C24.3458 137.349 24.9323 136.705 24.9323 135.913C24.9323 135.128 24.3458 134.485 23.6236 134.485ZM23.6236 137.885C22.6374 137.885 21.835 137.002 21.835 135.913C21.835 134.831 22.6374 133.948 23.6236 133.948C24.6151 133.948 25.4198 134.831 25.4198 135.913C25.4198 137.002 24.6151 137.885 23.6236 137.885Z" fill="#100F0D"/>
<path d="M165.633 172.084C165.504 172.043 165.425 171.894 165.458 171.754L170.503 150.597C170.538 150.457 170.669 150.375 170.801 150.408C170.931 150.449 171.01 150.589 170.975 150.738L165.931 171.886C165.896 172.034 165.761 172.117 165.633 172.084Z" fill="#100F0D"/>
<path d="M173.303 166.083C172.499 166.083 171.845 166.801 171.845 167.676C171.845 168.567 172.499 169.286 173.303 169.286C174.104 169.286 174.755 168.567 174.755 167.676C174.755 166.801 174.104 166.083 173.303 166.083ZM173.303 169.822C172.23 169.822 171.357 168.856 171.357 167.676C171.357 166.504 172.23 165.546 173.303 165.546C174.372 165.546 175.242 166.504 175.242 167.676C175.242 168.856 174.372 169.822 173.303 169.822Z" fill="#100F0D"/>
<path d="M211.022 173.008H211.01C210.875 173 210.772 172.876 210.779 172.728L211.783 150.655C211.789 150.507 211.9 150.391 212.038 150.399C212.173 150.407 212.276 150.531 212.269 150.68L211.266 172.752C211.259 172.893 211.152 173.008 211.022 173.008Z" fill="#100F0D"/>
<path d="M205.781 155.038C204.977 155.038 204.323 155.756 204.323 156.631C204.323 157.522 204.977 158.241 205.781 158.241C206.582 158.241 207.234 157.522 207.234 156.631C207.234 155.756 206.582 155.038 205.781 155.038ZM205.781 158.777C204.708 158.777 203.835 157.82 203.835 156.631C203.835 155.459 204.708 154.501 205.781 154.501C206.851 154.501 207.721 155.459 207.721 156.631C207.721 157.82 206.851 158.777 205.781 158.777Z" fill="#100F0D"/>
<path d="M59.4643 113.451C58.1481 117.19 54.846 119.848 50.9799 119.848C48.6536 119.848 46.5357 118.89 44.9263 117.306C49.9143 115.217 54.7695 113.987 59.4643 113.451Z" fill="#63B0E9"/>
<path d="M150.525 175.359C144.409 174.773 139.058 173.716 134.607 172.429C136.509 169.63 139.685 168.021 143.057 168.508C146.652 169.028 149.473 171.801 150.525 175.359Z" fill="#63B0E9"/>
<path d="M108.312 156.886C108.312 161.657 103.846 165.52 98.3432 165.52C92.84 165.52 88.3748 161.657 88.3748 156.886C88.3748 152.115 92.84 148.243 98.3432 148.243C103.846 148.243 108.312 152.115 108.312 156.886Z" fill="#63B0E9"/>
<path d="M302.47 54.7298C302.36 54.639 302.338 54.4739 302.416 54.3501C303.905 52.1214 303.467 49.0094 301.45 47.375C299.431 45.7406 296.596 46.2194 295.111 48.4399C295.031 48.5637 294.878 48.5885 294.77 48.4977C294.662 48.4069 294.638 48.2418 294.718 48.1262C296.387 45.6251 299.541 45.1629 301.738 46.9376C303.975 48.7536 304.455 52.204 302.81 54.672C302.73 54.7959 302.575 54.8124 302.47 54.7298Z" fill="#100F0D"/>
<path d="M209.822 221.875C209.713 221.784 209.689 221.619 209.769 221.495C211.257 219.266 210.819 216.155 208.802 214.52C206.789 212.886 203.952 213.356 202.463 215.585C202.384 215.709 202.232 215.734 202.122 215.643C202.014 215.552 201.99 215.387 202.07 215.271C203.742 212.762 206.896 212.308 209.09 214.091C211.327 215.899 211.808 219.349 210.163 221.817C210.082 221.941 209.928 221.957 209.822 221.875Z" fill="#100F0D"/>
<path d="M64.029 87.2276C61.8594 85.3291 61.4927 81.8457 63.2116 79.4601C64.9425 77.0581 68.1013 76.6701 70.2694 78.5604C70.3744 78.6512 70.3924 78.8246 70.3084 78.9401C70.2245 79.0557 70.0715 79.0722 69.9657 78.9814C68.0128 77.281 65.157 77.6194 63.594 79.7986C62.0416 81.953 62.3731 85.098 64.3335 86.8066C64.4385 86.8974 64.4565 87.0708 64.3725 87.1864C64.2885 87.3019 64.134 87.3184 64.029 87.2276Z" fill="#100F0D"/>
<path d="M246.651 168.361C241.545 171.184 236.111 173.173 230.553 174.577C230.894 169.261 234.92 165.076 239.825 165.076C242.527 165.076 244.959 166.339 246.651 168.361Z" fill="#0581DB"/>
<path d="M27.7522 185.432L27.7287 187.105L29.3796 187.342L29.3511 189.368L27.6021 189.117C27.4082 190.486 26.9635 191.437 26.2681 191.969C25.5836 192.503 24.5548 192.672 23.1817 192.475L23.1653 193.641C23.1557 194.331 23.2515 194.889 23.453 195.315C23.6654 195.743 24.0277 195.993 24.5399 196.067C25.0302 196.137 25.387 196.004 25.6101 195.669C25.8334 195.318 25.9501 194.784 25.9602 194.065L28.0852 194.37C28.0426 195.849 27.716 196.942 27.1055 197.648C26.4952 198.34 25.6343 198.606 24.5228 198.446C23.3677 198.281 22.4909 197.736 21.8924 196.812C21.2939 195.887 21.0059 194.626 21.0283 193.026L21.0695 190.098C22.2355 190.265 23.0969 190.352 23.6537 190.359C24.2107 190.35 24.6273 190.234 24.9034 190.009C25.1796 189.784 25.3654 189.384 25.4608 188.809L20.5733 188.108L20.6018 186.083L25.571 186.796L25.5945 185.123L20.6253 184.409L20.6556 182.252L29.4334 183.512L29.4031 185.669L27.7522 185.432Z" fill="white"/>
<path d="M195.236 112.015C194.894 112.451 194.393 112.7 193.862 112.7H183.843C183.153 112.7 182.52 112.276 182.208 111.591L180.889 108.678H183.853C183.899 108.751 183.94 108.829 183.981 108.908C184.267 109.489 184.39 110.174 184.773 110.689C185.305 111.409 186.205 111.621 187.042 111.743C188.664 111.979 190.309 112.033 191.944 111.894C192.726 111.821 193.514 111.718 194.296 111.797C194.613 111.827 194.935 111.9 195.236 112.015Z" fill="#D1D4EE"/>
<path d="M226.821 53.7C226.821 70.1503 216.974 84.2203 203.044 89.9803H174.952C161.013 84.2203 151.179 70.1503 151.179 53.7C151.179 32.1196 168.11 12.2169 188.998 12.2169C209.877 12.2169 226.821 32.1196 226.821 53.7Z" fill="#FFEBD0"/>
<path d="M174.984 89.7862H203.012C217.367 83.8324 226.642 69.6716 226.642 53.6998C226.642 31.7075 209.051 12.4165 188.998 12.4165C168.947 12.4165 151.358 31.7075 151.358 53.6998C151.358 69.6776 160.631 83.8385 174.984 89.7862ZM203.044 90.1799H174.951L174.888 90.1678C160.377 84.1716 151 69.8533 151 53.6998C151 32.3192 167.729 12.0228 188.998 12.0228C210.249 12.0228 227 32.3071 227 53.6998C227 69.8533 217.621 84.1655 203.107 90.1678L203.044 90.1799Z" fill="#100F0D"/>
<path d="M216.469 53.2759C216.469 69.9745 204.173 83.5115 189 83.5115C173.831 83.5115 161.531 69.9745 161.531 53.2759C161.531 36.5833 173.831 23.0403 189 23.0403C204.173 23.0403 216.469 36.5833 216.469 53.2759Z" fill="#FAB95F"/>
<path d="M203.045 105.213V89.9804H174.953V105.213C174.953 107.127 176.362 108.678 178.099 108.678H199.899C201.636 108.678 203.045 107.127 203.045 105.213Z" fill="#FFD9A6"/>
<path d="M175.132 90.1803V105.213C175.132 107.012 176.464 108.478 178.1 108.478H199.9C201.535 108.478 202.867 107.012 202.867 105.213V90.1803H175.132ZM199.9 108.872H178.1C176.266 108.872 174.774 107.23 174.774 105.213V89.9804C174.774 89.8714 174.854 89.7866 174.953 89.7866H203.046C203.145 89.7866 203.225 89.8714 203.225 89.9804V105.213C203.225 107.23 201.733 108.872 199.9 108.872Z" fill="#100F0D"/>
<path d="M203.046 97.0063H174.953C174.854 97.0063 174.774 96.9154 174.774 96.8064C174.774 96.7034 174.854 96.6126 174.953 96.6126H203.046C203.145 96.6126 203.225 96.7034 203.225 96.8064C203.225 96.9154 203.145 97.0063 203.046 97.0063Z" fill="#100F0D"/>
<path d="M203.046 100.561H174.953C174.854 100.561 174.774 100.477 174.774 100.368C174.774 100.259 174.854 100.174 174.953 100.174H203.046C203.145 100.174 203.225 100.259 203.225 100.368C203.225 100.477 203.145 100.561 203.046 100.561Z" fill="#100F0D"/>
<path d="M203.046 104.123H174.953C174.854 104.123 174.774 104.032 174.774 103.923C174.774 103.82 174.854 103.729 174.953 103.729H203.046C203.145 103.729 203.225 103.82 203.225 103.923C203.225 104.032 203.145 104.123 203.046 104.123Z" fill="#100F0D"/>
<path d="M179.42 43.7242C176.711 43.7242 174.725 46.0137 174.725 48.5636C174.725 51.2286 176.832 53.397 179.42 53.397H184.115V48.5636C184.115 46.0137 182.13 43.7242 179.42 43.7242ZM184.294 53.7906H179.42C176.634 53.7906 174.368 51.4466 174.368 48.5636C174.368 45.7654 176.537 43.3305 179.42 43.3305C182.302 43.3305 184.473 45.7654 184.473 48.5636V53.5968C184.473 53.7058 184.393 53.7906 184.294 53.7906Z" fill="#100F0D"/>
<path d="M193.883 53.397H198.578C201.167 53.397 203.273 51.2286 203.273 48.5636C203.273 46.0137 201.287 43.7242 198.578 43.7242C195.868 43.7242 193.883 46.0137 193.883 48.5636V53.397ZM198.578 53.7906H193.704C193.606 53.7906 193.526 53.7058 193.526 53.5968V48.5636C193.526 45.7654 195.695 43.3305 198.578 43.3305C201.464 43.3305 203.631 45.7714 203.631 48.5636C203.631 51.4466 201.365 53.7906 198.578 53.7906Z" fill="#100F0D"/>
<path d="M184.473 89.7862H193.526V53.7906H184.473V89.7862ZM193.704 90.1799H184.294C184.195 90.1799 184.115 90.0891 184.115 89.9801V53.5968C184.115 53.4878 184.195 53.3969 184.294 53.3969H193.704C193.803 53.3969 193.883 53.4878 193.883 53.5968V89.9801C193.883 90.0891 193.803 90.1799 193.704 90.1799Z" fill="#100F0D"/>
<path d="M188.999 7.50446C188.9 7.50446 188.821 7.41362 188.821 7.30459V0.199935C188.821 0.0909128 188.9 7.24792e-05 188.999 7.24792e-05C189.098 7.24792e-05 189.178 0.0909128 189.178 0.199935V7.30459C189.178 7.41362 189.098 7.50446 188.999 7.50446Z" fill="#100F0D"/>
<path d="M211.509 13.7313C211.425 13.6768 211.398 13.5557 211.45 13.4588L214.891 7.30505C214.942 7.2142 215.052 7.18391 215.137 7.23842C215.221 7.29898 215.247 7.42012 215.195 7.51097L211.755 13.6647C211.704 13.7616 211.594 13.7858 211.509 13.7313Z" fill="#100F0D"/>
<path d="M166.244 13.6647L162.803 7.51097C162.751 7.42012 162.778 7.29898 162.862 7.23842C162.946 7.18391 163.056 7.2142 163.108 7.30505L166.548 13.4588C166.601 13.5557 166.574 13.6768 166.49 13.7313C166.405 13.7858 166.295 13.7616 166.244 13.6647Z" fill="#100F0D"/>
<path d="M181.178 108.877L182.367 111.506C182.65 112.124 183.215 112.505 183.843 112.505H193.862C194.339 112.505 194.791 112.281 195.102 111.888C195.192 111.773 195.269 111.645 195.332 111.506L196.526 108.877H181.178ZM193.862 112.899H183.843C183.079 112.899 182.391 112.433 182.048 111.682L180.728 108.768C180.701 108.708 180.704 108.635 180.736 108.575C180.769 108.52 180.826 108.484 180.889 108.484H196.816C196.877 108.484 196.936 108.52 196.968 108.575C197.001 108.635 197.003 108.708 196.976 108.768L195.652 111.682C195.576 111.851 195.482 112.003 195.371 112.142C194.993 112.627 194.442 112.899 193.862 112.899Z" fill="#100F0D"/>
</g>
<defs>
<clipPath id="clip0_1979_947">
<rect width="360" height="306" fill="white"/>
</clipPath>
</defs>
</svg>
