<svg width="360" height="270" viewBox="0 0 360 270" fill="none" xmlns="http://www.w3.org/2000/svg">
<g clip-path="url(#clip0_1975_16458)">
<path d="M238.297 249.302C238.396 249.302 238.481 249.23 238.493 249.127C238.505 249.018 238.427 248.922 238.32 248.909L220.153 246.825C220.036 246.813 219.947 246.892 219.935 247.001C219.922 247.109 220 247.206 220.108 247.218L238.275 249.302H238.297Z" fill="#100F0D"/>
<path d="M258.651 217.233C258.76 217.233 258.847 217.142 258.848 217.039C258.848 216.931 258.761 216.84 258.653 216.84C193.999 216.453 127.292 204.191 82.7158 193.976C34.4186 182.904 0.984314 171.783 0.652679 171.668C0.550598 171.632 0.438232 171.692 0.403809 171.795C0.369354 171.898 0.425537 172.006 0.527618 172.043C0.859863 172.151 34.3122 183.284 82.6288 194.357C127.223 204.584 193.961 216.846 258.65 217.233H258.651Z" fill="#100F0D"/>
<path d="M234.898 264.241C235.007 264.241 235.094 264.156 235.095 264.047C235.096 263.939 235.008 263.848 234.9 263.848C170.247 263.461 103.542 251.205 58.9682 240.984C10.6691 229.912 -22.7687 218.791 -23.101 218.676C-23.2025 218.646 -23.3148 218.7 -23.3492 218.803C-23.3837 218.906 -23.3281 219.015 -23.2254 219.051C-22.8932 219.16 10.5592 230.292 58.8751 241.365C103.471 251.592 170.208 263.86 234.897 264.241H234.898Z" fill="#100F0D"/>
<path d="M109.999 78.3642C109.999 78.3642 111.954 80.7201 110.83 82.5142C109.707 84.3022 103.822 81.1248 103.822 81.1248L109.999 78.3642Z" fill="#100F0D"/>
<path d="M68.2712 60.8102C68.2712 60.8102 74.0937 55.5247 73.1544 54.0689C71.9952 52.2688 68.2869 55.9475 68.2869 55.9475C68.2869 55.9475 66.6444 52.4319 67.8296 49.2666C69.0148 46.0952 64.9893 46.7053 64.6697 53.5856C64.6697 53.5856 64.4136 51.1634 64.9627 47.841C65.5106 44.5126 61.4815 46.204 61.8101 53.7608C61.8101 53.7608 61.0973 52.9997 60.837 50.5653C60.5766 48.1249 56.7565 50.3055 59.9689 60.4598L68.2712 60.8102Z" fill="#FACCBD"/>
<path d="M72.9894 54.1777C73.6019 55.1261 70.401 58.5994 68.1986 60.611L60.1144 60.2667C58.1137 53.8636 58.957 50.8312 59.778 50.0459C60.2413 49.605 60.5747 49.9553 60.6417 50.5835C60.9063 53.0602 61.6367 53.8576 61.6669 53.8938C61.7901 54.0267 62.0148 53.9301 62.0063 53.7488C61.8149 49.3513 63.1178 47.0135 64.0396 46.5122C64.7663 46.1135 64.9034 46.9894 64.7681 47.8109C64.222 51.1212 64.4721 53.5857 64.4751 53.6099C64.486 53.7126 64.5537 53.7851 64.6763 53.7851C64.779 53.779 64.8617 53.7005 64.866 53.5978C65.0532 49.5627 66.4673 47.9619 67.1892 47.678C67.9751 47.3639 67.9533 48.3727 67.6452 49.1942C66.4456 52.4078 68.0403 55.8872 68.1092 56.0322C68.1666 56.153 68.3291 56.1832 68.4251 56.0866C69.5058 55.0053 72.1594 52.885 72.9894 54.1777ZM68.2711 61.0036L68.4034 60.9553C69.0117 60.3996 74.3202 55.5127 73.3198 53.9603C72.3092 52.3957 69.7178 54.3468 68.3581 55.6093C68.0192 54.7576 67.0521 51.9065 68.0137 49.3332C68.6462 47.6418 67.8597 46.9894 67.046 47.3095C66.3985 47.5633 65.3873 48.5841 64.8382 50.8614C64.8793 50.0037 64.9717 48.9888 65.1565 47.8713C65.4308 46.2041 64.6062 45.7571 63.8524 46.1618C62.7197 46.784 61.5805 49.1519 61.595 52.9756C61.3938 52.4984 61.1588 51.7252 61.032 50.5413C60.9136 49.4358 60.1229 49.1761 59.5055 49.762C58.3983 50.8191 57.8063 54.2743 59.781 60.5204C59.8063 60.5989 59.8782 60.6533 59.9604 60.6533L68.2626 61.0036H68.2711Z" fill="#100F0D"/>
<path d="M151.159 66.0292C151.159 66.0292 144.788 61.4263 145.56 59.8738C146.513 57.9589 150.605 61.2027 150.605 61.2027C150.605 61.2027 151.849 57.53 150.321 54.5097C148.793 51.4894 152.861 51.6525 153.939 58.4543C153.939 58.4543 153.926 56.0199 153.013 52.7761C152.101 49.5323 156.292 50.7706 156.801 58.3093C156.801 58.3093 157.425 57.4817 157.414 55.0292C157.404 52.5767 161.695 55.3675 159.625 65.8117L151.159 66.0292Z" fill="#FACCBD"/>
<path d="M159.462 65.6246L151.22 65.83C148.809 64.0843 145.231 60.9734 145.736 59.9585C145.862 59.7048 146.055 59.5538 146.325 59.4934C147.727 59.1853 150.456 61.3358 150.483 61.354C150.59 61.4446 150.748 61.3902 150.791 61.2634C150.843 61.1123 152.044 57.4758 150.496 54.4193C150.103 53.6461 149.971 52.6433 150.782 52.8608C151.53 53.0601 153.113 54.4978 153.745 58.4847C153.785 58.7323 154.137 58.69 154.136 58.4545C154.136 58.4303 154.112 55.9536 153.202 52.7219C152.976 51.9185 153.022 51.0426 153.783 51.3506C154.755 51.7493 156.308 53.93 156.604 58.3216C156.617 58.5028 156.85 58.5752 156.958 58.4303C156.984 58.394 157.622 57.5181 157.611 55.0233C157.608 54.4495 157.842 54.2019 158.307 54.5583C159.468 55.4402 160.721 59.1189 159.462 65.6246ZM151.159 66.2287H151.164L159.63 66.0113C159.722 66.0113 159.8 65.9448 159.817 65.8542C161.265 58.5451 159.619 55.0657 158.546 54.2441C157.882 53.7367 157.213 54.0327 157.218 55.0294C157.223 56.2194 157.075 57.0107 156.928 57.5121C156.52 53.7125 155.124 51.4775 153.931 50.9882C153.138 50.6681 152.367 51.1996 152.824 52.8306C153.13 53.9179 153.334 54.9146 153.471 55.7603C152.674 53.5615 151.555 52.6615 150.884 52.4803C150.039 52.2507 149.33 52.9876 150.146 54.6005C151.388 57.053 150.74 59.9888 150.497 60.8767C149.004 59.7653 146.215 58.1162 145.384 59.7834C144.561 61.4385 150.378 65.7093 151.043 66.1865L151.159 66.2287Z" fill="#100F0D"/>
<path d="M183.435 247.786L193.85 256.05C194.488 256.551 195.416 256.448 195.924 255.808L198.576 252.468C198.76 252.238 198.87 251.918 198.885 251.574L199.05 247.381C199.069 246.892 199.369 246.512 199.733 246.518L202.849 246.578C203.103 246.584 203.347 246.457 203.531 246.228L217.122 229.103C217.586 228.523 217.545 227.598 217.042 227.049C214.31 224.065 210.405 223.666 207.425 226.372C201.146 231.507 203.312 229.737 202.843 230.123L198.736 228.221L183.435 247.786Z" fill="#F8A330"/>
<path d="M199.725 246.324C199.26 246.324 198.877 246.783 198.853 247.369L198.688 251.568C198.676 251.87 198.581 252.148 198.421 252.347L195.769 255.687C195.331 256.237 194.524 256.334 193.971 255.899L183.71 247.75L198.793 228.462L202.761 230.299C202.83 230.329 202.91 230.323 202.967 230.274L207.548 226.523C210.478 223.865 214.255 224.3 216.898 227.182C217.34 227.665 217.372 228.474 216.967 228.982L203.377 246.107C203.233 246.288 203.042 246.367 202.852 246.379C201.857 246.361 199.579 246.318 199.725 246.324ZM196.077 255.935L198.73 252.595C198.94 252.329 199.065 251.966 199.081 251.58L199.245 247.387C199.261 247.013 199.493 246.699 199.73 246.717L202.844 246.771L202.863 246.777C203.174 246.777 203.465 246.626 203.684 246.355L217.276 229.223C217.795 228.571 217.755 227.538 217.187 226.916C214.408 223.883 210.38 223.424 207.293 226.227C201.155 231.247 203.272 229.513 202.815 229.888L198.817 228.045C198.735 228.003 198.636 228.027 198.581 228.1L183.28 247.665C183.213 247.75 183.228 247.871 183.312 247.937L193.728 256.207C194.451 256.775 195.504 256.654 196.077 255.935Z" fill="#F8A330"/>
<path d="M192.612 236.061L187.762 251.217L183.436 247.78L192.612 236.061Z" fill="#100F0D"/>
<path d="M192.091 237.046L187.662 250.885L183.712 247.75L192.091 237.046ZM187.949 251.278L192.799 236.122C192.828 236.031 192.788 235.935 192.704 235.886C192.621 235.844 192.516 235.868 192.458 235.941L183.282 247.659C183.215 247.744 183.23 247.871 183.314 247.937L187.64 251.368C187.743 251.453 187.905 251.411 187.949 251.278Z" fill="#100F0D"/>
<path d="M192.972 255.349L193.851 256.05C194.489 256.557 195.417 256.448 195.923 255.808L198.576 252.468C198.76 252.238 198.869 251.918 198.883 251.574L199.035 247.714L192.972 255.349Z" fill="#100F0D"/>
<path d="M198.815 248.306L198.688 251.568C198.676 251.87 198.581 252.148 198.422 252.347L195.769 255.688C195.34 256.231 194.537 256.346 193.974 255.893L193.248 255.319L198.815 248.306ZM196.077 255.935L198.731 252.589C198.94 252.323 199.065 251.967 199.08 251.58L199.231 247.72C199.239 247.533 198.999 247.442 198.881 247.593L192.818 255.228C192.75 255.313 192.765 255.44 192.849 255.506L193.729 256.201C194.451 256.775 195.501 256.66 196.077 255.935Z" fill="#100F0D"/>
<path d="M199.978 246.524L202.849 246.578C203.103 246.584 203.346 246.457 203.531 246.228L217.121 229.102C217.564 228.547 217.523 227.574 217.042 227.049C216.747 226.728 216.438 226.444 216.121 226.185L199.978 246.524Z" fill="#100F0D"/>
<path d="M216.149 226.463C216.425 226.699 216.671 226.934 216.897 227.182C217.316 227.641 217.35 228.499 216.967 228.982L203.377 246.107C203.232 246.288 203.058 246.397 202.852 246.385L200.379 246.337L216.149 226.463ZM202.864 246.778C203.174 246.778 203.465 246.627 203.685 246.349L217.275 229.224C217.776 228.595 217.734 227.514 217.187 226.916C216.907 226.614 216.599 226.324 216.245 226.034C216.162 225.968 216.036 225.974 215.966 226.064L199.824 246.403C199.723 246.53 199.813 246.717 199.974 246.717L202.844 246.778H202.864Z" fill="#100F0D"/>
<path d="M207.061 226.668C209.208 228.42 212.454 227.363 213.178 224.705C211.214 224.27 209.155 224.802 207.425 226.372L207.061 226.668Z" fill="#100F0D"/>
<path d="M212.928 224.856C212.152 227.158 209.361 228.07 207.379 226.662L207.548 226.523C209.133 225.086 211.03 224.5 212.928 224.856ZM213.368 224.759C213.397 224.651 213.332 224.542 213.221 224.512C211.129 224.053 209.024 224.657 207.293 226.227L206.938 226.511C206.842 226.59 206.84 226.741 206.937 226.819C209.189 228.662 212.604 227.556 213.368 224.759Z" fill="#100F0D"/>
<path d="M56.0021 168.612L45.5868 160.348C44.9489 159.841 44.0217 159.949 43.5131 160.584L40.8607 163.924C40.6758 164.16 40.5665 164.48 40.5514 164.824L40.3871 169.016C40.3671 169.506 40.0681 169.886 39.7039 169.88L36.5881 169.82C36.3338 169.814 36.0898 169.941 35.9055 170.17L22.3147 187.295C21.8508 187.875 21.8913 188.799 22.3945 189.349C25.1266 192.327 29.0313 192.732 32.0117 190.026C38.2904 184.885 36.1248 186.661 36.5936 186.275L40.7012 188.177L56.0021 168.612Z" fill="#F8A330"/>
<path d="M36.4692 186.124L31.8886 189.875C28.9764 192.514 25.1968 192.116 22.539 189.216C22.0962 188.733 22.0642 187.924 22.4689 187.416L36.0597 170.291C36.2047 170.11 36.3992 170.019 36.584 170.013L39.7004 170.074C40.1842 170.068 40.5587 169.621 40.5835 169.022L40.7484 164.83C40.7611 164.528 40.8559 164.25 41.0148 164.051L43.6673 160.711C44.1052 160.161 44.9116 160.064 45.4649 160.499L55.7274 168.648L40.6433 187.93L36.6752 186.099C36.6124 186.069 36.5284 186.075 36.4692 186.124ZM32.1436 190.171C38.2814 185.151 36.1642 186.879 36.6227 186.504L40.6198 188.352C40.7001 188.395 40.8004 188.371 40.856 188.298L56.1563 168.733C56.2233 168.648 56.2082 168.527 56.1242 168.461L45.7096 160.191C44.9859 159.623 43.9325 159.744 43.3598 160.463L40.7067 163.803C40.4971 164.069 40.3727 164.432 40.3558 164.818L40.1915 169.01C40.1758 169.385 39.9607 169.681 39.7112 169.681H39.707L36.5919 169.621H36.5732C36.2627 169.621 35.9715 169.772 35.7522 170.043L22.1608 187.169C21.6419 187.827 21.6818 188.86 22.2502 189.482C25.0603 192.551 29.0858 192.949 32.1436 190.171Z" fill="#F8A330"/>
<path d="M46.8247 180.336L51.6747 165.181L56.001 168.618L46.8247 180.336Z" fill="#100F0D"/>
<path d="M55.7261 168.648L47.3459 179.352L51.7755 165.513L55.7261 168.648ZM46.9793 180.458L56.155 168.739C56.2226 168.648 56.2075 168.527 56.1229 168.461L51.7972 165.03C51.6921 164.945 51.5308 164.988 51.488 165.121L46.638 180.276C46.5709 180.482 46.8439 180.627 46.9793 180.458Z" fill="#100F0D"/>
<path d="M46.4648 161.049L45.5853 160.348C44.9474 159.841 44.0196 159.949 43.5134 160.584L40.861 163.93C40.6767 164.16 40.5674 164.48 40.5535 164.824L40.4019 168.684L46.4648 161.049Z" fill="#100F0D"/>
<path d="M46.1879 161.079L40.6215 168.092L40.7501 164.83C40.761 164.528 40.8552 164.25 41.0141 164.051L43.6671 160.711C44.1045 160.155 44.9103 160.064 45.463 160.505L46.1879 161.079ZM40.5556 168.805L46.6186 161.17C46.6862 161.085 46.6717 160.958 46.5872 160.892L45.7077 160.197C44.9997 159.635 43.945 159.726 43.3591 160.463L40.706 163.803C40.4964 164.069 40.3726 164.432 40.3575 164.818L40.2053 168.678C40.198 168.865 40.4372 168.956 40.5556 168.805Z" fill="#100F0D"/>
<path d="M39.459 169.874L36.5885 169.82C36.3342 169.814 36.0907 169.941 35.9065 170.17L22.3157 187.295C21.8735 187.851 21.914 188.818 22.3954 189.349C22.6896 189.669 22.9989 189.953 23.316 190.213L39.459 169.874Z" fill="#100F0D"/>
<path d="M39.0582 170.061L23.2874 189.935C23.0131 189.699 22.7678 189.464 22.5395 189.216C22.1209 188.757 22.0865 187.899 22.4694 187.416L36.0609 170.291C36.2058 170.11 36.4076 170.007 36.584 170.013L39.0582 170.061ZM23.4698 190.334L39.6127 169.995C39.7136 169.868 39.6236 169.681 39.4629 169.675L36.5918 169.62C36.2729 169.59 35.9757 169.765 35.7522 170.049L22.1614 187.168C21.6612 187.803 21.7029 188.878 22.2508 189.476C22.5317 189.79 22.8403 190.074 23.1913 190.364C23.2777 190.43 23.4021 190.418 23.4698 190.334Z" fill="#100F0D"/>
<path d="M32.3756 189.73C30.2294 187.978 26.9831 189.035 26.2583 191.693C28.2227 192.128 30.2813 191.597 32.012 190.026L32.3756 189.73Z" fill="#100F0D"/>
<path d="M32.0575 189.736C31.8497 189.857 29.7542 192.152 26.5085 191.542C27.2848 189.235 30.0762 188.328 32.0575 189.736ZM32.1433 190.171L32.4984 189.887C32.5951 189.808 32.5963 189.657 32.4996 189.579C30.2562 187.743 26.836 188.83 26.0688 191.639C26.0392 191.747 26.1044 191.856 26.2156 191.88C28.3932 192.37 30.4839 191.675 32.1433 190.171Z" fill="#100F0D"/>
<path d="M138.733 149.215C138.733 149.215 127.565 156.168 110.382 155.733C93.1992 155.298 115.528 144.739 115.528 144.739L138.733 149.215Z" fill="#100F0D"/>
<path d="M81.2641 152.852C81.2641 165.537 98.4116 183.756 118.66 200.838C122.576 204.137 126.606 207.405 130.653 210.57C156.761 231.042 183.476 247.744 183.476 247.744L202.508 223.171C202.508 223.171 136.283 161.55 113.063 134.633C107.078 127.699 81.2641 127.511 81.2641 152.852Z" fill="#2F2F2F"/>
<path d="M202.242 223.189L183.43 247.484C181.229 246.095 155.569 229.851 130.774 210.419C126.654 207.193 122.621 203.919 118.787 200.687C94.0187 179.787 81.4603 163.694 81.4603 152.851C81.4603 138.904 89.2901 133.908 93.9577 132.174C101.419 129.402 109.936 131.311 112.914 134.76C135.384 160.807 198.91 220.084 202.242 223.189ZM183.631 247.864L202.662 223.291C202.725 223.207 202.716 223.092 202.641 223.025C201.979 222.409 136.159 161.103 113.212 134.5C110.087 130.882 101.549 128.931 93.8206 131.806C89.0576 133.576 81.0676 138.668 81.0676 152.851C81.0676 163.815 93.6732 180.01 118.534 200.989C122.372 204.221 126.408 207.495 130.531 210.727C156.35 230.963 183.105 247.744 183.372 247.913C183.455 247.961 183.568 247.943 183.631 247.864Z" fill="#100F0D"/>
<path d="M118.66 200.838C122.576 204.136 126.606 207.404 130.653 210.57C130.734 197.468 126.731 183.719 126.731 183.719L118.66 200.838Z" fill="#100F0D"/>
<path d="M184.339 228.68C184.396 228.589 184.367 228.468 184.275 228.408C139.398 200.73 114.334 156.856 114.086 156.415C114.033 156.319 113.914 156.289 113.818 156.343C113.724 156.397 113.691 156.518 113.744 156.609C113.992 157.05 139.106 201.013 184.069 228.746C184.158 228.8 184.281 228.776 184.339 228.68Z" fill="#100F0D"/>
<path d="M117.884 148.206C117.884 148.206 142.184 212.823 113.915 225.097C87.3457 236.635 38.8745 191.113 38.8745 191.113L55.993 168.642C55.993 168.642 92.0532 194.52 87.9963 186.329C73.4698 156.989 84.0445 140.468 84.0445 140.468" fill="#424242"/>
<path d="M113.993 225.279C120.502 222.452 124.762 216.623 126.653 207.948C128.16 201.038 128.173 192.315 126.695 182.022C124.18 164.516 118.128 148.303 118.068 148.14C118.029 148.037 117.914 147.989 117.815 148.025C117.714 148.062 117.662 148.176 117.7 148.279C117.761 148.442 123.798 164.619 126.306 182.082C128.615 198.157 128.325 218.628 113.837 224.923C100.192 230.842 80.5842 221.31 66.5374 212.267C52.1347 202.995 40.4878 192.339 39.1389 191.089L56.0327 168.914C58.7075 170.829 85.7061 190.104 88.2721 187.93C88.6219 187.634 88.5887 187.078 88.1719 186.238C73.8598 157.334 84.1047 140.74 84.2098 140.577C84.269 140.481 84.2418 140.36 84.15 140.306C84.0594 140.245 83.9386 140.269 83.8788 140.366C83.7725 140.529 73.411 157.316 87.8203 186.414C88.1314 187.042 88.2015 187.471 88.0184 187.628C86.2594 189.132 67.9708 176.996 56.107 168.485C56.0212 168.419 55.8998 168.437 55.8364 168.521L38.7178 190.992C38.6574 191.077 38.6665 191.186 38.7402 191.258C38.8616 191.373 51.0474 202.766 66.3247 212.6C79.416 221.026 99.7717 231.452 113.993 225.279Z" fill="#100F0D"/>
<path d="M93.5692 207.592C100.706 207.592 107.048 205.194 109.876 198.488C116.442 182.91 101.922 151.625 101.774 151.305C101.728 151.208 101.61 151.166 101.513 151.215C101.415 151.263 101.372 151.378 101.418 151.474C101.565 151.788 116.013 182.916 109.514 198.331C106.756 204.873 100.554 207.199 93.5746 207.199C74.3564 207.205 55.7676 186.166 55.5556 185.924C55.4837 185.845 55.3598 185.833 55.2789 185.906C55.1974 185.978 55.1889 186.099 55.2602 186.184C55.3206 186.25 61.4083 193.191 70.1177 199.099C76.287 203.285 84.7783 207.592 93.5692 207.592Z" fill="#100F0D"/>
<path d="M64.008 109.54C75.4483 134.736 80.778 150.762 80.778 150.762C103.621 159.684 115.93 144.087 138.735 149.215C138.735 149.215 141.149 131.589 148.603 119.532C156.046 107.493 167.383 97.6949 163.15 65.16L142.809 64.9365C142.809 64.9365 144.529 97.4955 125.634 102.268C123.166 102.89 120.162 103.21 116.924 103.246C111.753 103.313 105.986 102.666 100.847 101.392C96.5168 100.323 92.6339 98.8003 89.9362 96.8975C74.0282 85.6498 75.2188 59.9107 75.2188 59.9107H54.9096C48.5917 83.0584 64.008 109.54 64.008 109.54Z" fill="#ED5443"/>
<path d="M103.736 102.031C102.758 101.838 101.791 101.627 100.847 101.391C100.804 101.584 100.77 101.79 100.759 101.995C100.557 105.064 104.02 107.788 108.492 108.078C112.861 108.362 116.58 106.217 116.924 103.245C115.586 103.264 114.21 103.233 112.811 103.155L111.621 97.0055C120.364 94.0093 109.393 80.1703 108.301 79.1313L96.7564 87.7029L101.311 95.2719L103.736 102.031Z" fill="#FACCBD"/>
<path d="M112.849 103.348C112.956 103.324 113.025 103.222 113.005 103.119L111.846 97.1326C113.615 96.4862 114.691 95.3325 115.045 93.7075C116.204 88.3918 109.125 79.6449 108.437 78.9865C108.367 78.9261 108.261 78.9201 108.184 78.9744L96.6398 87.5461C96.5583 87.6065 96.5365 87.7213 96.5885 87.8058L101.143 95.3747L103.551 102.098C103.587 102.201 103.699 102.255 103.802 102.213C103.904 102.176 103.957 102.068 103.921 101.965L101.496 95.2056L97.0174 87.7575L108.28 79.3913C109.398 80.6115 115.738 88.6878 114.661 93.6229C114.327 95.1512 113.283 96.2265 111.558 96.8185C111.465 96.8487 111.41 96.9453 111.428 97.042L112.619 103.191C112.638 103.294 112.736 103.366 112.849 103.348Z" fill="#100F0D"/>
<path d="M110.257 76.2985C109.419 73.254 104.291 74.8427 97.642 77.5549C84.6516 82.8525 95.0651 96.6856 100.78 95.7916C105.019 95.1271 99.607 90.9289 99.607 90.9289C99.607 90.9289 102.956 90.4517 101.832 87.8783C100.708 85.305 111.925 82.3632 110.257 76.2985Z" fill="#100F0D"/>
<path d="M110.968 89.2736C111.416 89.1408 112.005 88.9052 112.259 88.5307C112.51 88.1682 112.353 87.7816 111.935 87.5944C111.629 87.4554 111.254 87.4192 110.952 87.3286C110.298 87.1353 109.978 86.6943 109.669 86.2654C109.604 86.1748 109.483 86.1567 109.394 86.2171C109.307 86.2836 109.287 86.4043 109.35 86.495C109.665 86.9299 110.058 87.4736 110.841 87.7092C111.141 87.7998 111.524 87.8421 111.775 87.9508C111.956 88.0354 112.049 88.144 111.936 88.3071C111.789 88.5246 111.397 88.7361 110.856 88.8992C110.752 88.9294 110.693 89.0381 110.723 89.1408C110.755 89.2495 110.866 89.3038 110.968 89.2736Z" fill="#100F0D"/>
<path d="M108.549 86.9359C108.63 87.2379 108.451 87.546 108.149 87.6305C107.848 87.7091 107.537 87.5278 107.456 87.2258C107.375 86.9238 107.557 86.6157 107.857 86.5372C108.16 86.4526 108.468 86.6338 108.549 86.9359Z" fill="#100F0D"/>
<path d="M105.908 87.1053C105.963 86.5858 106.151 86.2113 106.468 85.9999C107.039 85.6133 107.849 85.8368 107.856 85.8428C107.963 85.867 108.07 85.8066 108.1 85.7039C108.129 85.6012 108.069 85.4925 107.965 85.4623C107.924 85.4502 106.969 85.1844 106.248 85.6737C105.831 85.9516 105.585 86.4227 105.518 87.063C105.506 87.1718 105.585 87.2684 105.691 87.2745C105.786 87.2926 105.896 87.2201 105.908 87.1053Z" fill="#100F0D"/>
<path d="M112.164 85.0936C112.244 85.3957 112.065 85.7037 111.763 85.7822C111.463 85.8668 111.151 85.6856 111.071 85.3836C110.99 85.0815 111.172 84.7735 111.472 84.6889C111.775 84.6104 112.083 84.7916 112.164 85.0936Z" fill="#100F0D"/>
<path d="M109.75 85.1359C109.805 84.6164 109.993 84.2419 110.309 84.0305C110.876 83.6439 111.691 83.8674 111.7 83.8735C111.804 83.8976 111.912 83.8433 111.942 83.7345C111.972 83.6319 111.912 83.5231 111.807 83.4929C111.767 83.4808 110.812 83.2151 110.091 83.7043C109.673 83.9822 109.427 84.4534 109.36 85.0937C109.348 85.2024 109.427 85.299 109.534 85.3111C109.628 85.3232 109.738 85.2507 109.75 85.1359Z" fill="#100F0D"/>
<path d="M111.637 97.0119C110.207 97.5495 108.313 97.1267 106.275 96.5045C106.275 96.5045 107.03 99.5671 111.959 98.7516L111.637 97.0119Z" fill="#100F0D"/>
<path d="M111.729 98.5885C108.205 99.1141 106.981 97.5375 106.609 96.8065C108.576 97.3864 110.181 97.6704 111.485 97.2717L111.729 98.5885ZM110.399 99.0839C110.877 99.0839 111.406 99.0416 111.992 98.9449C112.098 98.9268 112.173 98.8241 112.152 98.7154L111.83 96.9757C111.808 96.8548 111.682 96.7824 111.567 96.8307C110.166 97.3563 108.223 96.8972 106.332 96.3173C106.175 96.275 106.049 96.4078 106.084 96.5528C106.091 96.577 106.756 99.0839 110.399 99.0839Z" fill="#100F0D"/>
<path d="M102.241 91.569C102.571 92.7227 101.903 93.9248 100.75 94.251C99.5919 94.5833 98.3886 93.9188 98.0588 92.7651C97.7278 91.6053 98.3959 90.4031 99.5538 90.0709C100.707 89.7387 101.911 90.4092 102.241 91.569Z" fill="#FACCBD"/>
<path d="M102.053 91.6235C102.352 92.6685 101.743 93.7679 100.696 94.0639C99.6494 94.366 98.5494 93.7679 98.2479 92.7108C97.9435 91.6477 98.5602 90.5604 99.6077 90.2583C100.656 89.9563 101.753 90.5724 102.053 91.6235ZM100.804 94.4445C102.06 94.082 102.789 92.7712 102.431 91.5148C102.07 90.2523 100.754 89.5214 99.4995 89.8838C98.2383 90.2402 97.508 91.551 97.8698 92.8195C98.231 94.076 99.5418 94.8009 100.804 94.4445Z" fill="#100F0D"/>
<path d="M113.086 90.216C112.447 90.3489 112.672 90.5543 110.63 91.0919C108.589 91.6235 112.13 94.4323 113.395 93.6773C114.659 92.9162 114.149 90.0046 113.086 90.216Z" fill="#100F0D"/>
<path d="M111.897 92.874C111.585 92.7169 112.074 92.2035 112.346 92.0343C112.604 91.8833 112.97 92.1975 113.404 92.1612C113.563 92.1491 112.395 93.1277 111.897 92.874Z" fill="white"/>
<path d="M173.709 240.592L194.933 216.061C195.004 215.976 194.995 215.856 194.913 215.783C194.831 215.711 194.707 215.723 194.636 215.807L173.412 240.338C173.341 240.417 173.35 240.544 173.431 240.61C173.512 240.683 173.637 240.677 173.709 240.592Z" fill="#100F0D"/>
<path d="M46.0594 197.383L65.056 174.978C65.1261 174.894 65.1158 174.773 65.0336 174.7C64.9491 174.634 64.827 174.64 64.7564 174.725L45.7604 197.129C45.6897 197.214 45.7 197.335 45.7828 197.407C45.8667 197.474 45.9893 197.462 46.0594 197.383Z" fill="#100F0D"/>
<path d="M156.905 59.9886C157.023 59.4208 157.054 58.853 156.997 58.2912C156.985 58.1825 156.896 58.11 156.781 58.116C156.673 58.1281 156.594 58.2247 156.605 58.3274C156.658 58.8529 156.63 59.3846 156.52 59.9041C156.498 60.0128 156.566 60.1154 156.672 60.1396C156.779 60.1577 156.882 60.0913 156.905 59.9886Z" fill="#100F0D"/>
<path d="M154.015 59.9886C154.133 59.4208 154.164 58.853 154.106 58.2912C154.095 58.1825 154.008 58.11 153.89 58.116C153.783 58.1281 153.704 58.2247 153.715 58.3274C153.769 58.8529 153.74 59.3846 153.63 59.9041C153.608 60.0128 153.676 60.1154 153.782 60.1396C153.888 60.1577 153.992 60.0913 154.015 59.9886Z" fill="#100F0D"/>
<path d="M152.465 63.951H152.476C152.583 63.945 152.667 63.8544 152.661 63.7456C152.545 61.6193 150.682 61.0213 150.664 61.0153C150.56 60.9851 150.45 61.0395 150.418 61.1422C150.386 61.2448 150.443 61.3596 150.546 61.3898C150.613 61.4079 152.168 61.9214 152.269 63.7698C152.275 63.8725 152.361 63.951 152.465 63.951Z" fill="#100F0D"/>
<path d="M69.6539 59.475C71.3114 57.8139 73.7923 55.0593 73.1544 54.0687C71.9952 52.2686 68.2869 55.9473 68.2869 55.9473C68.2869 55.9473 66.4656 55.9413 66.6565 58.3092" fill="#FACCBD"/>
<path d="M69.7936 59.6139C72.681 56.7144 73.8674 54.8116 73.3201 53.9599C72.2884 52.3591 69.5731 54.4311 68.2037 55.754C67.9905 55.7721 67.4287 55.8627 66.992 56.3338C66.5703 56.7869 66.3915 57.4574 66.461 58.3212C66.47 58.43 66.5619 58.5085 66.673 58.5025C66.7805 58.4964 66.8609 58.3998 66.8518 58.291C66.792 57.542 66.9358 56.9742 67.2801 56.5997C67.6987 56.1466 68.275 56.1466 68.2865 56.1466H68.2871L68.4254 56.0862C69.4559 55.0593 72.1591 52.8846 72.9897 54.1773C73.3992 54.8116 72.1005 56.7386 69.5157 59.336C69.439 59.4146 69.439 59.5414 69.5157 59.6139C69.5919 59.6924 69.7169 59.6924 69.7936 59.6139Z" fill="#100F0D"/>
<path d="M73.2154 69.9558L73.2981 69.4001L55.6281 66.7604L55.5453 67.316L73.2154 69.9558Z" fill="#100F0D"/>
<path d="M69.9493 64.6158C69.9493 65.3286 70.5364 65.9146 71.2486 65.9146C71.9699 65.9146 72.5468 65.3286 72.5468 64.6158C72.5468 63.897 71.9699 63.3171 71.2486 63.3171C70.5364 63.3171 69.9493 63.897 69.9493 64.6158Z" fill="white"/>
<path d="M143.497 75.7245L162.031 72.064L161.923 71.5142L143.389 75.1749L143.497 75.7245Z" fill="#100F0D"/>
<path d="M147.235 69.702C147.235 70.4088 147.822 71.0007 148.533 71.0007C149.255 71.0007 149.832 70.4088 149.832 69.702C149.832 68.9771 149.255 68.4033 148.533 68.4033C147.822 68.4033 147.235 68.9771 147.235 69.702Z" fill="white"/>
<path d="M69.9491 123.24C70.0573 123.24 70.1461 123.15 70.1461 123.041C70.2131 107.239 81.2487 100.854 81.3599 100.787C81.4541 100.739 81.4879 100.618 81.4348 100.522C81.3828 100.425 81.2608 100.395 81.1678 100.449C81.0542 100.51 69.8217 106.997 69.7534 123.041C69.7528 123.15 69.8404 123.24 69.9479 123.24H69.9491Z" fill="#100F0D"/>
<path d="M147.543 121.507H147.544C147.652 121.507 147.739 121.422 147.739 121.313C147.671 105.269 136.438 98.7819 136.324 98.7154C136.232 98.6671 136.11 98.6973 136.057 98.794C136.004 98.8846 136.038 99.0053 136.133 99.0597C136.243 99.1201 147.28 105.505 147.346 121.313C147.346 121.422 147.435 121.507 147.543 121.507Z" fill="#100F0D"/>
<path d="M220.226 203.508C224.327 200.367 226.622 195.468 228.647 191.149C228.693 191.047 228.651 190.932 228.552 190.884C228.455 190.841 228.338 190.884 228.291 190.98C226.285 195.263 224.011 200.114 219.986 203.2C216.248 206.064 210.027 206.976 206.497 203.46C202.833 199.812 203.825 193.65 205.788 189.482C207.939 184.909 211.303 180.838 212.563 175.909C214.817 167.071 209.888 158.3 205.19 150.677C201.376 144.492 197.432 138.095 197.045 130.912C196.798 126.315 198.009 121.356 200.751 115.756C203.827 109.468 207.635 104.95 212.067 102.328C223.157 95.7739 235.565 102.032 235.562 116.294C235.559 121.863 233.659 127.264 231.714 132.314C229.966 136.838 228.089 141.459 227.765 146.274C227.368 152.175 229.354 157.316 234.71 160.523C238.747 162.946 241.165 166.177 236.978 173.487C235.115 176.742 232.771 179.678 230.014 182.221C229.935 182.3 229.929 182.421 230.002 182.499C230.076 182.584 230.201 182.584 230.28 182.511C233.067 179.944 235.436 176.972 237.319 173.686C241.603 166.202 239.04 162.662 234.912 160.185C229.68 157.056 227.77 152.042 228.158 146.298C228.477 141.55 230.339 136.959 232.08 132.459C234.039 127.366 235.952 121.93 235.954 116.294C235.959 101.718 223.181 95.2967 211.867 101.99C207.368 104.654 203.509 109.226 200.399 115.581C197.626 121.247 196.401 126.267 196.652 130.936C197.045 138.215 201.016 144.655 204.855 150.883C209.484 158.397 214.409 167.084 212.182 175.812C210.944 180.657 207.576 184.758 205.433 189.313C203.416 193.602 202.412 199.951 206.219 203.738C209.88 207.387 216.162 206.625 220.226 203.508Z" fill="#100F0D"/>
<path d="M230.548 215.813C230.618 215.505 237.357 184.456 220.285 154.579C215.014 145.355 211.765 135.479 210.629 125.234C210.617 125.125 210.521 125.047 210.412 125.059C210.304 125.071 210.227 125.167 210.239 125.276C211.381 135.581 214.646 145.506 219.944 154.773C236.938 184.517 230.235 215.42 230.165 215.728C230.141 215.831 230.207 215.94 230.313 215.964C230.417 215.982 230.524 215.922 230.548 215.813Z" fill="#100F0D"/>
<path d="M235.008 197.142C233.467 195.716 232.144 194.061 231.103 192.243C230.038 190.382 229.321 187.894 230.656 186.214C231.361 185.326 232.48 184.897 233.392 184.227C235.562 182.626 236.409 179.703 236.227 177.014C235.857 171.517 231.881 166.582 231.879 160.282C231.874 143.9 254.511 151.221 253.582 168.443C253.338 172.955 250.613 176.888 248.267 180.754C245.922 184.614 243.805 189.132 244.923 193.505C245.621 196.242 247.492 198.507 248.695 201.062C249.896 203.611 250.277 206.994 248.277 208.981C246.299 210.951 242.825 210.546 240.609 208.843C238.392 207.145 237.129 204.517 235.945 201.992" fill="#D1D4EE"/>
<path d="M234.934 215.964C235.04 215.94 235.107 215.831 235.083 215.728C235.044 215.553 231.314 198.35 240.774 181.792C243.736 176.609 245.56 171.064 246.199 165.301C246.21 165.199 246.133 165.102 246.026 165.09C245.91 165.072 245.82 165.15 245.809 165.259C245.176 170.967 243.368 176.458 240.434 181.599C230.894 198.289 234.66 215.638 234.699 215.813C234.724 215.922 234.831 215.982 234.934 215.964Z" fill="#100F0D"/>
<path d="M14.9816 169.397C17.5537 167.428 18.9908 164.365 20.2587 161.659C20.3046 161.556 20.2623 161.442 20.1639 161.393C20.0672 161.351 19.9494 161.393 19.9029 161.49C18.6543 164.154 17.239 167.174 14.743 169.089C12.4337 170.859 8.59606 171.421 6.42083 169.258C4.16163 167.011 4.779 163.199 5.99377 160.62C7.33056 157.781 9.43691 155.226 10.2252 152.133C11.6387 146.594 8.558 141.097 5.61682 136.337C3.24225 132.483 0.784939 128.496 0.544521 124.032C0.389881 121.175 1.14435 118.094 2.85022 114.609C4.76208 110.7 7.12817 107.891 9.8821 106.266C13.2769 104.255 17.454 104.17 20.2786 106.055C22.8417 107.759 24.4334 111.153 24.4322 114.917C24.4316 118.378 23.2482 121.743 22.0371 124.89C20.9431 127.717 19.7706 130.604 19.5677 133.618C19.3158 137.352 20.5716 140.565 23.9386 142.583C26.4274 144.069 27.9176 146.044 25.3262 150.568C24.1676 152.592 22.71 154.422 20.9945 156.005C20.9153 156.077 20.9099 156.198 20.983 156.277C21.0573 156.361 21.1811 156.361 21.2608 156.289C23.0066 154.682 24.4883 152.822 25.6675 150.762C28.3622 146.056 26.7475 143.803 24.1398 142.244C20.8591 140.275 19.7253 137.122 19.9603 133.643C20.159 130.689 21.32 127.831 22.4031 125.029C23.6282 121.845 24.8236 118.444 24.8242 114.917C24.826 111.026 23.1679 107.505 20.4961 105.729C17.5471 103.766 13.2014 103.844 9.68277 105.928C6.86179 107.595 4.44432 110.459 2.49743 114.439C0.761354 117.985 -0.0051899 121.132 0.15247 124.056C0.398323 128.617 2.88223 132.646 5.28337 136.542C8.15992 141.205 11.228 146.618 9.84467 152.036C9.0763 155.044 6.97476 157.612 5.63918 160.451C4.36944 163.145 3.74001 167.144 6.14357 169.536C8.46438 171.85 12.4325 171.354 14.9816 169.397Z" fill="#100F0D"/>
<path d="M21.4504 177.032C21.4939 176.839 25.7048 157.436 15.037 138.771C11.7534 133.02 9.72915 126.871 9.02058 120.486C9.00971 120.377 8.91246 120.293 8.80494 120.311C8.69681 120.323 8.61887 120.419 8.63095 120.528C9.34374 126.967 11.3849 133.171 14.697 138.964C25.2892 157.503 21.1109 176.754 21.0668 176.948C21.0432 177.056 21.1097 177.159 21.2154 177.183C21.3187 177.207 21.4256 177.141 21.4504 177.032Z" fill="#100F0D"/>
<path d="M175.437 24.8563H178.716C178.794 24.8563 178.864 24.8079 178.896 24.7415C179.502 23.3944 180.904 22.6212 182.254 22.736C182.368 22.7541 182.478 22.6514 182.467 22.5245C182.456 22.3977 182.454 22.2588 182.454 22.1259C182.454 18.8942 185.08 16.2665 188.308 16.2665C189.133 16.2665 189.933 16.4356 190.688 16.7739C190.818 16.8283 190.959 16.7376 190.963 16.5987C191.177 10.6729 195.994 6.02762 201.928 6.02762C203.306 6.02762 204.647 6.28135 205.914 6.77668C205.988 6.80688 206.071 6.78875 206.125 6.73438C208.594 4.22752 211.889 2.8442 215.403 2.8442C222.591 2.8442 228.439 8.69759 228.439 15.8859C228.439 16.2786 228.42 16.6712 228.387 17.0457C228.376 17.1666 228.465 17.2692 228.612 17.2632C228.868 17.2209 229.142 17.2028 229.423 17.2028C232.47 17.2028 234.978 19.4861 235.256 22.5185C235.265 22.6152 235.35 22.6937 235.451 22.6937H238.799C238.908 22.6937 238.995 22.6091 238.995 22.5004C238.995 22.3917 238.908 22.3011 238.799 22.3011H235.628C235.251 19.16 232.614 16.8101 229.423 16.8101C229.209 16.8101 229 16.8222 228.797 16.8403C228.82 16.5262 228.831 16.2061 228.831 15.8859C228.831 8.48012 222.807 2.45156 215.403 2.45156C211.826 2.45156 208.469 3.84089 205.937 6.36587C204.66 5.88262 203.312 5.63498 201.928 5.63498C195.875 5.63498 190.946 10.2983 190.584 16.3027C189.857 16.0188 189.093 15.8738 188.308 15.8738C184.889 15.8738 181.977 18.6646 182.064 22.3373C180.481 22.3373 179.204 23.2193 178.592 24.4636H175.437C175.329 24.4636 175.241 24.5542 175.241 24.6569C175.241 24.7657 175.329 24.8563 175.437 24.8563Z" fill="#100F0D"/>
<path d="M224.851 19.4016C225.794 18.2237 227.128 17.4626 228.61 17.2572C228.717 17.2451 228.792 17.1424 228.777 17.0397C228.763 16.931 228.663 16.8524 228.556 16.8706C226.974 17.088 225.55 17.8975 224.545 19.1539C224.477 19.2385 224.49 19.3593 224.575 19.4318C224.657 19.4922 224.782 19.4862 224.851 19.4016Z" fill="#100F0D"/>
<path d="M192.808 18.0729C192.886 18.0004 192.889 17.8735 192.813 17.795C192.25 17.2091 191.589 16.7439 190.848 16.4178C190.749 16.3694 190.633 16.4177 190.589 16.5144C190.544 16.611 190.589 16.7319 190.688 16.7742C191.382 17.0822 192.001 17.5171 192.53 18.0668C192.605 18.1454 192.73 18.1454 192.808 18.0729Z" fill="#100F0D"/>
<path d="M183.667 22.9293C183.712 22.8266 183.667 22.7119 183.569 22.6696C183.161 22.4823 182.73 22.3736 182.286 22.3434C182.177 22.3252 182.084 22.4159 182.077 22.5246C182.068 22.6333 182.15 22.73 182.258 22.736C182.656 22.7662 183.043 22.8629 183.408 23.026C183.509 23.0683 183.623 23.026 183.667 22.9293Z" fill="#100F0D"/>
<path d="M208.637 8.0636C208.701 7.97299 208.682 7.85218 208.594 7.79177C207.85 7.24812 207.041 6.80107 206.189 6.45676C206.09 6.42051 205.975 6.46285 205.934 6.56554C205.893 6.66823 205.942 6.78295 206.042 6.8192C206.864 7.15143 207.645 7.5864 208.364 8.1059C208.448 8.17234 208.573 8.15421 208.637 8.0636Z" fill="#100F0D"/>
<path d="M-36.2965 73.3445C-35.6816 71.9793 -34.2651 71.2243 -32.9385 71.339C-32.8189 71.3511 -32.7151 71.2545 -32.7253 71.1276C-33.0008 67.8657 -30.3326 64.8695 -26.884 64.8695C-26.0595 64.8695 -25.2591 65.0386 -24.504 65.3769C-24.3784 65.4313 -24.2334 65.3406 -24.2286 65.2017C-24.0153 59.2759 -19.1991 54.6306 -13.2636 54.6306C-11.887 54.6306 -10.546 54.8843 -9.27864 55.3797C-9.20434 55.4099 -9.12157 55.3917 -9.0666 55.3374C-6.59779 52.8305 -3.30324 51.4473 0.211193 51.4473C7.39893 51.4473 13.2463 57.2946 13.2463 64.4829C13.2463 64.8756 13.2288 65.2682 13.1943 65.6487C13.1841 65.7756 13.2867 65.8783 13.419 65.8602C13.6763 65.8239 13.9488 65.8058 14.2303 65.8058C17.2772 65.8058 19.7852 68.0891 20.0631 71.1215C20.0722 71.2182 20.1573 71.2967 20.2588 71.2967H23.6071C23.7153 71.2967 23.8035 71.2121 23.8035 71.1034C23.8035 70.9947 23.7153 70.9041 23.6071 70.9041H20.4352C20.0583 67.763 17.4215 65.4131 14.2303 65.4131C14.0177 65.4131 13.808 65.4252 13.6051 65.4433C13.6274 65.1292 13.6389 64.8031 13.6389 64.4829C13.6389 57.0771 7.61519 51.0546 0.211193 51.0546C-3.36667 51.0546 -6.72283 52.4439 -9.25566 54.9689C-10.5339 54.4857 -11.8809 54.238 -13.2636 54.238C-19.3169 54.238 -24.2467 58.9014 -24.6073 64.9058C-25.3352 64.6219 -26.0987 64.4768 -26.884 64.4768C-30.4033 64.4768 -33.2406 67.4005 -33.1282 70.9403C-34.7634 70.9403 -36.0682 71.8827 -36.6554 73.1814C-36.6995 73.2781 -36.6559 73.3989 -36.5569 73.4412C-36.459 73.4834 -36.3419 73.4412 -36.2965 73.3445Z" fill="#100F0D"/>
<path d="M9.66041 67.9988C10.6009 66.8269 11.9353 66.0657 13.4177 65.8603C13.5252 65.8483 13.6001 65.7456 13.5856 65.6368C13.5705 65.5341 13.4721 65.4556 13.3645 65.4737C11.7819 65.6912 10.3575 66.5007 9.35295 67.7571C9.2859 67.8417 9.29857 67.9625 9.38374 68.035C9.4659 68.1014 9.59094 68.0894 9.66041 67.9988Z" fill="#100F0D"/>
<path d="M143.193 236.097C143.215 235.995 143.145 235.892 143.039 235.868L119.757 231.229C119.649 231.204 119.547 231.277 119.526 231.386C119.505 231.488 119.574 231.591 119.68 231.615L142.963 236.254C143.064 236.273 143.172 236.212 143.193 236.097Z" fill="#100F0D"/>
<path d="M62.2008 220.386C62.228 220.283 62.1652 220.175 62.0601 220.151L35.0253 213.21C34.9183 213.18 34.8126 213.246 34.7861 213.349C34.7595 213.451 34.8223 213.56 34.928 213.59L61.9622 220.531C62.0625 220.555 62.1736 220.495 62.2008 220.386Z" fill="#100F0D"/>
<path d="M365.114 225.425L339.817 174.671C341.842 173.226 343.807 171.676 345.704 170.023L371.69 222.143C373.886 226.553 367.243 229.683 365.114 225.425Z" fill="#F8A330"/>
<path d="M340.177 174.763L365.371 225.297C367.347 229.25 373.453 226.321 371.434 222.271L345.612 170.48C343.861 171.987 342.038 173.427 340.177 174.763ZM364.864 225.553L339.457 174.586C340.793 173.531 339.909 174.464 345.795 169.572C382.274 242.749 366.932 211.968 371.941 222.021C374.307 226.773 367.152 230.134 364.864 225.553Z" fill="#F8A330"/>
<path d="M289.399 184.584L269.043 225.425C266.89 229.731 260.295 226.504 262.467 222.143L282.799 181.369C284.842 182.644 287.051 183.724 289.399 184.584Z" fill="#F8A330"/>
<path d="M282.915 181.778L262.717 222.271C260.734 226.267 266.786 229.317 268.793 225.297L289.009 184.743C286.874 183.938 284.824 182.943 282.915 181.778ZM262.211 222.021L282.683 180.967C283.299 181.266 282.738 181.455 289.796 184.432C267.914 228.322 269.629 224.888 269.299 225.553C266.963 230.226 259.887 226.688 262.211 222.021Z" fill="#F8A330"/>
<path d="M320.351 225.876H319.503C317.57 225.876 315.965 224.381 315.837 222.454L313.416 186.219C316.124 185.725 318.82 185.023 321.48 184.126L324.012 221.96C324.158 224.083 322.474 225.876 320.351 225.876Z" fill="#F8A330"/>
<path d="M313.714 186.451L316.124 222.435C316.24 224.205 317.722 225.595 319.503 225.595H320.351C321.297 225.595 322.175 225.211 322.828 224.522C323.475 223.826 323.792 222.924 323.731 221.984L321.224 184.511C318.747 185.328 316.222 185.981 313.714 186.451ZM320.351 226.163H319.503C317.429 226.163 315.697 224.54 315.557 222.472L313.117 185.981C316.905 185.005 312.049 186.646 321.736 183.742C325.018 232.806 324.133 219.544 324.292 221.941C324.371 223.046 323.993 224.101 323.237 224.906C322.48 225.717 321.456 226.163 320.351 226.163Z" fill="#F8A330"/>
<path d="M362.406 225.425L337.109 174.671C339.134 173.226 341.104 171.676 342.995 170.023L368.982 222.143C371.178 226.553 364.535 229.683 362.406 225.425Z" fill="white"/>
<path d="M337.468 174.763L362.662 225.297C364.663 229.298 370.72 226.279 368.726 222.271L342.904 170.48C341.153 171.987 339.329 173.427 337.468 174.763ZM362.156 225.553L336.852 174.799C336.791 174.677 336.828 174.525 336.944 174.446C338.951 173.012 340.927 171.45 342.806 169.809C342.946 169.687 343.166 169.73 343.245 169.901L369.232 222.021C371.599 226.761 364.449 230.14 362.156 225.553Z" fill="#100F0D"/>
<path d="M286.691 184.584L266.334 225.425C264.181 229.731 257.587 226.504 259.758 222.143L280.09 181.369C282.134 182.644 284.342 183.724 286.691 184.584Z" fill="white"/>
<path d="M280.206 181.778L260.015 222.271C258.026 226.261 264.071 229.317 266.084 225.297L286.3 184.743C284.165 183.938 282.116 182.943 280.206 181.778ZM259.502 222.021L279.834 181.247C279.907 181.101 280.09 181.04 280.237 181.132C282.28 182.4 284.482 183.474 286.788 184.322C286.947 184.377 287.026 184.56 286.947 184.712L266.591 225.553C264.242 230.238 257.184 226.675 259.502 222.021Z" fill="#100F0D"/>
<path d="M317.643 225.876H316.795C314.861 225.876 313.257 224.381 313.129 222.454L310.707 186.219C313.416 185.725 316.112 185.023 318.771 184.126L321.303 221.96C321.449 224.083 319.766 225.876 317.643 225.876Z" fill="white"/>
<path d="M311.012 186.451L313.415 222.435C313.531 224.205 315.02 225.595 316.795 225.595H317.643C318.588 225.595 319.467 225.211 320.113 224.522C320.766 223.826 321.083 222.924 321.022 221.984L318.515 184.511C316.038 185.328 313.513 185.981 311.012 186.451ZM317.643 226.163H316.795C314.721 226.163 312.988 224.54 312.848 222.472L310.426 186.237C310.42 186.091 310.518 185.963 310.658 185.938C313.336 185.45 316.038 184.749 318.68 183.858C318.857 183.803 319.04 183.919 319.058 184.108L321.583 221.941C321.663 223.046 321.285 224.101 320.528 224.906C319.772 225.717 318.747 226.163 317.643 226.163Z" fill="#100F0D"/>
<path d="M313.873 186.774L313.8 187.116H302.264L302.277 187.073C330.167 186.56 358.917 162.428 366.792 132.745C374.667 103.061 358.721 78.9353 331.106 78.4229L331.112 78.4046H337.17C365.34 78.4046 381.719 102.738 373.758 132.745C366.316 160.793 340.244 183.876 313.873 186.774Z" fill="#F8A330"/>
<path d="M308.712 186.829H313.568L313.641 186.518C313.696 186.488 360.674 180.955 373.484 132.672C381.262 103.361 365.615 78.8381 337.414 78.6917C362.809 82.7605 373.899 107.057 367.067 132.818C363.242 147.221 354.421 160.8 342.221 171.066C331.948 179.71 320.254 185.176 308.712 186.829ZM314.026 187.397H301.899L302.051 186.835L302.277 186.787C329.917 186.28 358.734 162.008 366.518 132.672C374.24 103.556 358.856 79.2223 331.1 78.7038L330.74 78.6977L330.886 78.1365L331.112 78.1243H337.17C365.798 78.1243 381.957 102.946 374.033 132.818C366.634 160.721 340.891 183.987 314.105 187.037L314.026 187.397Z" fill="#F8A330"/>
<path d="M366.792 132.745C358.825 162.752 329.532 187.085 301.362 187.085C273.185 187.085 256.806 162.752 264.767 132.745C272.727 102.738 302.02 78.4047 330.197 78.4047C358.368 78.4047 374.753 102.738 366.792 132.745Z" fill="white"/>
<path d="M330.197 78.6914C302.185 78.6914 272.959 102.97 265.041 132.818C257.233 162.245 273.032 186.798 301.361 186.798C329.367 186.798 358.593 162.52 366.517 132.672C374.338 103.184 358.471 78.6914 330.197 78.6914ZM301.361 187.366C272.672 187.366 256.58 162.483 264.492 132.672C272.471 102.592 301.947 78.124 330.197 78.124C358.825 78.124 374.984 102.946 367.06 132.818C359.081 162.898 329.611 187.366 301.361 187.366Z" fill="#100F0D"/>
<path d="M352.219 132.745C346.533 154.181 325.604 171.566 305.479 171.566C285.349 171.566 273.648 154.181 279.334 132.745C285.025 111.309 305.949 93.9296 326.079 93.9296C346.204 93.9296 357.904 111.309 352.219 132.745Z" fill="#F78E7B"/>
<path d="M335.864 132.745C332.729 144.561 321.193 154.144 310.103 154.144C299.007 154.144 292.559 144.561 295.688 132.745C298.824 120.929 310.359 111.352 321.456 111.352C332.546 111.352 339 120.929 335.864 132.745Z" fill="white"/>
<path d="M325.122 132.745C323.664 138.242 318.296 142.701 313.135 142.701C307.974 142.701 304.973 138.242 306.431 132.745C307.889 127.249 313.257 122.79 318.418 122.79C323.578 122.79 326.58 127.249 325.122 132.745Z" fill="#F78E7B"/>
<path d="M334.01 230.586C334.01 230.586 330.752 219.044 341.074 223.839C341.074 223.839 342.757 218.916 348.028 222.387C348.028 222.387 345.112 207.435 356.098 207.435C367.091 207.435 370.397 221.313 370.397 221.313C370.397 221.313 375.918 214.133 380.89 223.912C380.89 223.912 385.825 218.605 388.167 226.431C388.167 226.431 392.675 222.57 396.469 230.586" fill="white"/>
<path d="M396.292 230.671C394.938 227.81 393.352 226.163 391.583 225.785C389.729 225.382 388.307 226.572 388.295 226.584C388.185 226.675 388.014 226.627 387.972 226.486C387.258 224.089 386.233 222.722 384.928 222.417C382.994 221.966 381.054 224.028 381.036 224.052C380.938 224.15 380.774 224.126 380.713 224.004C379.114 220.862 377.309 219.172 375.338 218.989C372.66 218.739 370.58 221.405 370.556 221.435C370.452 221.57 370.245 221.515 370.208 221.362C370.178 221.222 366.804 207.631 356.098 207.631C353.518 207.631 351.511 208.479 350.132 210.156C346.704 214.316 348.205 222.265 348.223 222.344C348.254 222.521 348.058 222.649 347.918 222.552C346.24 221.448 344.77 221.1 343.55 221.515C341.897 222.082 341.269 223.882 341.263 223.9C341.22 224.01 341.098 224.065 340.988 224.016C338.115 222.68 336.065 222.509 334.894 223.503C332.765 225.321 334.187 230.482 334.199 230.531C334.229 230.641 334.168 230.75 334.058 230.775C333.955 230.805 333.845 230.744 333.814 230.64C333.753 230.421 332.314 225.181 334.638 223.204C335.913 222.119 338.036 222.247 340.964 223.57C341.19 223.046 341.915 221.655 343.422 221.136C344.667 220.716 346.125 220.996 347.753 221.978C347.479 220.209 346.716 213.676 349.827 209.906C351.285 208.131 353.396 207.234 356.098 207.234C366.103 207.234 369.86 218.672 370.495 220.899C371.147 220.167 373.008 218.373 375.375 218.593C377.437 218.782 379.303 220.459 380.938 223.583C381.512 223.04 383.226 221.612 385.019 222.033C386.422 222.356 387.514 223.729 388.271 226.102C388.777 225.754 390.058 225.053 391.662 225.394C393.559 225.803 395.237 227.517 396.652 230.5C396.701 230.604 396.658 230.72 396.555 230.769C396.457 230.811 396.341 230.769 396.292 230.671Z" fill="#100F0D"/>
<path d="M355.714 224.717C355.128 223.528 354.476 222.851 353.829 222.759C353.195 222.674 352.756 223.156 352.749 223.162C352.652 223.271 352.511 223.235 352.45 223.156C351.413 221.905 350.462 221.313 349.626 221.417C348.699 221.521 348.211 222.466 348.205 222.472C348.156 222.57 348.034 222.613 347.936 222.564C347.839 222.515 347.802 222.393 347.851 222.295C347.869 222.253 348.437 221.155 349.577 221.02C350.523 220.917 351.542 221.496 352.621 222.747C352.847 222.564 353.298 222.283 353.884 222.369C354.677 222.478 355.415 223.21 356.074 224.546C356.117 224.644 356.08 224.76 355.983 224.809C355.885 224.858 355.763 224.821 355.714 224.717Z" fill="#100F0D"/>
<path d="M375.271 12.9312H370.452C370.355 12.9312 370.275 12.8641 370.257 12.7786C369.501 9.42356 367.762 6.92245 365.718 6.24533C364.425 5.81832 363.095 6.14777 361.875 7.197C361.772 7.2824 361.613 7.24575 361.564 7.11765C360.332 3.98216 358.081 1.43844 354.726 1.55434C351.346 1.65805 348.071 4.53118 346.765 8.55119C346.704 8.72809 346.466 8.73421 346.393 8.57561C345.643 6.94077 344.752 6.39174 343.166 7.22136C343.044 7.28846 342.892 7.20918 342.879 7.06278C342.568 3.54298 340.988 1.31032 338.542 0.932115C335.687 0.492903 331.442 2.89028 328.831 9.17955C328.788 9.27715 328.678 9.32594 328.581 9.28934C327.031 8.73423 325.762 8.76473 324.811 9.38084C323.231 10.4057 323.029 12.7237 323.029 12.7481C323.023 12.8519 322.932 12.9312 322.828 12.9312H318.717C318.607 12.9312 318.521 12.8396 318.521 12.7298C318.521 12.62 318.607 12.5346 318.717 12.5346H322.651C322.737 11.9307 323.109 10.0152 324.597 9.05141C325.622 8.38649 326.946 8.32548 328.538 8.85619C331.24 2.49372 335.639 0.0841675 338.603 0.541679C341.141 0.932091 342.861 3.24407 343.245 6.74556C344.752 6.05624 345.777 6.56867 346.54 7.97781C347.991 4.0432 351.298 1.26153 354.714 1.15783C357.733 1.06633 360.326 3.09154 361.833 6.72114C363.101 5.71461 364.486 5.42184 365.84 5.87325C367.982 6.58087 369.799 9.12465 370.605 12.5346H375.271C375.381 12.5346 375.473 12.62 375.473 12.7298C375.473 12.8396 375.381 12.9312 375.271 12.9312Z" fill="#100F0D"/>
<path d="M242.159 137.747C241.202 135.703 242.068 133.27 244.111 132.312C246.155 131.354 248.589 132.214 249.553 134.264C249.602 134.368 249.553 134.483 249.455 134.532C249.358 134.575 249.242 134.532 249.193 134.435C248.327 132.592 246.131 131.799 244.282 132.672C242.434 133.538 241.653 135.734 242.519 137.576C242.568 137.674 242.525 137.796 242.422 137.839C242.324 137.887 242.208 137.845 242.159 137.747Z" fill="#100F0D"/>
<path d="M315.447 64.1543L312.055 63.7272C311.945 63.715 311.872 63.6114 311.884 63.5077C311.897 63.3979 312 63.3185 312.104 63.3307L315.3 63.7395L315.703 60.543C315.715 60.4332 315.813 60.3661 315.923 60.3722C316.033 60.3844 316.106 60.4881 316.093 60.5918L315.666 63.9835C315.654 64.0933 315.551 64.1665 315.447 64.1543Z" fill="#100F0D"/>
</g>
<defs>
<clipPath id="clip0_1975_16458">
<rect width="360" height="269" fill="white" transform="translate(0 0.48761)"/>
</clipPath>
</defs>
</svg>
