<svg width="328" height="389" viewBox="0 0 328 389" fill="none" xmlns="http://www.w3.org/2000/svg">
<g filter="url(#filter0_d_1857_1161)">
<path d="M131.908 109.783C131.908 109.783 132.254 105.301 127.388 101.781C122.515 98.262 128.043 97.5627 133.908 102.045C133.908 102.045 143.301 98.6907 144.775 92.291C145.497 89.1476 151.122 93.8251 143.045 100.917C143.045 100.917 155.589 106.534 141.195 114.145" fill="#FACCBD"/>
<path d="M140.976 114.258C140.916 114.137 140.961 113.987 141.081 113.927C145.653 111.505 147.94 109.061 147.864 106.67C147.752 103.331 142.991 101.157 142.946 101.135C142.781 101.067 142.751 100.849 142.886 100.729C146.902 97.2017 147.571 94.1786 146.864 92.5242C146.556 91.8022 146.037 91.524 145.691 91.539C145.368 91.5691 145.12 91.8624 145.007 92.3512C143.525 98.8035 134.381 102.135 133.99 102.27C133.914 102.3 133.824 102.285 133.757 102.24C130.32 99.6157 127.056 98.8261 126.026 99.2698C125.785 99.3675 125.77 99.5104 125.763 99.5556C125.748 99.721 125.815 100.345 127.53 101.586C132.456 105.143 132.17 109.61 132.155 109.806C132.14 109.933 132.027 110.046 131.892 110.024C131.756 110.016 131.651 109.896 131.666 109.768C131.666 109.723 131.937 105.376 127.244 101.977C125.868 100.984 125.206 100.15 125.274 99.5029C125.296 99.2848 125.417 98.999 125.83 98.8186C127.131 98.2621 130.583 99.2322 133.945 101.766C135.05 101.345 143.194 98.0364 144.533 92.2384C144.698 91.539 145.105 91.1028 145.653 91.0577C146.3 91.0051 146.962 91.5089 147.315 92.3286C148.075 94.1034 147.451 97.2543 143.48 100.849C144.623 101.436 148.248 103.519 148.353 106.655C148.436 109.249 146.067 111.844 141.307 114.363C141.186 114.423 141.036 114.378 140.976 114.258Z" fill="#100F0D"/>
<path d="M143.112 101.082C143.112 101.082 140.729 102.172 140.526 103.3C140.323 104.428 143.797 103.819 145.308 102.375" fill="#FACCBD"/>
<path d="M141.458 104.128C141.12 104.128 140.834 104.075 140.639 103.97C140.36 103.82 140.225 103.564 140.285 103.256C140.503 102.037 142.752 100.977 143.007 100.864C143.128 100.804 143.278 100.857 143.331 100.985C143.391 101.105 143.331 101.248 143.21 101.308C142.579 101.594 140.909 102.526 140.766 103.346C140.751 103.429 140.759 103.481 140.872 103.542C141.526 103.895 143.932 103.354 145.143 102.195C145.241 102.105 145.399 102.113 145.489 102.203C145.579 102.308 145.579 102.459 145.481 102.549C144.474 103.519 142.639 104.128 141.458 104.128Z" fill="#100F0D"/>
<path d="M144.376 103.03C144.376 103.03 141.992 104.121 141.789 105.256C141.586 106.384 145.06 105.775 146.579 104.324" fill="#FACCBD"/>
<path d="M142.728 106.075C142.382 106.075 142.097 106.03 141.901 105.917C141.623 105.767 141.495 105.511 141.548 105.21C141.766 103.992 144.014 102.924 144.27 102.811C144.39 102.751 144.541 102.811 144.593 102.932C144.654 103.052 144.601 103.195 144.473 103.255C143.849 103.541 142.179 104.473 142.029 105.293C142.014 105.376 142.029 105.436 142.134 105.489C142.788 105.842 145.195 105.301 146.406 104.15C146.504 104.06 146.661 104.06 146.752 104.158C146.849 104.255 146.842 104.406 146.744 104.503C145.736 105.466 143.909 106.075 142.728 106.075Z" fill="#100F0D"/>
<path d="M145.639 104.985C145.639 104.985 143.255 106.076 143.052 107.204C142.909 108.016 144.676 107.926 146.248 107.271L145.541 109.603" fill="#FACCBD"/>
<path d="M145.466 109.836C145.338 109.798 145.27 109.656 145.308 109.528L145.864 107.678C144.774 108.054 143.555 108.197 143.044 107.791C142.849 107.633 142.766 107.415 142.811 107.159C143.029 105.941 145.285 104.88 145.541 104.76C145.661 104.707 145.804 104.76 145.864 104.88C145.917 105.008 145.864 105.151 145.744 105.204C145.112 105.497 143.443 106.422 143.292 107.249C143.277 107.332 143.3 107.369 143.345 107.407C143.661 107.663 144.894 107.572 146.15 107.046C146.24 107.008 146.338 107.024 146.406 107.091C146.481 107.151 146.503 107.249 146.481 107.339L145.774 109.671C145.736 109.806 145.593 109.874 145.466 109.836Z" fill="#100F0D"/>
<path d="M133.907 102.045C133.907 102.045 135.231 103.451 134.99 105.369L133.907 102.045Z" fill="white"/>
<path d="M134.96 105.609C134.825 105.594 134.735 105.466 134.75 105.338C134.975 103.556 133.742 102.225 133.727 102.21C133.637 102.112 133.644 101.954 133.742 101.864C133.84 101.774 133.99 101.774 134.088 101.872C134.14 101.939 135.487 103.391 135.231 105.399C135.216 105.534 135.088 105.624 134.96 105.609Z" fill="#100F0D"/>
<g filter="url(#filter1_d_1857_1161)">
<path d="M7.86182 323.702L36.2657 361.972C36.6943 362.536 37.4915 362.657 38.063 362.236L38.7698 361.709C42.3118 359.077 43.1842 354.159 40.7853 350.467L37.7246 345.781L38.1156 337.547L24.3311 318.987L21.481 315.144L16.5703 317.626L8.30554 321.8C7.59865 322.153 7.38805 323.063 7.86182 323.702Z" fill="black"/>
</g>
<path d="M16.3512 317.731C16.291 317.611 16.3436 317.468 16.464 317.408C16.5843 317.348 16.7272 317.401 16.7874 317.521C18.1185 320.243 21.856 320.995 24.1647 318.814C24.2624 318.717 24.4203 318.724 24.5106 318.822C24.6008 318.92 24.6009 319.07 24.5031 319.168C21.9462 321.582 17.8176 320.739 16.3512 317.731Z" fill="#100F0D"/>
<path d="M35.8054 356.37L11.8235 322.469C11.7408 322.356 11.7708 322.206 11.8836 322.131C11.9889 322.048 12.1393 322.078 12.222 322.183L36.2039 356.092C36.2866 356.197 36.2566 356.348 36.1513 356.43C36.0385 356.506 35.8882 356.483 35.8054 356.37Z" fill="#100F0D"/>
<path d="M37.9268 340.337L35.8062 339.728C35.6708 339.69 35.5956 339.555 35.6332 339.427C35.6708 339.299 35.8061 339.216 35.9415 339.262L38.0546 339.871C38.19 339.908 38.2653 340.044 38.2277 340.172C38.1825 340.307 38.0472 340.375 37.9268 340.337Z" fill="#100F0D"/>
<path d="M37.9422 342.142L35.8216 341.533C35.6937 341.495 35.6186 341.36 35.6562 341.232C35.6938 341.097 35.8292 341.022 35.957 341.067L38.0776 341.676C38.2055 341.706 38.2806 341.841 38.243 341.977C38.2054 342.112 38.0625 342.18 37.9422 342.142Z" fill="#100F0D"/>
<path d="M37.9643 343.947L35.8436 343.337C35.7083 343.3 35.6405 343.164 35.6706 343.029C35.7082 342.901 35.8436 342.826 35.9789 342.864L38.0997 343.473C38.2276 343.51 38.3027 343.646 38.2651 343.774C38.2275 343.909 38.0846 343.984 37.9643 343.947Z" fill="#100F0D"/>
<g filter="url(#filter2_d_1857_1161)">
<path d="M60.5252 378.096L108.136 380.315C108.842 380.345 109.437 379.803 109.474 379.097L109.512 378.217C109.715 373.81 106.459 370.02 102.082 369.546L96.5168 368.952L90.3879 363.432L67.3009 362.364L62.5181 362.146C62.4579 362.417 59.352 376.465 59.337 376.555C59.164 377.329 59.7281 378.066 60.5252 378.096Z" fill="black"/>
</g>
<path d="M61.2775 367.756C61.1421 367.718 61.0594 367.59 61.097 367.455C61.1271 367.327 61.2549 367.252 61.3903 367.274C62.007 367.425 62.6537 367.425 63.3079 367.297C65.6166 366.838 67.226 364.725 67.0531 362.379C67.0455 362.243 67.1433 362.131 67.2787 362.123C67.4291 362.108 67.5344 362.213 67.5419 362.349C67.7299 364.936 65.9476 367.267 63.4058 367.778C62.6989 367.921 61.9769 367.914 61.2775 367.756Z" fill="#100F0D"/>
<path d="M103.526 377.133C57.344 373.922 62.4727 374.283 62.0741 374.253C61.9463 374.246 61.841 374.125 61.8485 373.99C61.8636 373.855 61.9613 373.764 62.1117 373.764L103.541 376.645C103.676 376.652 103.774 376.765 103.766 376.9C103.759 377.036 103.653 377.133 103.526 377.133Z" fill="#100F0D"/>
<path d="M90.2753 366.545C90.2001 366.432 90.2302 366.282 90.343 366.207L92.1553 364.951C92.2606 364.868 92.4185 364.898 92.4937 365.011C92.5689 365.124 92.5464 365.274 92.4336 365.349L90.6212 366.605C90.5084 366.68 90.358 366.658 90.2753 366.545Z" fill="#100F0D"/>
<path d="M91.884 367.771C91.6434 367.771 91.5531 367.463 91.7486 367.327L93.5611 366.072C93.6739 365.996 93.8243 366.019 93.8995 366.132C93.9747 366.245 93.9521 366.395 93.8393 366.478C91.9292 367.779 92.0269 367.771 91.884 367.771Z" fill="#100F0D"/>
<path d="M93.0949 368.793C93.0122 368.68 93.0424 368.53 93.1552 368.455L94.9675 367.199C95.0803 367.124 95.2307 367.146 95.3059 367.259C95.3886 367.372 95.3585 367.522 95.2457 367.597L93.4333 368.853C93.3281 368.928 93.1701 368.906 93.0949 368.793Z" fill="#100F0D"/>
<path d="M29.7681 228.843C29.7681 228.843 46.5908 239.409 59.8339 229.745C73.0694 220.089 64.1655 200.266 64.1655 200.266L30.2719 219.924L29.7681 228.843Z" fill="#100F0D"/>
<path d="M112.032 279.1C111.235 284.65 108.061 290.651 103.489 296.69C99.3452 302.172 94.051 307.699 88.3431 312.963C68.7982 330.989 44.3725 345.984 44.3725 345.984L21.4961 315.452C21.4961 315.452 64.4064 291.486 63.0001 272.174C61.5788 252.862 48.3958 220.074 49.3358 210.185H94.7729C94.7729 210.185 116.04 251.305 112.032 279.1Z" fill="#2F2F2F"/>
<path d="M21.8633 315.528L44.4389 345.662C46.7626 344.218 69.7744 329.756 88.1763 312.791C94.3955 307.038 99.4867 301.578 103.292 296.547C108.203 290.057 111.06 284.176 111.79 279.07C115.625 252.449 95.9373 213.028 94.6212 210.433H49.5601C49.2067 215.322 52.0418 225.323 55.3131 236.874C58.6896 248.786 62.5174 262.285 63.2394 272.159C64.6081 290.854 25.6836 313.37 21.8633 315.528ZM44.1757 346.135L21.2993 315.603C21.2166 315.483 21.2466 315.31 21.382 315.242C21.8031 315.002 64.1343 291.133 62.7506 272.189C62.0286 262.368 58.2159 248.899 54.8469 237.01C51.5079 225.233 48.6201 215.058 49.0939 210.163C49.1014 210.042 49.2067 209.945 49.3345 209.945H94.7716C94.8619 209.945 94.9446 209.997 94.9897 210.072C95.2003 210.486 116.242 251.584 112.279 279.138C111.527 284.327 108.639 290.283 103.683 296.841C99.8628 301.894 94.749 307.384 88.5072 313.144C69.1653 330.982 44.7473 346.045 44.4991 346.196C44.3938 346.263 44.2509 346.233 44.1757 346.135Z" fill="#100F0D"/>
<path d="M103.488 296.69C99.3448 302.172 94.0506 307.699 88.3428 312.964L91.8848 253.84L103.488 296.69Z" fill="#100F0D"/>
<path d="M78.3033 210.185C99.3749 261.27 100.856 312.114 97.3895 363.762L62.541 362.198C62.541 362.198 63.7817 305.737 55.2764 286.846C46.1619 266.601 32.0991 238.709 39.4088 210.185" fill="#424242"/>
<path d="M97.3892 364.003H97.3817L62.5331 362.446C62.3977 362.439 62.2925 362.326 62.3 362.198C62.3075 361.634 63.4431 305.571 55.0581 286.944C54.4791 285.665 53.8774 284.349 53.2683 283.003C44.4245 263.556 32.3095 236.927 39.1679 210.125C39.2055 209.997 78.3933 210.057 78.5286 210.095C78.6565 210.125 39.6793 210.117 39.6417 210.245C32.8209 236.874 44.8983 263.42 53.712 282.8C54.3286 284.146 54.9226 285.462 55.5017 286.748C63.6536 304.842 62.864 357.934 62.7888 361.965L97.1636 363.507C100.209 317.942 100.292 264.127 78.0774 210.283C78.0248 210.155 78.0849 210.012 78.2052 209.959C78.333 209.907 78.476 209.967 78.5286 210.095C100.826 264.135 100.698 318.107 97.6374 363.777C97.6299 363.905 97.5246 364.003 97.3892 364.003Z" fill="#100F0D"/>
<path d="M58.0665 223.195C58.0665 223.195 59.9615 226.902 63.0974 228.444L50.5613 240.469C50.5613 240.469 44.1165 238.198 42.4019 230.091" fill="#FACCBD"/>
<path d="M50.4854 240.702C50.4177 240.68 43.8827 238.288 42.1606 230.136C42.1305 230.009 42.2208 229.881 42.3486 229.851C42.484 229.821 42.6117 229.903 42.6418 230.039C44.1684 237.273 49.5755 239.8 50.508 240.183L62.6831 228.504C59.6901 226.873 57.9229 223.458 57.8477 223.308C57.7875 223.188 57.8327 223.037 57.953 222.977C58.0733 222.917 58.2236 222.962 58.2838 223.082C58.2988 223.12 60.1789 226.745 63.202 228.226C63.3524 228.301 63.3826 228.504 63.2622 228.625L50.7336 240.642C50.6659 240.71 50.5606 240.725 50.4854 240.702Z" fill="#100F0D"/>
<path d="M149.054 117.942C139.541 143.21 128.095 162.612 101.609 167.876C98.4804 168.508 95.1414 168.929 91.5769 169.147C91.5769 169.147 122.162 216.743 97.7735 222.007C73.393 227.263 36.9576 211.644 29.7683 228.835C29.7683 228.835 -1.81643 160.055 30.5806 142.458C35.6793 139.691 46.5609 133.832 52.3289 134.389C105.888 139.57 110.167 132.84 125.2 106.414L149.054 117.942Z" fill="#6680FF"/>
<path d="M60.3598 220.435C55.0956 226.767 49.8239 233.069 44.5447 239.386C26.3007 231.009 13.757 219.631 7.85368 206.673C4.16126 198.567 3.06328 189.836 4.81549 180.826C6.9813 169.614 13.554 157.958 24.9847 146.564C31.3318 150.633 38.8445 154.017 45.2066 158.063C26.7069 191.994 25.2555 198.108 60.3598 220.435Z" fill="#6680FF"/>
<path d="M44.3802 239.574C44.2824 239.483 44.2674 239.333 44.3501 239.228C50.3286 232.084 55.3446 226.09 59.9921 220.495C30.6558 201.807 27.0686 194.152 37.3638 172.561C37.4239 172.441 37.5669 172.388 37.6947 172.448C37.815 172.501 37.8677 172.651 37.8075 172.772C27.5274 194.325 30.919 201.424 60.4884 220.232C60.6162 220.314 60.6389 220.48 60.5486 220.593C55.8259 226.286 51.1183 231.903 44.7261 239.544C44.6434 239.649 44.4855 239.656 44.3802 239.574Z" fill="#100F0D"/>
<path d="M55.0051 125.748C55.0051 125.748 59.0059 125.478 62.9239 122.943C68.8348 119.131 61.1942 103.165 55.9526 100.729C50.8314 98.3524 37.0771 101.06 37.1222 106.707C37.1823 114.303 43.3939 136.57 43.3939 136.57L55.5843 142.977L56.5694 134.78L55.0051 125.748Z" fill="#FACCBD"/>
<path d="M43.5981 136.397L55.3822 142.594L56.3297 134.788L54.7656 125.794C54.7355 125.643 54.8483 125.515 54.9837 125.508C55.0288 125.5 58.9768 125.2 62.797 122.741C64.6771 121.522 64.9253 119.063 64.7899 117.213C64.3537 110.881 59.3003 102.556 55.8485 100.955C50.7949 98.6082 37.3262 101.338 37.3638 106.707C37.424 113.919 43.1469 134.758 43.5981 136.397ZM55.4725 143.195L43.2746 136.781L43.1543 136.63C43.0942 136.412 36.9426 114.25 36.8825 106.707C36.8298 100.842 50.7873 98.0668 56.059 100.511C60.0296 102.353 64.8576 111.077 65.2787 117.176C65.4818 120.018 64.7072 122.086 63.0602 123.154C59.6686 125.343 56.2621 125.861 55.292 125.967L56.811 134.743L56.8185 134.81L55.8259 143.007C55.8108 143.18 55.6154 143.271 55.4725 143.195Z" fill="#100F0D"/>
<path d="M35.4461 118.273C35.4461 118.273 27.2491 102.654 36.9426 103.932C36.9426 103.932 33.6563 95.3594 39.0107 93.4417C42.1993 92.2987 45.2149 96.3821 45.2149 96.3821C45.2149 96.3821 44.3048 88.1099 50.1631 88.6439C54.3518 89.0274 55.5024 94.2389 55.5024 94.2389C55.5024 94.2389 62.2706 91.1631 64.7522 96.1565C66.7 100.09 59.5182 104.053 59.5182 104.053C59.5182 104.053 53.3892 109.069 46.0947 107.196C38.8001 105.324 53.7729 113.581 41.2969 115.98" fill="#100F0D"/>
<path d="M43.3936 118.273C43.3936 120.469 41.6113 122.236 39.4079 122.236C37.2195 122.236 35.4448 120.469 35.4448 118.273C35.4448 116.07 37.2195 114.303 39.4079 114.303C41.6113 114.303 43.3936 116.07 43.3936 118.273Z" fill="#FACCBD"/>
<path d="M39.4086 114.551C37.3556 114.551 35.6861 116.22 35.6861 118.273C35.6861 120.326 37.3556 121.996 39.4086 121.996C41.4691 121.996 43.1462 120.326 43.1462 118.273C43.1462 116.22 41.4691 114.551 39.4086 114.551ZM39.4086 122.485C37.0848 122.485 35.1973 120.597 35.1973 118.273C35.1973 115.95 37.0848 114.062 39.4086 114.062C41.7398 114.062 43.635 115.95 43.635 118.273C43.635 120.597 41.7398 122.485 39.4086 122.485Z" fill="#100F0D"/>
<path d="M45.9129 245.191C45.8227 245.101 45.8228 244.943 45.9205 244.845L65.5331 225.729C65.6309 225.631 65.7813 225.639 65.879 225.729C65.9768 225.827 65.9693 225.985 65.8715 226.075L46.259 245.199C46.1612 245.289 46.0107 245.289 45.9129 245.191Z" fill="#100F0D"/>
<path d="M58.9536 117.423C58.8258 117.386 58.7506 117.243 58.7882 117.115C58.8258 116.987 58.9612 116.912 59.0965 116.95C59.7358 117.145 60.5856 116.867 60.8488 116.506C61.4504 115.709 60.0742 114.769 59.3974 114.145C58.337 113.167 57.7053 112.024 57.5699 110.843C57.5548 110.708 57.6527 110.588 57.7805 110.572C57.9234 110.557 58.0361 110.655 58.0587 110.791C58.179 111.851 58.7582 112.889 59.7283 113.784C60.4878 114.49 62.1422 115.611 61.2398 116.799C60.8262 117.348 59.7733 117.656 58.9536 117.423Z" fill="#100F0D"/>
<path d="M61.7734 111.084C61.7734 111.581 61.3749 111.994 60.8635 111.994C60.3672 111.994 59.9536 111.581 59.9536 111.084C59.9536 110.573 60.3672 110.174 60.8635 110.174C61.3749 110.174 61.7734 110.573 61.7734 111.084Z" fill="#100F0D"/>
<path d="M54.9985 112.904C54.9985 113.401 54.6 113.814 54.0886 113.814C53.5923 113.814 53.1787 113.401 53.1787 112.904C53.1787 112.393 53.5923 111.994 54.0886 111.994C54.6 111.994 54.9985 112.393 54.9985 112.904Z" fill="#100F0D"/>
<path d="M59.6612 120.371C59.2927 120.371 59.052 120.296 59.0295 120.288C58.9016 120.251 58.8265 120.108 58.8716 119.98C58.9092 119.852 59.0445 119.785 59.1799 119.822C59.2325 119.845 60.4432 120.191 61.7066 118.957C61.8044 118.86 61.9624 118.867 62.0527 118.957C62.1504 119.055 62.1504 119.213 62.0527 119.303C61.1427 120.191 60.2403 120.371 59.6612 120.371Z" fill="#100F0D"/>
<path d="M55.005 125.749C55.005 125.749 51.2299 126.328 48.2368 124.553C48.2368 124.553 49.1318 128.328 55.5841 129.103L55.005 125.749Z" fill="#100F0D"/>
<path d="M48.7267 125.094C49.2757 126.124 50.9001 128.2 55.2919 128.816L54.8031 126.019C53.9834 126.109 51.2159 126.29 48.7267 125.094ZM55.5551 129.343C49.0125 128.561 48.0349 124.771 47.9973 124.605C47.9447 124.395 48.1777 124.229 48.3582 124.342C51.2384 126.049 54.9309 125.515 54.9685 125.508C55.0963 125.485 55.2242 125.575 55.2468 125.711L55.8258 129.057C55.8559 129.223 55.713 129.365 55.5551 129.343Z" fill="#100F0D"/>
<path d="M277.024 237.589V376.885H326.537V237.589H277.024Z" fill="#DFCEFF"/>
<path d="M277.266 376.645H326.29V237.829H277.266V376.645ZM326.538 377.133H277.025C276.89 377.133 276.777 377.021 276.777 376.885V237.589C276.777 237.453 276.89 237.34 277.025 237.34H326.538C326.673 237.34 326.779 237.453 326.779 237.589V376.885C326.779 377.021 326.673 377.133 326.538 377.133Z" fill="#100F0D"/>
<path d="M309.286 237.589V376.885H326.537V237.589H309.286Z" fill="#AB8DE5"/>
<path d="M309.527 376.645H326.289V237.829H309.527V376.645ZM326.538 377.133H309.286C309.151 377.133 309.038 377.021 309.038 376.885V237.589C309.038 237.453 309.151 237.34 309.286 237.34H326.538C326.673 237.34 326.778 237.453 326.778 237.589V376.885C326.778 377.021 326.673 377.133 326.538 377.133Z" fill="#AB8DE5"/>
<path d="M206.207 268.361V376.885H255.72V268.361H206.207Z" fill="#CAEEEC"/>
<path d="M206.455 376.645H255.479V268.609H206.455V376.645ZM255.719 377.133H206.206C206.071 377.133 205.966 377.021 205.966 376.885V268.361C205.966 268.226 206.071 268.121 206.206 268.121H255.719C255.855 268.121 255.968 268.226 255.968 268.361V376.885C255.968 377.021 255.855 377.133 255.719 377.133Z" fill="#100F0D"/>
<path d="M238.468 268.361V376.885H255.719V268.361H238.468Z" fill="#6680FF"/>
<path d="M238.716 376.645H255.478V268.609H238.716V376.645ZM255.719 377.133H238.468C238.332 377.133 238.227 377.021 238.227 376.885V268.361C238.227 268.226 238.332 268.121 238.468 268.121H255.719C255.854 268.121 255.967 268.226 255.967 268.361V376.885C255.967 377.021 255.854 377.133 255.719 377.133Z" fill="#100F0D"/>
<path d="M134.72 322.627V376.885H184.233V322.627H134.72Z" fill="#FFEBD0"/>
<path d="M134.968 376.645H183.992V322.868H134.968V376.645ZM184.233 377.133H134.72C134.584 377.133 134.479 377.021 134.479 376.885V322.627C134.479 322.492 134.584 322.379 134.72 322.379H184.233C184.368 322.379 184.481 322.492 184.481 322.627V376.885C184.481 377.021 184.368 377.133 184.233 377.133Z" fill="#100F0D"/>
<path d="M166.981 322.627V376.885H184.233V322.627H166.981Z" fill="#FAB95F"/>
<path d="M167.231 376.645H183.993V322.868H167.231V376.645ZM184.234 377.133H166.982C166.847 377.133 166.742 377.021 166.742 376.885V322.627C166.742 322.492 166.847 322.379 166.982 322.379H184.234C184.369 322.379 184.482 322.492 184.482 322.627V376.885C184.482 377.021 184.369 377.133 184.234 377.133Z" fill="#100F0D"/>
<path d="M101.607 167.877C98.479 168.508 95.14 168.929 91.5754 169.147C91.5754 169.147 88.1537 157.92 78.2646 148.948C78.2646 148.948 90.6956 149.196 101.607 167.877Z" fill="#4968FF"/>
<path d="M123.364 121.094L143.045 126.824L123.364 121.094Z" fill="white"/>
<path d="M143.045 127.072L142.977 127.064L123.297 121.326C123.169 121.289 123.094 121.153 123.131 121.026C123.169 120.89 123.304 120.815 123.432 120.853L143.112 126.59C143.24 126.628 143.316 126.763 143.278 126.891C143.248 127.004 143.15 127.072 143.045 127.072Z" fill="#100F0D"/>
<path d="M38.0169 234.746C37.8966 234.679 37.8516 234.536 37.9193 234.415L48.2144 215.276C48.2821 215.156 48.4324 215.111 48.5452 215.179C48.6655 215.239 48.7107 215.389 48.643 215.51L38.3479 234.648C38.2802 234.769 38.1298 234.806 38.0169 234.746Z" fill="#100F0D"/>
<path d="M127.267 113.408C126.372 113.408 125.65 114.137 125.65 115.024C125.65 115.912 126.372 116.634 127.267 116.634C128.155 116.634 128.877 115.912 128.877 115.024C128.877 114.137 128.155 113.408 127.267 113.408ZM127.267 117.123C126.102 117.123 125.162 116.183 125.162 115.024C125.162 113.866 126.102 112.919 127.267 112.919C128.425 112.919 129.365 113.866 129.365 115.024C129.365 116.183 128.425 117.123 127.267 117.123Z" fill="#100F0D"/>
<path d="M51.2746 219.728C50.3872 219.728 49.6578 220.45 49.6578 221.338C49.6578 222.225 50.3872 222.947 51.2746 222.947C52.1695 222.947 52.8914 222.225 52.8914 221.338C52.8914 220.45 52.1695 219.728 51.2746 219.728ZM51.2746 223.436C50.1165 223.436 49.1689 222.496 49.1689 221.338C49.1689 220.179 50.1165 219.239 51.2746 219.239C52.4327 219.239 53.3803 220.179 53.3803 221.338C53.3803 222.496 52.4327 223.436 51.2746 223.436Z" fill="#100F0D"/>
<path d="M98.0817 352.399H74.1524C74.017 352.399 73.9043 352.286 73.9043 352.151C73.9043 352.023 74.017 351.91 74.1524 351.91H98.0817C98.2171 351.91 98.3298 352.023 98.3298 352.151C98.3298 352.286 98.2171 352.399 98.0817 352.399Z" fill="#100F0D"/>
<path d="M53.8032 338.953L37.1686 313.445C37.1009 313.332 37.131 313.182 37.2438 313.107C37.3566 313.031 37.507 313.069 37.5822 313.182L54.2093 338.683C54.2845 338.796 54.2545 338.946 54.1341 339.021C54.0289 339.089 53.8784 339.066 53.8032 338.953Z" fill="#100F0D"/>
<path d="M14.2834 194.551C14.2834 199.589 11.7341 204.041 7.85368 206.673C4.16126 198.567 3.06328 189.836 4.81549 180.826C10.3504 182.932 14.2834 188.271 14.2834 194.551Z" fill="#4968FF"/>
<path d="M134.848 146.384C130.675 152.175 125.764 157.078 119.755 160.86C118.853 159.289 118.334 157.461 118.334 155.513C118.334 149.557 123.169 144.73 129.118 144.73C131.224 144.73 133.186 145.331 134.848 146.384Z" fill="#4968FF"/>
<path d="M139.89 28.2961C140.845 45.5023 126.248 62.8288 107.29 66.995C88.3238 71.1612 72.1705 60.5878 71.2154 43.3816C70.2528 26.1679 84.8495 8.84131 103.815 4.67513C122.781 0.508934 138.927 11.0823 139.89 28.2961Z" fill="#FFDEB0"/>
<path d="M103.869 4.91594C85.0458 9.05204 70.5093 26.2958 71.4568 43.3667C71.878 50.9245 75.3297 57.5272 81.1654 61.9642C87.9937 67.1456 97.4993 68.8977 107.238 66.7545C126.061 62.6259 140.597 45.3746 139.642 28.3113C138.68 10.9998 122.384 0.847511 103.869 4.91594ZM70.968 43.3968C70.0054 26.1003 84.7149 8.6234 103.764 4.43465C122.707 0.275986 139.161 10.7817 140.131 28.2812C141.094 45.5777 126.384 63.0471 107.343 67.2358C88.5577 71.3569 71.9532 61.0392 70.968 43.3968Z" fill="#100F0D"/>
<path d="M136.055 25.6343C137.018 42.848 122.421 60.1745 103.455 64.3407C84.4892 68.5069 68.3434 57.9335 67.3808 40.7198C66.4257 23.5136 81.0149 6.18705 99.9808 2.02086C118.947 -2.14533 135.1 8.42806 136.055 25.6343Z" fill="#FFEBD0"/>
<path d="M100.034 2.25395C81.2184 6.39006 66.6743 23.6414 67.6294 40.7122C68.0505 48.27 71.4947 54.8728 77.3304 59.3022C84.1588 64.4911 93.6644 66.2358 103.403 64.1C122.226 59.9639 136.763 42.7201 135.815 25.6493C135.394 18.0915 131.942 11.4812 126.106 7.05182C118.857 1.54704 109.163 0.253578 100.034 2.25395ZM67.1406 40.7348C66.1704 23.4383 80.8875 5.96138 99.9286 1.78016C109.81 -0.393181 119.459 1.38914 126.4 6.66079C132.356 11.1804 135.868 17.9185 136.304 25.6267C137.266 42.9156 122.557 60.3926 103.508 64.5738C84.7303 68.7024 68.1182 58.3847 67.1406 40.7348Z" fill="#100F0D"/>
<path d="M127.745 27.4618C128.474 40.5093 117.412 53.6396 103.034 56.7981C88.6625 59.9565 76.4196 51.94 75.6902 38.8925C74.9682 25.8524 86.0304 12.7147 100.401 9.55621C114.78 6.40525 127.015 14.4142 127.745 27.4618Z" fill="#FAB95F"/>
<path d="M105.243 29.9848L105.082 30.8997L106.378 31.128L106.099 32.7139L104.712 32.4695C104.39 33.3456 103.871 33.9671 103.157 34.3339C102.444 34.6905 101.483 34.7623 100.273 34.5493L100.166 35.1593C100.096 35.5557 100.118 35.8792 100.231 36.1297C100.346 36.3701 100.591 36.5233 100.967 36.5896C101.323 36.6522 101.596 36.5902 101.786 36.4036C101.976 36.217 102.109 35.9102 102.184 35.4832L104.594 35.9075C104.372 36.9271 103.927 37.6714 103.257 38.1404C102.598 38.6113 101.739 38.7536 100.682 38.5674C99.5435 38.3669 98.7211 37.9182 98.215 37.2211C97.7208 36.5157 97.5785 35.5683 97.7879 34.3789L98.1343 32.4118C99.1916 32.598 99.9728 32.7146 100.478 32.7617C100.995 32.8003 101.389 32.77 101.658 32.6706C101.939 32.5629 102.148 32.3535 102.287 32.0425L98.0326 31.2934L98.3118 29.7075L102.642 30.4701L102.804 29.5552L98.4729 28.7926L98.7817 27.0389L106.848 28.4594L106.54 30.213L105.243 29.9848Z" fill="white"/>
<path d="M148.726 74.3351C148.599 74.305 148.508 74.1772 148.531 74.0493C149.012 71.5676 149.9 64.8672 148.23 63.6865C147.538 63.1977 146.064 64.0625 144.628 64.9048C142.973 65.8824 141.402 66.8074 140.484 66.0478C138.303 64.243 141.251 55.8279 141.59 54.8728C141.635 54.745 141.778 54.6773 141.906 54.7224C142.034 54.7675 142.094 54.9104 142.048 55.0383C141.154 57.5425 139.168 64.3332 140.8 65.6718C141.454 66.2133 142.943 65.3334 144.38 64.4836C146.019 63.5211 147.568 62.6111 148.516 63.2879C150.779 64.8973 149.087 73.7636 149.012 74.1396C148.99 74.2674 148.869 74.3577 148.726 74.3351Z" fill="#100F0D"/>
<path d="M147.199 36.0722C147.064 36.0647 146.959 35.9444 146.974 35.809C146.989 35.6737 147.116 35.5834 147.237 35.5909C149.891 35.8241 156.96 35.997 157.84 34.0869C158.194 33.3123 156.968 32.1016 155.78 30.9209C154.426 29.5823 153.155 28.3189 153.561 27.236C154.539 24.634 163.548 24.0023 163.932 23.9798C164.059 23.9798 164.18 24.07 164.187 24.2054C164.202 24.3407 164.097 24.4535 163.962 24.4686C161.442 24.634 154.742 25.4913 154.02 27.409C153.719 28.1986 154.945 29.4018 156.126 30.575C157.494 31.9286 158.78 33.2071 158.284 34.29C157.209 36.6212 149.756 36.2978 147.199 36.0722Z" fill="#100F0D"/>
<path d="M145.771 45.51C145.68 45.4122 145.688 45.2543 145.786 45.1641C145.884 45.0738 146.042 45.0889 146.132 45.1866C147.907 47.1644 152.96 52.1278 154.9 51.3381C155.682 51.0148 155.622 49.2851 155.555 47.6156C155.487 45.7205 155.419 43.9232 156.457 43.4119C158.954 42.1785 165.955 47.8713 166.256 48.1195C166.354 48.2022 166.376 48.3601 166.286 48.4579C166.203 48.5632 166.045 48.5782 165.94 48.4955C163.985 46.8937 158.51 42.9381 156.675 43.848C155.915 44.2241 155.983 45.9387 156.043 47.6006C156.119 49.5183 156.186 51.3381 155.088 51.7893C152.704 52.7594 147.478 47.4126 145.771 45.51Z" fill="#100F0D"/>
<path d="M295.208 117.86C295.125 117.747 295.148 117.597 295.261 117.514C297.291 116.048 297.75 113.197 296.284 111.167C294.817 109.137 291.967 108.678 289.937 110.144C289.824 110.219 289.673 110.197 289.591 110.092C289.515 109.979 289.538 109.828 289.651 109.746C291.899 108.121 295.058 108.633 296.682 110.881C298.307 113.13 297.795 116.288 295.547 117.913C295.434 117.995 295.283 117.965 295.208 117.86Z" fill="#100F0D"/>
<path d="M18.6895 276.37C16.1703 275.205 15.0648 272.212 16.2305 269.692C17.3961 267.158 20.3892 266.06 22.9085 267.226C23.0363 267.286 23.0889 267.429 23.0288 267.549C22.9761 267.677 22.8257 267.729 22.7053 267.669C20.4267 266.616 17.7195 267.617 16.6742 269.895C15.6214 272.166 16.6215 274.874 18.9001 275.926C19.0205 275.987 19.0731 276.13 19.0129 276.25C18.9603 276.378 18.8098 276.423 18.6895 276.37Z" fill="#100F0D"/>
<path d="M54.6813 67.6774H54.6661C54.5308 67.6699 54.433 67.5571 54.4405 67.4217C54.606 64.91 52.7108 62.7517 50.1991 62.5863C47.7174 62.4133 45.5291 64.3009 45.3637 66.8277C45.3562 66.963 45.2358 67.0533 45.108 67.0533C44.9726 67.0457 44.8674 66.9254 44.8749 66.7976C45.0554 64.0753 47.364 61.9395 50.2292 62.0975C53.0042 62.278 55.1098 64.6844 54.9293 67.4518C54.9218 67.5797 54.8091 67.6774 54.6813 67.6774Z" fill="#100F0D"/>
<rect x="239.342" y="97.6543" width="48.4408" height="32.9807" rx="5" fill="#EBDEFF"/>
<rect x="245.231" y="103.63" width="7.00993" height="21.0306" fill="#AF8DE1"/>
<rect x="257.378" y="113.131" width="7.00993" height="11.5291" fill="#AF8DE1"/>
<rect x="269.525" y="103.63" width="7.00993" height="21.0306" fill="#AF8DE1"/>
<rect x="239.342" y="199.145" width="42.291" height="17.7691" fill="#7DE5E8"/>
<path d="M255.94 228.227L259.878 211.259H252.003L255.94 228.227Z" fill="#7DE5E8"/>
<path d="M248.859 205.602L252.667 212.197H245.052L248.859 205.602Z" fill="white"/>
<path d="M271.942 212.427L275.749 205.832H268.134L271.942 212.427Z" fill="white"/>
<circle cx="260.092" cy="209.625" r="2.86791" fill="white"/>
<rect x="166.343" y="170.805" width="28.8292" height="19.224" fill="#D9D9D9"/>
<path d="M166.542 171.089L181.83 179.155L194.967 171.089" stroke="#868686" stroke-width="0.4"/>
<circle cx="194.967" cy="170.805" r="3.81453" fill="#F8DB90"/>
</g>
<defs>
<filter id="filter0_d_1857_1161" x="0" y="0.874695" width="330.779" height="387.441" filterUnits="userSpaceOnUse" color-interpolation-filters="sRGB">
<feFlood flood-opacity="0" result="BackgroundImageFix"/>
<feColorMatrix in="SourceAlpha" type="matrix" values="0 0 0 0 0 0 0 0 0 0 0 0 0 0 0 0 0 0 127 0" result="hardAlpha"/>
<feOffset dy="4"/>
<feGaussianBlur stdDeviation="2"/>
<feComposite in2="hardAlpha" operator="out"/>
<feColorMatrix type="matrix" values="0 0 0 0 0 0 0 0 0 0 0 0 0 0 0 0 0 0 0.25 0"/>
<feBlend mode="normal" in2="BackgroundImageFix" result="effect1_dropShadow_1857_1161"/>
<feBlend mode="normal" in="SourceGraphic" in2="effect1_dropShadow_1857_1161" result="shape"/>
</filter>
<filter id="filter1_d_1857_1161" x="3.60742" y="315.144" width="42.5286" height="55.3431" filterUnits="userSpaceOnUse" color-interpolation-filters="sRGB">
<feFlood flood-opacity="0" result="BackgroundImageFix"/>
<feColorMatrix in="SourceAlpha" type="matrix" values="0 0 0 0 0 0 0 0 0 0 0 0 0 0 0 0 0 0 127 0" result="hardAlpha"/>
<feOffset dy="4"/>
<feGaussianBlur stdDeviation="2"/>
<feComposite in2="hardAlpha" operator="out"/>
<feColorMatrix type="matrix" values="0 0 0 0 0 0 0 0 0 0 0 0 0 0 0 0 0 0 0.25 0"/>
<feBlend mode="normal" in2="BackgroundImageFix" result="effect1_dropShadow_1857_1161"/>
<feBlend mode="normal" in="SourceGraphic" in2="effect1_dropShadow_1857_1161" result="shape"/>
</filter>
<filter id="filter2_d_1857_1161" x="55.3057" y="362.146" width="58.2151" height="26.17" filterUnits="userSpaceOnUse" color-interpolation-filters="sRGB">
<feFlood flood-opacity="0" result="BackgroundImageFix"/>
<feColorMatrix in="SourceAlpha" type="matrix" values="0 0 0 0 0 0 0 0 0 0 0 0 0 0 0 0 0 0 127 0" result="hardAlpha"/>
<feOffset dy="4"/>
<feGaussianBlur stdDeviation="2"/>
<feComposite in2="hardAlpha" operator="out"/>
<feColorMatrix type="matrix" values="0 0 0 0 0 0 0 0 0 0 0 0 0 0 0 0 0 0 0.25 0"/>
<feBlend mode="normal" in2="BackgroundImageFix" result="effect1_dropShadow_1857_1161"/>
<feBlend mode="normal" in="SourceGraphic" in2="effect1_dropShadow_1857_1161" result="shape"/>
</filter>
</defs>
</svg>
