<svg width="21" height="20" viewBox="0 0 21 20" fill="none" xmlns="http://www.w3.org/2000/svg">
<path d="M5.2168 4.5H5.2268M16.2168 4.5H16.2268M5.2168 15.5H5.2268M11.7168 11H11.7268M16.2168 15.5H16.2268M15.7168 19H19.7168V15M12.7168 14.5V19M19.7168 12H15.2168M14.3168 8H18.1168C18.6768 8 18.9569 8 19.1708 7.89101C19.3589 7.79513 19.5119 7.64215 19.6078 7.45399C19.7168 7.24008 19.7168 6.96005 19.7168 6.4V2.6C19.7168 2.03995 19.7168 1.75992 19.6078 1.54601C19.5119 1.35785 19.3589 1.20487 19.1708 1.10899C18.9569 1 18.6768 1 18.1168 1H14.3168C13.7567 1 13.4767 1 13.2628 1.10899C13.0746 1.20487 12.9217 1.35785 12.8258 1.54601C12.7168 1.75992 12.7168 2.03995 12.7168 2.6V6.4C12.7168 6.96005 12.7168 7.24008 12.8258 7.45399C12.9217 7.64215 13.0746 7.79513 13.2628 7.89101C13.4767 8 13.7567 8 14.3168 8ZM3.3168 8H7.1168C7.67685 8 7.95688 8 8.17079 7.89101C8.35895 7.79513 8.51193 7.64215 8.6078 7.45399C8.7168 7.24008 8.7168 6.96005 8.7168 6.4V2.6C8.7168 2.03995 8.7168 1.75992 8.6078 1.54601C8.51193 1.35785 8.35895 1.20487 8.17079 1.10899C7.95688 1 7.67685 1 7.1168 1H3.3168C2.75674 1 2.47672 1 2.26281 1.10899C2.07464 1.20487 1.92166 1.35785 1.82579 1.54601C1.7168 1.75992 1.7168 2.03995 1.7168 2.6V6.4C1.7168 6.96005 1.7168 7.24008 1.82579 7.45399C1.92166 7.64215 2.07464 7.79513 2.26281 7.89101C2.47672 8 2.75674 8 3.3168 8ZM3.3168 19H7.1168C7.67685 19 7.95688 19 8.17079 18.891C8.35895 18.7951 8.51193 18.6422 8.6078 18.454C8.7168 18.2401 8.7168 17.9601 8.7168 17.4V13.6C8.7168 13.0399 8.7168 12.7599 8.6078 12.546C8.51193 12.3578 8.35895 12.2049 8.17079 12.109C7.95688 12 7.67685 12 7.1168 12H3.3168C2.75674 12 2.47672 12 2.26281 12.109C2.07464 12.2049 1.92166 12.3578 1.82579 12.546C1.7168 12.7599 1.7168 13.0399 1.7168 13.6V17.4C1.7168 17.9601 1.7168 18.2401 1.82579 18.454C1.92166 18.6422 2.07464 18.7951 2.26281 18.891C2.47672 19 2.75674 19 3.3168 19Z" stroke="#404040" stroke-width="2" stroke-linecap="round" stroke-linejoin="round"/>
</svg>
