<svg width="27" height="25" viewBox="0 0 27 25" fill="none" xmlns="http://www.w3.org/2000/svg">
<path d="M21.1868 8.55194H5.6431C2.89604 8.55194 0.661133 10.7877 0.661133 13.5357V19.5162C0.661133 22.2643 2.89604 24.5 5.6431 24.5H21.1868C23.9339 24.5 26.1688 22.2643 26.1688 19.5162V13.5357C26.1688 10.7877 23.9339 8.55194 21.1868 8.55194ZM24.176 19.5162C24.176 21.1651 22.8351 22.5065 21.1868 22.5065H13.415H5.6431C3.99486 22.5065 2.65392 21.1651 2.65392 19.5162V13.5357C2.65392 11.8869 3.99486 10.5455 5.6431 10.5455H13.415H21.1868C22.8351 10.5455 24.176 11.8869 24.176 13.5357V19.5162Z" fill="#06BC56"/>
<path d="M13.4151 19.4255C11.8169 19.4255 10.5166 18.1247 10.5166 16.5259C10.5166 14.9271 11.8169 13.6263 13.4151 13.6263C15.0134 13.6263 16.3137 14.9271 16.3137 16.5259C16.3137 18.1247 15.0134 19.4255 13.4151 19.4255ZM13.4151 15.5594C12.8824 15.5594 12.449 15.993 12.449 16.5259C12.449 17.0588 12.8824 17.4924 13.4151 17.4924C13.9479 17.4924 14.3813 17.0588 14.3813 16.5259C14.3813 15.993 13.9479 15.5594 13.4151 15.5594Z" fill="#404040"/>
<path d="M7.4249 17.4924H5.49254C4.95892 17.4924 4.52637 17.0598 4.52637 16.5262C4.52637 15.9926 4.95892 15.56 5.49254 15.56H7.4249C7.95852 15.56 8.39107 15.9926 8.39107 16.5262C8.39107 17.0598 7.95852 17.4924 7.4249 17.4924Z" fill="#404040"/>
<path d="M21.337 17.4924H19.4047C18.871 17.4924 18.4385 17.0598 18.4385 16.5262C18.4385 15.9926 18.871 15.56 19.4047 15.56H21.337C21.8706 15.56 22.3032 15.9926 22.3032 16.5262C22.3032 17.0598 21.8706 17.4924 21.337 17.4924Z" fill="#404040"/>
<path d="M3.22664 4.62761H23.602C24.0788 4.62761 24.4654 4.18233 24.4654 3.63302C24.4654 3.08371 24.0788 2.63843 23.602 2.63843H3.22664C2.74981 2.63843 2.36328 3.08371 2.36328 3.63302C2.36328 4.18233 2.74981 4.62761 3.22664 4.62761Z" fill="#404040"/>
<path fill-rule="evenodd" clip-rule="evenodd" d="M22.0728 0.805895C21.665 0.398035 21.0038 0.398035 20.5959 0.805895C20.1881 1.21375 20.1881 1.87502 20.5959 2.28288L21.9461 3.633H24.4673C24.4673 3.36573 24.3654 3.09846 24.1614 2.89454L22.0728 0.805895Z" fill="#404040"/>
</svg>
