<svg width="24" height="25" viewBox="0 0 24 25" fill="none" xmlns="http://www.w3.org/2000/svg">
<g clip-path="url(#clip0_730_3314)">
<path d="M13.875 20.75H10.125C9.60722 20.75 9.1875 20.3303 9.1875 19.8125C9.1875 19.2947 9.60722 18.875 10.125 18.875H13.875C14.3928 18.875 14.8125 19.2947 14.8125 19.8125C14.8125 20.3303 14.3928 20.75 13.875 20.75Z" fill="#404040"/>
<path d="M21.1875 15.125H2.8125C1.26169 15.125 0 16.3867 0 17.9375V21.6875C0 23.2383 1.26169 24.5 2.8125 24.5H21.1875C22.7383 24.5 24 23.2383 24 21.6875V17.9375C24 16.3867 22.7383 15.125 21.1875 15.125ZM22.125 21.6875C22.125 22.2044 21.7044 22.625 21.1875 22.625H2.8125C2.29556 22.625 1.875 22.2044 1.875 21.6875V17.9375C1.875 17.4206 2.29556 17 2.8125 17H21.1875C21.7044 17 22.125 17.4206 22.125 17.9375V21.6875Z" fill="#404040"/>
<path d="M1.875 9.37048V12.3125C1.875 12.8303 2.29472 13.25 2.8125 13.25C3.33028 13.25 3.75 12.8303 3.75 12.3125V9.875C4.84312 9.875 5.8283 9.40461 6.51436 8.65592C7.15697 9.41291 8.10056 9.875 9.1875 9.875C10.3067 9.875 11.3123 9.3815 12 8.60145C12.6877 9.3815 13.6933 9.875 14.8125 9.875C15.8994 9.875 16.843 9.41291 17.4856 8.65592C18.1717 9.40461 19.1569 9.875 20.25 9.875V12.3125C20.25 12.8303 20.6697 13.25 21.1875 13.25C21.7053 13.25 22.125 12.8303 22.125 12.3125V9.37048C23.2448 8.72108 24 7.50997 24 6.125C24 5.30698 23.7412 4.52947 23.2514 3.87659L21.5634 1.62612C21.0347 0.920984 20.1932 0.5 19.3125 0.5H4.6875C3.80677 0.5 2.96531 0.920984 2.43656 1.62603L0.748688 3.87655C0.258844 4.52947 0 5.30698 0 6.125C0 7.50997 0.75525 8.72108 1.875 9.37048ZM2.24864 5.00159L3.93666 2.75098C4.11581 2.51206 4.38952 2.375 4.6875 2.375H19.3125C19.6105 2.375 19.8842 2.51206 20.0634 2.75108L21.7515 5.00164C21.9959 5.32747 22.125 5.71592 22.125 6.125C22.125 7.15887 21.2839 8 20.25 8C19.2162 8 18.375 7.15887 18.375 6.125C18.375 5.60722 17.9553 5.1875 17.4375 5.1875C16.9198 5.1875 16.5 5.60722 16.5 6.125C16.5 7.05673 15.9204 8 14.8125 8C13.7787 8 12.9375 7.15887 12.9375 6.125C12.9375 5.60722 12.5178 5.1875 12 5.1875C11.4823 5.1875 11.0625 5.60722 11.0625 6.125C11.0625 7.15887 10.2214 8 9.18755 8C8.0797 8 7.50005 7.05673 7.50005 6.125C7.50005 5.60722 7.08033 5.1875 6.56255 5.1875C6.04477 5.1875 5.62505 5.60722 5.62505 6.125C5.62505 7.15887 4.78392 8 3.75005 8C2.71617 8 1.87505 7.15887 1.87505 6.125C1.875 5.71592 2.00419 5.32747 2.24864 5.00159Z" fill="#0190F8"/>
</g>
<defs>
<clipPath id="clip0_730_3314">
<rect width="24" height="24" fill="white" transform="translate(0 0.5)"/>
</clipPath>
</defs>
</svg>
