<svg width="25" height="25" viewBox="0 0 25 25" fill="none" xmlns="http://www.w3.org/2000/svg">
<g clip-path="url(#clip0_730_3361)">
<path d="M15.5391 24.5H9.02344C5.92181 24.5 3.39844 21.9766 3.39844 18.875V6.125C3.39844 3.02338 5.92181 0.5 9.02344 0.5H15.5391C18.6407 0.5 21.1641 3.02338 21.1641 6.125V18.875C21.1641 21.9766 18.6407 24.5 15.5391 24.5ZM9.02344 2.375C6.95569 2.375 5.27344 4.05725 5.27344 6.125V18.875C5.27344 20.9427 6.95569 22.625 9.02344 22.625H15.5391C17.6068 22.625 19.2891 20.9427 19.2891 18.875V6.125C19.2891 4.05725 17.6068 2.375 15.5391 2.375H9.02344ZM17.4141 7.57812C17.4141 7.06034 16.9943 6.64062 16.4766 6.64062H8.08594C7.56816 6.64062 7.14844 7.06034 7.14844 7.57812C7.14844 8.09591 7.56816 8.51562 8.08594 8.51562H16.4766C16.9943 8.51562 17.4141 8.09591 17.4141 7.57812ZM17.2734 19.8125V15.3594C17.2734 14.8416 16.8537 14.4219 16.3359 14.4219C15.8182 14.4219 15.3984 14.8416 15.3984 15.3594V19.8125C15.3984 20.3303 15.8182 20.75 16.3359 20.75C16.8537 20.75 17.2734 20.3303 17.2734 19.8125ZM8.27344 14.4219C7.62623 14.4219 7.10156 14.9465 7.10156 15.5938C7.10156 16.241 7.62623 16.7656 8.27344 16.7656C8.92064 16.7656 9.44531 16.241 9.44531 15.5938C9.44531 14.9465 8.92064 14.4219 8.27344 14.4219ZM12.3047 14.4219C11.6575 14.4219 11.1328 14.9465 11.1328 15.5938C11.1328 16.241 11.6575 16.7656 12.3047 16.7656C12.9519 16.7656 13.4766 16.241 13.4766 15.5938C13.4766 14.9465 12.9519 14.4219 12.3047 14.4219ZM8.27344 18.4062C7.62623 18.4062 7.10156 18.9309 7.10156 19.5781C7.10156 20.2253 7.62623 20.75 8.27344 20.75C8.92064 20.75 9.44531 20.2253 9.44531 19.5781C9.44531 18.9309 8.92064 18.4062 8.27344 18.4062ZM12.3047 18.4062C11.6575 18.4062 11.1328 18.9309 11.1328 19.5781C11.1328 20.2253 11.6575 20.75 12.3047 20.75C12.9519 20.75 13.4766 20.2253 13.4766 19.5781C13.4766 18.9309 12.9519 18.4062 12.3047 18.4062Z" fill="#1A7BEA"/>
<path d="M9.39844 11.5625C9.39844 12.2097 8.87377 12.7344 8.22656 12.7344C7.57936 12.7344 7.05469 12.2097 7.05469 11.5625C7.05469 10.9153 7.57936 10.3906 8.22656 10.3906C8.87377 10.3906 9.39844 10.9153 9.39844 11.5625ZM12.3047 10.3906C11.6575 10.3906 11.1328 10.9153 11.1328 11.5625C11.1328 12.2097 11.6575 12.7344 12.3047 12.7344C12.9519 12.7344 13.4766 12.2097 13.4766 11.5625C13.4766 10.9153 12.9519 10.3906 12.3047 10.3906ZM16.3359 10.3906C15.6887 10.3906 15.1641 10.9153 15.1641 11.5625C15.1641 12.2097 15.6887 12.7344 16.3359 12.7344C16.9831 12.7344 17.5078 12.2097 17.5078 11.5625C17.5078 10.9153 16.9831 10.3906 16.3359 10.3906Z" fill="#404040"/>
</g>
<defs>
<clipPath id="clip0_730_3361">
<rect width="24" height="24" fill="white" transform="translate(0.28125 0.5)"/>
</clipPath>
</defs>
</svg>
