<svg width="20" height="25" viewBox="0 0 20 25" fill="none" xmlns="http://www.w3.org/2000/svg">
<path d="M10.0001 15.7727C10.6026 15.7727 11.091 15.2843 11.091 14.6818V10.3182C11.091 9.71569 10.6026 9.22729 10.0001 9.22729C9.39758 9.22729 8.90918 9.71569 8.90918 10.3182V14.6818C8.90918 15.2843 9.39758 15.7727 10.0001 15.7727Z" fill="#FF7676"/>
<path d="M19.818 10.3182C19.818 4.90444 15.4136 0.5 9.99982 0.5C4.58608 0.5 0.181641 4.90444 0.181641 10.3182V14.6818C0.181641 20.0956 4.58608 24.5 9.99982 24.5C15.4136 24.5 19.818 20.0956 19.818 14.6818V10.3182ZM17.6362 14.6818C17.6362 18.8925 14.2105 22.3182 9.99982 22.3182C5.78913 22.3182 2.36346 18.8925 2.36346 14.6818V10.3182C2.36346 6.10749 5.78913 2.68182 9.99982 2.68182C14.2105 2.68182 17.6362 6.10749 17.6362 10.3182V14.6818Z" fill="#404040"/>
<path d="M11.0904 5.95456C11.0904 5.35205 10.602 4.86365 9.99947 4.86365C6.99183 4.86365 4.54492 7.31056 4.54492 10.3182V14.6818C4.54492 15.2843 5.03332 15.7727 5.63583 15.7727C6.23834 15.7727 6.72674 15.2843 6.72674 14.6818V10.3182C6.72674 8.51361 8.19489 7.04547 9.99947 7.04547C10.602 7.04547 11.0904 6.55707 11.0904 5.95456Z" fill="#FF7676"/>
<path d="M14.3637 9.22729C13.7612 9.22729 13.2728 9.71569 13.2728 10.3182V14.6818C13.2728 16.4864 11.8047 17.9546 10.0001 17.9546C9.39758 17.9546 8.90918 18.443 8.90918 19.0455C8.90918 19.648 9.39758 20.1364 10.0001 20.1364C13.0077 20.1364 15.4546 17.6895 15.4546 14.6818V10.3182C15.4546 9.71569 14.9662 9.22729 14.3637 9.22729Z" fill="#FF7676"/>
</svg>
