<svg width="24" height="25" viewBox="0 0 24 25" fill="none" xmlns="http://www.w3.org/2000/svg">
<g clip-path="url(#clip0_730_3336)">
<path d="M12.1406 0.500155C12.1342 0.500108 12.1469 0.500155 12.1406 0.500155V0.500155ZM17.203 0.500155C16.4774 0.492374 15.7162 0.778122 15.2011 1.28545C14.8004 1.67099 14.4488 1.66987 14.0484 1.28545C13.547 0.791575 12.8448 0.505217 12.1406 0.500155C11.4296 0.500155 10.7239 0.785809 10.2168 1.2854C10.0584 1.4414 9.84772 1.53107 9.63885 1.5314H9.63763C9.42876 1.5314 9.22509 1.44407 9.06407 1.28545C8.54972 0.778778 7.83783 0.493358 7.11455 0.500295C6.41743 0.507702 5.73137 0.793872 5.23244 1.2854C5.07381 1.44163 4.86358 1.53131 4.6556 1.5314C4.43894 1.5314 4.23251 1.44515 4.07501 1.28854C3.5637 0.780138 2.87112 0.500155 2.15624 0.500155C0.970541 0.510374 0 1.49151 0 2.6871V18.875C0 21.9767 2.52336 24.5 5.62497 24.5H10.4999C11.7438 24.4505 11.7429 22.6741 10.4999 22.625H5.62497C3.55723 22.625 1.87499 20.9428 1.87499 18.875V2.68714C1.87499 2.51947 1.99841 2.3765 2.15638 2.37514C2.37294 2.37519 2.5955 2.46158 2.75291 2.61819C3.26417 3.12655 3.93963 3.40648 4.65513 3.40644H4.65635C5.36252 3.40611 6.03432 3.1273 6.54807 2.62128C6.70215 2.4695 6.92133 2.37753 7.13433 2.37528C7.35872 2.37233 7.59174 2.46721 7.74825 2.62133C8.26242 3.12776 8.9331 3.40648 9.63744 3.40648H9.64185C10.3378 3.4054 11.027 3.11923 11.5325 2.62133C11.6868 2.46932 11.9244 2.37524 12.1406 2.37524C12.3551 2.37678 12.5802 2.47114 12.7326 2.62133C13.832 3.72021 15.4172 3.7212 16.5169 2.62128C16.6715 2.46899 16.9377 2.37519 17.1561 2.37519C17.306 2.38414 17.4374 2.52453 17.4374 2.68653V9.07828C17.4869 10.3221 19.2633 10.3212 19.3124 9.07828V2.68649C19.3124 1.53116 18.3749 0.500155 17.203 0.500155ZM4.68747 14.7032C3.4436 14.7527 3.44454 16.5291 4.68747 16.5782H8.9062C10.1501 16.5287 10.1491 14.7523 8.9062 14.7032H4.68747ZM11.3906 11.8907C11.3906 11.3729 10.9708 10.9532 10.4531 10.9532H4.68747C3.4436 11.0027 3.44454 12.7791 4.68747 12.8282H10.4531C10.9708 12.8282 11.3906 12.4085 11.3906 11.8907ZM10.4531 7.20324H4.68747C3.4436 7.25274 3.44454 9.02915 4.68747 9.07823H10.4531C11.6969 9.02873 11.696 7.25232 10.4531 7.20324Z" fill="#404040"/>
<path d="M15.5622 8.04699C15.5622 8.69419 15.0375 9.21886 14.3903 9.21886C12.8358 9.15712 12.8363 6.93662 14.3903 6.87512C15.0375 6.87512 15.5622 7.39979 15.5622 8.04699Z" fill="#404040"/>
<path d="M18.9108 16.6931L18.7631 17.2396H15.9863L16.137 16.6931H18.9108ZM17.5283 19.9218L16.072 18.2026L16.069 17.73H16.7721C16.9434 17.73 17.0842 17.6985 17.1945 17.6355C17.3068 17.5705 17.3904 17.4828 17.4456 17.3726C17.5027 17.2623 17.5313 17.1382 17.5313 17.0004C17.5313 16.8566 17.5057 16.7296 17.4544 16.6193C17.4032 16.507 17.3215 16.4194 17.2093 16.3564C17.097 16.2934 16.9483 16.2619 16.7632 16.2619H15.9893L16.1577 15.6208H16.7632C17.1138 15.6208 17.4052 15.674 17.6376 15.7804C17.8719 15.8847 18.0472 16.0374 18.1634 16.2382C18.2816 16.4371 18.3406 16.6774 18.3406 16.959C18.3406 17.2052 18.2993 17.4228 18.2166 17.6118C18.1358 17.7989 18.0049 17.9515 17.8237 18.0697C17.6425 18.1878 17.4042 18.2666 17.1088 18.306L18.4293 19.8805V19.9218H17.5283ZM18.9137 15.6208L18.7631 16.1673H16.4796L16.6303 15.6208H18.9137Z" fill="#06BCB1"/>
<path d="M23.8163 17.4471C23.8163 20.9364 20.9775 23.7752 17.4882 23.7752C9.09316 23.4276 9.09559 11.4653 17.4883 11.119C20.9775 11.119 23.8163 13.9578 23.8163 17.4471ZM21.9413 17.4471C21.9413 14.9917 19.9437 12.994 17.4882 12.994C11.5806 13.2386 11.5823 21.6565 17.4883 21.9002C19.9436 21.9002 21.9413 19.9026 21.9413 17.4471Z" fill="#06BCB1"/>
</g>
<defs>
<clipPath id="clip0_730_3336">
<rect width="24" height="24" fill="white" transform="translate(0 0.5)"/>
</clipPath>
</defs>
</svg>
