<svg width="29" height="25" viewBox="0 0 29 25" fill="none" xmlns="http://www.w3.org/2000/svg">
<path d="M5.77255 7.04547H6.86346V21.2273C6.86346 23.0319 8.3316 24.5 10.1362 24.5H18.8635C20.668 24.5 22.1362 23.0319 22.1362 21.2273V7.04547H23.2271C23.8296 7.04547 24.318 6.55707 24.318 5.95456C24.318 5.35205 23.8296 4.86365 23.2271 4.86365H5.77255C5.17004 4.86365 4.68164 5.35205 4.68164 5.95456C4.68164 6.55707 5.17004 7.04547 5.77255 7.04547ZM9.04528 21.2273V20.1364H10.1362C10.7377 20.1364 11.2271 20.6258 11.2271 21.2273V22.3182H10.1362C9.53466 22.3182 9.04528 21.8288 9.04528 21.2273ZM18.8635 22.3182H17.7725V21.2273C17.7725 20.6258 18.2619 20.1364 18.8635 20.1364H19.9544V21.2273C19.9544 21.8288 19.465 22.3182 18.8635 22.3182ZM19.9544 17.9546H18.8635C17.0589 17.9546 15.5907 19.4227 15.5907 21.2273V22.3182H13.4089V21.2273C13.4089 19.4227 11.9408 17.9546 10.1362 17.9546H9.04528V7.04547H19.9544V17.9546Z" fill="#ED7F4C"/>
<path d="M14.4993 15.7727C16.3038 15.7727 17.772 14.3046 17.772 12.5C17.772 10.6954 16.3039 9.22729 14.4993 9.22729C12.6947 9.22729 11.2266 10.6954 11.2266 12.5C11.2266 14.3046 12.6947 15.7727 14.4993 15.7727ZM14.4993 11.4091C15.1008 11.4091 15.5902 11.8985 15.5902 12.5C15.5902 13.1015 15.1008 13.5909 14.4993 13.5909C13.8978 13.5909 13.4084 13.1015 13.4084 12.5C13.4084 11.8985 13.8978 11.4091 14.4993 11.4091Z" fill="#404040"/>
<path d="M25.1907 0.5H3.80886C2.00428 0.5 0.536133 1.96815 0.536133 3.77273V8.13636C0.536133 9.94095 2.00428 11.4091 3.80886 11.4091C4.41137 11.4091 4.89977 10.9207 4.89977 10.3182C4.89977 9.71567 4.41137 9.22727 3.80886 9.22727C3.20733 9.22727 2.71795 8.73789 2.71795 8.13636V3.77273C2.71795 3.1712 3.20733 2.68182 3.80886 2.68182H25.1907C25.7922 2.68182 26.2816 3.1712 26.2816 3.77273V8.13636C26.2816 8.73789 25.7922 9.22727 25.1907 9.22727C24.5882 9.22727 24.0998 9.71567 24.0998 10.3182C24.0998 10.9207 24.5882 11.4091 25.1907 11.4091C26.9953 11.4091 28.4634 9.94095 28.4634 8.13636V3.77273C28.4634 1.96815 26.9952 0.5 25.1907 0.5Z" fill="#404040"/>
</svg>
