<svg width="23" height="19" viewBox="0 0 23 19" fill="none" xmlns="http://www.w3.org/2000/svg">
<path d="M19.0772 6.67993V4.37993C19.0772 3.25983 19.0772 2.69978 18.8602 2.27195C18.6694 1.89563 18.3649 1.58967 17.9903 1.39792C17.5645 1.17993 17.0071 1.17993 15.8923 1.17993H4.34702C3.23219 1.17993 2.67478 1.17993 2.24898 1.39792C1.87443 1.58967 1.56991 1.89563 1.37907 2.27195C1.16211 2.69977 1.16211 3.25983 1.16211 4.37993V13.9799C1.16211 15.1 1.16211 15.6601 1.37907 16.0879C1.56991 16.4642 1.87443 16.7702 2.24898 16.9619C2.67478 17.1799 3.23219 17.1799 4.34701 17.1799L15.8923 17.1799C17.0071 17.1799 17.5645 17.1799 17.9903 16.9619C18.3649 16.7702 18.6694 16.4642 18.8602 16.0879C19.0772 15.6601 19.0772 15.1 19.0772 13.9799V11.6799M14.1008 9.17993C14.1008 8.71528 14.1008 8.48295 14.139 8.28975C14.2961 7.49637 14.9134 6.87617 15.703 6.71836C15.8953 6.67993 16.1265 6.67993 16.589 6.67993H18.5796C19.042 6.67993 19.2733 6.67993 19.4655 6.71836C20.2552 6.87617 20.8725 7.49637 21.0295 8.28975C21.0678 8.48295 21.0678 8.71528 21.0678 9.17993C21.0678 9.64459 21.0678 9.87691 21.0295 10.0701C20.8725 10.8635 20.2552 11.4837 19.4655 11.6415C19.2733 11.6799 19.042 11.6799 18.5796 11.6799H16.589C16.1265 11.6799 15.8953 11.6799 15.703 11.6415C14.9134 11.4837 14.2961 10.8635 14.139 10.0701C14.1008 9.87691 14.1008 9.64459 14.1008 9.17993Z" stroke="white" stroke-width="2" stroke-linecap="round" stroke-linejoin="round"/>
</svg>
