<svg width="140" height="141" viewBox="0 0 140 141" fill="none" xmlns="http://www.w3.org/2000/svg">
<circle cx="70" cy="70.8536" r="70" fill="#F0F3FD"/>
<path fill-rule="evenodd" clip-rule="evenodd" d="M73.932 116.084C96.983 116.084 115.67 117.869 115.67 120.07C115.67 122.272 96.983 124.057 73.932 124.057C50.8811 124.057 32.1958 122.272 32.1958 120.07C32.1958 117.869 50.8811 116.084 73.932 116.084Z" fill="#C7CEFF"/>
<path fill-rule="evenodd" clip-rule="evenodd" d="M63.527 31.6887C60.707 25.6853 54.6043 21.5251 47.5374 21.5251C39.6711 21.5251 32.9983 26.6816 30.7205 33.7961C25.6309 34.1077 21.5434 38.1883 21.5937 43.5056C21.5993 44.0072 73.931 43.8493 73.931 43.5056C73.9604 35.459 71.1976 31.6146 64.8336 31.6146C64.392 31.6146 63.9574 31.6398 63.527 31.6887Z" fill="white"/>
<path fill-rule="evenodd" clip-rule="evenodd" d="M91.1974 28.0408C93.1497 23.8848 97.3755 21.0047 102.267 21.0047C107.714 21.0047 112.332 24.5752 113.91 29.4998C117.433 29.715 120.263 32.5406 120.228 36.2229C120.225 36.5695 83.995 36.4605 83.995 36.2229C83.974 30.6527 85.8871 27.9905 90.2933 27.9905C90.5993 27.9905 90.8998 28.0073 91.1974 28.0408Z" fill="white"/>
<path fill-rule="evenodd" clip-rule="evenodd" d="M22.0746 77.8003L25.128 80.8537C25.5137 81.2394 26.1384 81.2394 26.5227 80.8537C26.9084 80.4694 26.9084 79.8434 26.5227 79.4591L23.4693 76.4043C23.085 76.02 22.4589 76.02 22.0746 76.4043C21.6889 76.79 21.6889 77.4146 22.0746 77.8003Z" fill="#C7CEFF"/>
<path fill-rule="evenodd" clip-rule="evenodd" d="M25.128 76.4043L22.0746 79.4591C21.6889 79.8434 21.6889 80.4694 22.0746 80.8537C22.4603 81.2394 23.085 81.2394 23.4693 80.8537L26.5227 77.8003C26.9084 77.4146 26.9084 76.79 26.5227 76.4043C26.1384 76.02 25.5137 76.02 25.128 76.4043Z" fill="#C7CEFF"/>
<path fill-rule="evenodd" clip-rule="evenodd" d="M109.198 99.0321L112.252 102.087C112.636 102.471 113.262 102.471 113.646 102.087C114.032 101.701 114.032 101.077 113.646 100.691L110.593 97.6374C110.209 97.2517 109.583 97.2517 109.198 97.6374C108.813 98.0231 108.813 98.6478 109.198 99.0321Z" fill="#C7CEFF"/>
<path fill-rule="evenodd" clip-rule="evenodd" d="M112.252 97.6374L109.198 100.691C108.814 101.077 108.814 101.701 109.198 102.087C109.583 102.471 110.209 102.471 110.593 102.087L113.646 99.0321C114.032 98.6478 114.032 98.0231 113.646 97.6374C113.262 97.2517 112.636 97.2517 112.252 97.6374Z" fill="#C7CEFF"/>
<path fill-rule="evenodd" clip-rule="evenodd" d="M119.021 37.3046L122.073 40.358C122.459 40.7437 123.083 40.7437 123.469 40.358C123.853 39.9737 123.853 39.349 123.469 38.9634L120.415 35.9099C120.03 35.5242 119.405 35.5242 119.021 35.9099C118.635 36.2942 118.635 36.9203 119.021 37.3046Z" fill="#C7CEFF"/>
<path fill-rule="evenodd" clip-rule="evenodd" d="M122.073 35.9099L119.021 38.9634C118.635 39.349 118.635 39.9737 119.021 40.358C119.405 40.7437 120.03 40.7437 120.415 40.358L123.469 37.3046C123.853 36.9203 123.853 36.2942 123.469 35.9099C123.083 35.5242 122.459 35.5242 122.073 35.9099Z" fill="#C7CEFF"/>
<path d="M44.3149 62.6287C44.3149 76.8337 60.0502 112.094 69.8854 120.012C79.7221 112.094 95.4574 76.8337 95.4574 62.63C95.4574 48.425 84.0067 36.9058 69.8854 36.9058C55.7642 36.9058 44.3149 48.425 44.3149 62.6287Z" fill="#C7CEFF"/>
<path fill-rule="evenodd" clip-rule="evenodd" d="M79.4908 109.197C87.9593 95.0688 96.4433 73.1386 96.4433 62.6298C96.4433 47.8783 84.5496 35.919 69.8847 35.919C64.8511 35.919 60.1431 37.3276 56.131 39.7759C55.6671 40.0582 55.519 40.6661 55.8026 41.1314C56.0863 41.5968 56.6942 41.7435 57.1596 41.4598C60.8712 39.1946 65.227 37.8907 69.8847 37.8907C83.4638 37.8907 94.4701 48.9711 94.4701 62.6298C94.4701 72.9165 86.0881 94.3533 77.7999 108.184C77.519 108.651 77.6713 109.257 78.1381 109.537C78.6048 109.816 79.2113 109.664 79.4908 109.197Z" fill="#49508F"/>
<path fill-rule="evenodd" clip-rule="evenodd" d="M46.0549 50.8299C44.3095 54.3878 43.3285 58.3929 43.3285 62.6286C43.3285 71.2495 49.0231 87.5479 55.7546 100.927C60.2712 109.902 65.2628 117.557 69.2665 120.781C69.6914 121.122 70.3118 121.055 70.6542 120.63C70.9952 120.206 70.9281 119.584 70.5047 119.244C66.6393 116.133 61.8768 108.704 57.5168 100.04C50.9362 86.9624 45.3017 71.0552 45.3017 62.6286C45.3017 58.706 46.2086 54.9943 47.8255 51.6978C48.0658 51.2101 47.8632 50.6175 47.3741 50.3786C46.8864 50.1382 46.2938 50.3408 46.0549 50.8299Z" fill="#49508F"/>
<path d="M60.2949 62.2333C60.2949 67.5255 64.5921 71.8212 69.8856 71.8212C75.1792 71.8212 79.4749 67.5241 79.4749 62.2333C79.4749 56.9384 75.1778 52.644 69.8856 52.644C64.5921 52.644 60.2949 56.9384 60.2949 62.2333Z" fill="#6974FB"/>
<path fill-rule="evenodd" clip-rule="evenodd" d="M69.8851 51.6572C64.048 51.6572 59.3078 56.3932 59.3078 62.2331C59.3078 68.0703 64.048 72.8076 69.8851 72.8076C75.7223 72.8076 80.461 68.0689 80.461 62.2331C80.461 61.6881 80.018 61.2465 79.4744 61.2465C78.9294 61.2465 78.4878 61.6881 78.4878 62.2331C78.4878 66.9802 74.6336 70.8358 69.8851 70.8358C65.1366 70.8358 61.281 66.9802 61.281 62.2331C61.281 57.4832 65.1366 53.629 69.8851 53.629C70.4287 53.629 70.8703 53.1874 70.8703 52.6438C70.8703 52.0988 70.4287 51.6572 69.8851 51.6572Z" fill="#49508F"/>
</svg>
