<svg width="226" height="245" viewBox="0 0 226 245" fill="none" xmlns="http://www.w3.org/2000/svg">
<circle cx="118.848" cy="126.946" r="73.0533" fill="#01CD5B"/>
<path d="M101.896 37.4328C108.524 36.2259 121.778 31.574 121.778 22.6211C121.778 13.6683 130.543 5.72481 134.925 2.87219" stroke="#FE5484" stroke-width="5" stroke-linecap="round" stroke-linejoin="round"/>
<path d="M108.375 130.856L96.9827 120.224C95.7778 119.099 93.8914 119.157 92.7579 120.353L87.4388 125.968C86.3083 127.161 86.3486 129.042 87.5293 130.186L108.358 150.364C109.537 151.506 111.415 151.488 112.573 150.323L150.038 112.624C151.261 111.394 151.189 109.387 149.882 108.248L144.207 103.301C143.022 102.267 141.24 102.325 140.124 103.432L112.534 130.793C111.39 131.928 109.553 131.956 108.375 130.856Z" fill="white"/>
<circle cx="197.367" cy="62.3378" r="6.98047" fill="#73D2FD"/>
<circle cx="57.0229" cy="44.4132" r="4.59717" fill="#F5C36C"/>
<circle cx="18.4211" cy="93.2186" r="5.65942" fill="#FFC463"/>
<circle cx="4.59717" cy="4.59717" r="4.59717" transform="matrix(-0.449667 -0.893196 -0.893196 0.449667 170.953 216.055)" fill="#F5C36C"/>
<circle cx="26.7427" cy="27.8687" r="8.32178" fill="#C25CFE"/>
<circle cx="8.32178" cy="8.32178" r="8.32178" transform="matrix(-0.449667 -0.893196 -0.893196 0.449667 204.348 237.313)" fill="#C25CFE"/>
<circle cx="8.32178" cy="8.32178" r="8.32178" transform="matrix(-0.449667 -0.893196 -0.893196 0.449667 72.7949 231.759)" fill="#70C043"/>
<path d="M208.163 142.488C212.744 143.152 222.231 148.056 223.532 162.361" stroke="#F4C26C" stroke-width="4" stroke-linecap="round" stroke-linejoin="round"/>
<path d="M34.374 165.344C28.1481 173.587 13.4096 184.421 4.12564 162.054C4.07053 161.921 4.02269 161.781 3.99208 161.64C2.96459 156.927 5.72486 147.148 10.4581 156.009C13.9556 162.556 8.59805 180.096 2.46777 188.029" stroke="#7ACDF0" stroke-width="4" stroke-linecap="round" stroke-linejoin="round"/>
</svg>
