<svg width="19" height="23" viewBox="0 0 19 23" fill="none" xmlns="http://www.w3.org/2000/svg">
<path d="M7.30859 15.2783H11.3086M6.10859 21.2783H12.5086C14.1888 21.2783 15.0288 21.2783 15.6706 20.9513C16.2351 20.6637 16.694 20.2048 16.9816 19.6403C17.3086 18.9986 17.3086 18.1585 17.3086 16.4783V6.07832C17.3086 4.39816 17.3086 3.55808 16.9816 2.91635C16.694 2.35186 16.2351 1.89292 15.6706 1.6053C15.0288 1.27832 14.1888 1.27832 12.5086 1.27832H6.10859C4.42844 1.27832 3.58836 1.27832 2.94662 1.6053C2.38214 1.89292 1.92319 2.35186 1.63557 2.91635C1.30859 3.55808 1.30859 4.39816 1.30859 6.07832V16.4783C1.30859 18.1585 1.30859 18.9986 1.63557 19.6403C1.92319 20.2048 2.38214 20.6637 2.94662 20.9513C3.58836 21.2783 4.42844 21.2783 6.10859 21.2783ZM12.3086 8.27832C12.3086 9.93517 10.9654 11.2783 9.30859 11.2783C7.65174 11.2783 6.30859 9.93517 6.30859 8.27832C6.30859 6.62147 7.65174 5.27832 9.30859 5.27832C10.9654 5.27832 12.3086 6.62147 12.3086 8.27832Z" stroke="#0190F8" stroke-opacity="0.93" stroke-width="2" stroke-linecap="round" stroke-linejoin="round"/>
<path d="M4.58496 18.2998H14.0312" stroke="#0190F8" stroke-opacity="0.93" stroke-width="1.5" stroke-linecap="round"/>
</svg>
